<?xml version="1.0" encoding="utf-8" standalone="no"?>
<!DOCTYPE svg PUBLIC "-//W3C//DTD SVG 1.1//EN"
  "http://www.w3.org/Graphics/SVG/1.1/DTD/svg11.dtd">
<!-- Created with matplotlib (https://matplotlib.org/) -->
<svg height="396pt" version="1.1" viewBox="0 0 720 396" width="720pt" xmlns="http://www.w3.org/2000/svg" xmlns:xlink="http://www.w3.org/1999/xlink">
 <defs>
  <style type="text/css">
*{stroke-linecap:butt;stroke-linejoin:round;}
  </style>
 </defs>
 <g id="figure_1">
  <g id="patch_1">
   <path d="M 0 396 
L 720 396 
L 720 0 
L 0 0 
z
" style="fill:none;"/>
  </g>
  <g id="axes_1">
   <g id="patch_2">
    <path d="M 144 336.6 
L 648 336.6 
L 648 39.6 
L 144 39.6 
z
" style="fill:none;"/>
   </g>
   <g id="PathCollection_1">
    <defs>
     <path d="M 0 2.25 
C 0.596707 2.25 1.169055 2.012926 1.59099 1.59099 
C 2.012926 1.169055 2.25 0.596707 2.25 0 
C 2.25 -0.596707 2.012926 -1.169055 1.59099 -1.59099 
C 1.169055 -2.012926 0.596707 -2.25 0 -2.25 
C -0.596707 -2.25 -1.169055 -2.012926 -1.59099 -1.59099 
C -2.012926 -1.169055 -2.25 -0.596707 -2.25 0 
C -2.25 0.596707 -2.012926 1.169055 -1.59099 1.59099 
C -1.169055 2.012926 -0.596707 2.25 0 2.25 
z
" id="m8dace88afb" style="stroke:#7a68a6;"/>
    </defs>
    <g clip-path="url(#p6a11222eb5)">
     <use style="fill:#7a68a6;stroke:#7a68a6;" x="166.918909" xlink:href="#m8dace88afb" y="275.323686"/>
     <use style="fill:#7a68a6;stroke:#7a68a6;" x="170.584207" xlink:href="#m8dace88afb" y="277.847614"/>
     <use style="fill:#7a68a6;stroke:#7a68a6;" x="174.249504" xlink:href="#m8dace88afb" y="307.571113"/>
     <use style="fill:#7a68a6;stroke:#7a68a6;" x="177.914802" xlink:href="#m8dace88afb" y="318.517611"/>
     <use style="fill:#7a68a6;stroke:#7a68a6;" x="181.580099" xlink:href="#m8dace88afb" y="284.066813"/>
     <use style="fill:#7a68a6;stroke:#7a68a6;" x="185.245397" xlink:href="#m8dace88afb" y="286.846874"/>
     <use style="fill:#7a68a6;stroke:#7a68a6;" x="188.910694" xlink:href="#m8dace88afb" y="311.201087"/>
     <use style="fill:#7a68a6;stroke:#7a68a6;" x="192.575991" xlink:href="#m8dace88afb" y="304.311384"/>
     <use style="fill:#7a68a6;stroke:#7a68a6;" x="196.241289" xlink:href="#m8dace88afb" y="260.292397"/>
     <use style="fill:#7a68a6;stroke:#7a68a6;" x="199.906586" xlink:href="#m8dace88afb" y="271.168647"/>
     <use style="fill:#7a68a6;stroke:#7a68a6;" x="203.571884" xlink:href="#m8dace88afb" y="267.812406"/>
     <use style="fill:#7a68a6;stroke:#7a68a6;" x="207.237181" xlink:href="#m8dace88afb" y="253.014618"/>
     <use style="fill:#7a68a6;stroke:#7a68a6;" x="210.902479" xlink:href="#m8dace88afb" y="206.049258"/>
     <use style="fill:#7a68a6;stroke:#7a68a6;" x="214.567776" xlink:href="#m8dace88afb" y="214.3046"/>
     <use style="fill:#7a68a6;stroke:#7a68a6;" x="218.233074" xlink:href="#m8dace88afb" y="167.182007"/>
     <use style="fill:#7a68a6;stroke:#7a68a6;" x="221.898371" xlink:href="#m8dace88afb" y="170.087648"/>
     <use style="fill:#7a68a6;stroke:#7a68a6;" x="225.563669" xlink:href="#m8dace88afb" y="113.492276"/>
     <use style="fill:#7a68a6;stroke:#7a68a6;" x="229.228966" xlink:href="#m8dace88afb" y="122.606572"/>
     <use style="fill:#7a68a6;stroke:#7a68a6;" x="232.894263" xlink:href="#m8dace88afb" y="53.686195"/>
     <use style="fill:#7a68a6;stroke:#7a68a6;" x="236.559561" xlink:href="#m8dace88afb" y="116.337458"/>
     <use style="fill:#7a68a6;stroke:#7a68a6;" x="240.224858" xlink:href="#m8dace88afb" y="130.532558"/>
     <use style="fill:#7a68a6;stroke:#7a68a6;" x="243.890156" xlink:href="#m8dace88afb" y="146.854806"/>
     <use style="fill:#7a68a6;stroke:#7a68a6;" x="247.555453" xlink:href="#m8dace88afb" y="127.727974"/>
     <use style="fill:#7a68a6;stroke:#7a68a6;" x="251.220751" xlink:href="#m8dace88afb" y="180.620657"/>
     <use style="fill:#7a68a6;stroke:#7a68a6;" x="254.886048" xlink:href="#m8dace88afb" y="171.932826"/>
     <use style="fill:#7a68a6;stroke:#7a68a6;" x="258.551346" xlink:href="#m8dace88afb" y="191.794184"/>
     <use style="fill:#7a68a6;stroke:#7a68a6;" x="262.216643" xlink:href="#m8dace88afb" y="187.769249"/>
     <use style="fill:#7a68a6;stroke:#7a68a6;" x="265.88194" xlink:href="#m8dace88afb" y="229.869246"/>
     <use style="fill:#7a68a6;stroke:#7a68a6;" x="269.547238" xlink:href="#m8dace88afb" y="248.416382"/>
     <use style="fill:#7a68a6;stroke:#7a68a6;" x="273.212535" xlink:href="#m8dace88afb" y="249.017054"/>
     <use style="fill:#7a68a6;stroke:#7a68a6;" x="276.877833" xlink:href="#m8dace88afb" y="262.84822"/>
     <use style="fill:#7a68a6;stroke:#7a68a6;" x="280.54313" xlink:href="#m8dace88afb" y="286.51381"/>
     <use style="fill:#7a68a6;stroke:#7a68a6;" x="284.208428" xlink:href="#m8dace88afb" y="285.388012"/>
     <use style="fill:#7a68a6;stroke:#7a68a6;" x="287.873725" xlink:href="#m8dace88afb" y="271.278855"/>
     <use style="fill:#7a68a6;stroke:#7a68a6;" x="291.539023" xlink:href="#m8dace88afb" y="286.105404"/>
     <use style="fill:#7a68a6;stroke:#7a68a6;" x="295.20432" xlink:href="#m8dace88afb" y="297.911636"/>
     <use style="fill:#7a68a6;stroke:#7a68a6;" x="298.869618" xlink:href="#m8dace88afb" y="288.455076"/>
     <use style="fill:#7a68a6;stroke:#7a68a6;" x="302.534915" xlink:href="#m8dace88afb" y="279.343608"/>
     <use style="fill:#7a68a6;stroke:#7a68a6;" x="306.200212" xlink:href="#m8dace88afb" y="244.263839"/>
     <use style="fill:#7a68a6;stroke:#7a68a6;" x="309.86551" xlink:href="#m8dace88afb" y="250.733553"/>
     <use style="fill:#7a68a6;stroke:#7a68a6;" x="313.530807" xlink:href="#m8dace88afb" y="232.726512"/>
     <use style="fill:#7a68a6;stroke:#7a68a6;" x="317.196105" xlink:href="#m8dace88afb" y="221.518891"/>
     <use style="fill:#7a68a6;stroke:#7a68a6;" x="320.861402" xlink:href="#m8dace88afb" y="207.606653"/>
     <use style="fill:#7a68a6;stroke:#7a68a6;" x="324.5267" xlink:href="#m8dace88afb" y="175.33594"/>
     <use style="fill:#7a68a6;stroke:#7a68a6;" x="328.191997" xlink:href="#m8dace88afb" y="197.795589"/>
     <use style="fill:#7a68a6;stroke:#7a68a6;" x="331.857295" xlink:href="#m8dace88afb" y="161.038199"/>
     <use style="fill:#7a68a6;stroke:#7a68a6;" x="335.522592" xlink:href="#m8dace88afb" y="164.766454"/>
     <use style="fill:#7a68a6;stroke:#7a68a6;" x="339.18789" xlink:href="#m8dace88afb" y="147.031739"/>
     <use style="fill:#7a68a6;stroke:#7a68a6;" x="342.853187" xlink:href="#m8dace88afb" y="150.681958"/>
     <use style="fill:#7a68a6;stroke:#7a68a6;" x="346.518484" xlink:href="#m8dace88afb" y="157.231902"/>
     <use style="fill:#7a68a6;stroke:#7a68a6;" x="350.183782" xlink:href="#m8dace88afb" y="151.925866"/>
     <use style="fill:#7a68a6;stroke:#7a68a6;" x="353.849079" xlink:href="#m8dace88afb" y="168.683112"/>
     <use style="fill:#7a68a6;stroke:#7a68a6;" x="357.514377" xlink:href="#m8dace88afb" y="174.426789"/>
     <use style="fill:#7a68a6;stroke:#7a68a6;" x="361.179674" xlink:href="#m8dace88afb" y="189.95976"/>
     <use style="fill:#7a68a6;stroke:#7a68a6;" x="364.844972" xlink:href="#m8dace88afb" y="210.616248"/>
     <use style="fill:#7a68a6;stroke:#7a68a6;" x="368.510269" xlink:href="#m8dace88afb" y="202.355061"/>
     <use style="fill:#7a68a6;stroke:#7a68a6;" x="372.175567" xlink:href="#m8dace88afb" y="222.799002"/>
     <use style="fill:#7a68a6;stroke:#7a68a6;" x="375.840864" xlink:href="#m8dace88afb" y="272.96326"/>
     <use style="fill:#7a68a6;stroke:#7a68a6;" x="379.506161" xlink:href="#m8dace88afb" y="270.845453"/>
     <use style="fill:#7a68a6;stroke:#7a68a6;" x="383.171459" xlink:href="#m8dace88afb" y="283.578322"/>
     <use style="fill:#7a68a6;stroke:#7a68a6;" x="386.836756" xlink:href="#m8dace88afb" y="271.632838"/>
     <use style="fill:#7a68a6;stroke:#7a68a6;" x="390.502054" xlink:href="#m8dace88afb" y="322.513805"/>
     <use style="fill:#7a68a6;stroke:#7a68a6;" x="394.167351" xlink:href="#m8dace88afb" y="270.708868"/>
     <use style="fill:#7a68a6;stroke:#7a68a6;" x="397.832649" xlink:href="#m8dace88afb" y="286.016794"/>
     <use style="fill:#7a68a6;stroke:#7a68a6;" x="401.497946" xlink:href="#m8dace88afb" y="236.687198"/>
     <use style="fill:#7a68a6;stroke:#7a68a6;" x="405.163244" xlink:href="#m8dace88afb" y="247.706941"/>
     <use style="fill:#7a68a6;stroke:#7a68a6;" x="408.828541" xlink:href="#m8dace88afb" y="289.882673"/>
     <use style="fill:#7a68a6;stroke:#7a68a6;" x="412.493839" xlink:href="#m8dace88afb" y="231.796921"/>
     <use style="fill:#7a68a6;stroke:#7a68a6;" x="416.159136" xlink:href="#m8dace88afb" y="236.695618"/>
     <use style="fill:#7a68a6;stroke:#7a68a6;" x="419.824433" xlink:href="#m8dace88afb" y="205.058381"/>
     <use style="fill:#7a68a6;stroke:#7a68a6;" x="423.489731" xlink:href="#m8dace88afb" y="206.55488"/>
     <use style="fill:#7a68a6;stroke:#7a68a6;" x="427.155028" xlink:href="#m8dace88afb" y="168.090351"/>
     <use style="fill:#7a68a6;stroke:#7a68a6;" x="430.820326" xlink:href="#m8dace88afb" y="210.851362"/>
     <use style="fill:#7a68a6;stroke:#7a68a6;" x="434.485623" xlink:href="#m8dace88afb" y="148.257819"/>
     <use style="fill:#7a68a6;stroke:#7a68a6;" x="438.150921" xlink:href="#m8dace88afb" y="177.796423"/>
     <use style="fill:#7a68a6;stroke:#7a68a6;" x="441.816218" xlink:href="#m8dace88afb" y="140.839333"/>
     <use style="fill:#7a68a6;stroke:#7a68a6;" x="445.481516" xlink:href="#m8dace88afb" y="173.863116"/>
     <use style="fill:#7a68a6;stroke:#7a68a6;" x="449.146813" xlink:href="#m8dace88afb" y="151.231547"/>
     <use style="fill:#7a68a6;stroke:#7a68a6;" x="452.81211" xlink:href="#m8dace88afb" y="138.560135"/>
     <use style="fill:#7a68a6;stroke:#7a68a6;" x="456.477408" xlink:href="#m8dace88afb" y="155.886912"/>
     <use style="fill:#7a68a6;stroke:#7a68a6;" x="460.142705" xlink:href="#m8dace88afb" y="165.379347"/>
     <use style="fill:#7a68a6;stroke:#7a68a6;" x="463.808003" xlink:href="#m8dace88afb" y="178.320487"/>
     <use style="fill:#7a68a6;stroke:#7a68a6;" x="467.4733" xlink:href="#m8dace88afb" y="165.27795"/>
     <use style="fill:#7a68a6;stroke:#7a68a6;" x="471.138598" xlink:href="#m8dace88afb" y="209.835901"/>
     <use style="fill:#7a68a6;stroke:#7a68a6;" x="474.803895" xlink:href="#m8dace88afb" y="206.45274"/>
     <use style="fill:#7a68a6;stroke:#7a68a6;" x="478.469193" xlink:href="#m8dace88afb" y="212.777655"/>
     <use style="fill:#7a68a6;stroke:#7a68a6;" x="482.13449" xlink:href="#m8dace88afb" y="264.985489"/>
     <use style="fill:#7a68a6;stroke:#7a68a6;" x="485.799788" xlink:href="#m8dace88afb" y="246.389924"/>
     <use style="fill:#7a68a6;stroke:#7a68a6;" x="489.465085" xlink:href="#m8dace88afb" y="224.242327"/>
     <use style="fill:#7a68a6;stroke:#7a68a6;" x="493.130382" xlink:href="#m8dace88afb" y="248.308994"/>
     <use style="fill:#7a68a6;stroke:#7a68a6;" x="496.79568" xlink:href="#m8dace88afb" y="238.436474"/>
     <use style="fill:#7a68a6;stroke:#7a68a6;" x="500.460977" xlink:href="#m8dace88afb" y="244.256709"/>
     <use style="fill:#7a68a6;stroke:#7a68a6;" x="504.126275" xlink:href="#m8dace88afb" y="308.419051"/>
     <use style="fill:#7a68a6;stroke:#7a68a6;" x="507.791572" xlink:href="#m8dace88afb" y="217.546141"/>
     <use style="fill:#7a68a6;stroke:#7a68a6;" x="511.45687" xlink:href="#m8dace88afb" y="260.502802"/>
     <use style="fill:#7a68a6;stroke:#7a68a6;" x="515.122167" xlink:href="#m8dace88afb" y="235.698619"/>
     <use style="fill:#7a68a6;stroke:#7a68a6;" x="518.787465" xlink:href="#m8dace88afb" y="235.415122"/>
     <use style="fill:#7a68a6;stroke:#7a68a6;" x="522.452762" xlink:href="#m8dace88afb" y="237.688923"/>
     <use style="fill:#7a68a6;stroke:#7a68a6;" x="526.11806" xlink:href="#m8dace88afb" y="236.123138"/>
     <use style="fill:#7a68a6;stroke:#7a68a6;" x="529.783357" xlink:href="#m8dace88afb" y="176.624378"/>
     <use style="fill:#7a68a6;stroke:#7a68a6;" x="533.448654" xlink:href="#m8dace88afb" y="189.301923"/>
     <use style="fill:#7a68a6;stroke:#7a68a6;" x="537.113952" xlink:href="#m8dace88afb" y="264.028511"/>
     <use style="fill:#7a68a6;stroke:#7a68a6;" x="540.779249" xlink:href="#m8dace88afb" y="227.431154"/>
     <use style="fill:#7a68a6;stroke:#7a68a6;" x="544.444547" xlink:href="#m8dace88afb" y="169.586091"/>
     <use style="fill:#7a68a6;stroke:#7a68a6;" x="548.109844" xlink:href="#m8dace88afb" y="192.684129"/>
     <use style="fill:#7a68a6;stroke:#7a68a6;" x="551.775142" xlink:href="#m8dace88afb" y="222.586707"/>
     <use style="fill:#7a68a6;stroke:#7a68a6;" x="555.440439" xlink:href="#m8dace88afb" y="185.408668"/>
     <use style="fill:#7a68a6;stroke:#7a68a6;" x="559.105737" xlink:href="#m8dace88afb" y="202.973177"/>
     <use style="fill:#7a68a6;stroke:#7a68a6;" x="562.771034" xlink:href="#m8dace88afb" y="191.617053"/>
     <use style="fill:#7a68a6;stroke:#7a68a6;" x="566.436331" xlink:href="#m8dace88afb" y="222.594779"/>
     <use style="fill:#7a68a6;stroke:#7a68a6;" x="570.101629" xlink:href="#m8dace88afb" y="191.281044"/>
     <use style="fill:#7a68a6;stroke:#7a68a6;" x="573.766926" xlink:href="#m8dace88afb" y="246.065801"/>
     <use style="fill:#7a68a6;stroke:#7a68a6;" x="577.432224" xlink:href="#m8dace88afb" y="239.009964"/>
     <use style="fill:#7a68a6;stroke:#7a68a6;" x="581.097521" xlink:href="#m8dace88afb" y="240.124365"/>
     <use style="fill:#7a68a6;stroke:#7a68a6;" x="584.762819" xlink:href="#m8dace88afb" y="222.193079"/>
     <use style="fill:#7a68a6;stroke:#7a68a6;" x="588.428116" xlink:href="#m8dace88afb" y="286.952747"/>
     <use style="fill:#7a68a6;stroke:#7a68a6;" x="592.093414" xlink:href="#m8dace88afb" y="254.296769"/>
     <use style="fill:#7a68a6;stroke:#7a68a6;" x="595.758711" xlink:href="#m8dace88afb" y="230.496121"/>
     <use style="fill:#7a68a6;stroke:#7a68a6;" x="599.424009" xlink:href="#m8dace88afb" y="236.178623"/>
     <use style="fill:#7a68a6;stroke:#7a68a6;" x="603.089306" xlink:href="#m8dace88afb" y="224.388552"/>
     <use style="fill:#7a68a6;stroke:#7a68a6;" x="606.754603" xlink:href="#m8dace88afb" y="276.145332"/>
     <use style="fill:#7a68a6;stroke:#7a68a6;" x="610.419901" xlink:href="#m8dace88afb" y="274.797893"/>
     <use style="fill:#7a68a6;stroke:#7a68a6;" x="614.085198" xlink:href="#m8dace88afb" y="252.745923"/>
     <use style="fill:#7a68a6;stroke:#7a68a6;" x="617.750496" xlink:href="#m8dace88afb" y="271.332462"/>
     <use style="fill:#7a68a6;stroke:#7a68a6;" x="621.415793" xlink:href="#m8dace88afb" y="234.757115"/>
     <use style="fill:#7a68a6;stroke:#7a68a6;" x="625.081091" xlink:href="#m8dace88afb" y="257.620137"/>
    </g>
   </g>
   <g id="matplotlib.axis_1">
    <g id="xtick_1">
     <g id="line2d_1">
      <path clip-path="url(#p6a11222eb5)" d="M 153.28313 336.6 
L 153.28313 39.6 
" style="fill:none;stroke:#b2b2b2;stroke-dasharray:2.96,1.28;stroke-dashoffset:0;stroke-opacity:0.3;stroke-width:0.8;"/>
     </g>
     <g id="line2d_2">
      <defs>
       <path d="M 0 0 
L 0 3.5 
" id="m661a3be77c" style="stroke:#000000;stroke-width:0.8;"/>
      </defs>
      <g>
       <use style="stroke:#000000;stroke-width:0.8;" x="153.28313" xlink:href="#m661a3be77c" y="336.6"/>
      </g>
     </g>
     <g id="text_1">
      <!-- 0 -->
      <defs>
       <path d="M 31.78125 66.40625 
Q 24.171875 66.40625 20.328125 58.90625 
Q 16.5 51.421875 16.5 36.375 
Q 16.5 21.390625 20.328125 13.890625 
Q 24.171875 6.390625 31.78125 6.390625 
Q 39.453125 6.390625 43.28125 13.890625 
Q 47.125 21.390625 47.125 36.375 
Q 47.125 51.421875 43.28125 58.90625 
Q 39.453125 66.40625 31.78125 66.40625 
z
M 31.78125 74.21875 
Q 44.046875 74.21875 50.515625 64.515625 
Q 56.984375 54.828125 56.984375 36.375 
Q 56.984375 17.96875 50.515625 8.265625 
Q 44.046875 -1.421875 31.78125 -1.421875 
Q 19.53125 -1.421875 13.0625 8.265625 
Q 6.59375 17.96875 6.59375 36.375 
Q 6.59375 54.828125 13.0625 64.515625 
Q 19.53125 74.21875 31.78125 74.21875 
z
" id="DejaVuSans-48"/>
      </defs>
      <g transform="translate(148.82938 354.237813)scale(0.14 -0.14)">
       <use xlink:href="#DejaVuSans-48"/>
      </g>
     </g>
    </g>
    <g id="xtick_2">
     <g id="line2d_3">
      <path clip-path="url(#p6a11222eb5)" d="M 244.188325 336.6 
L 244.188325 39.6 
" style="fill:none;stroke:#b2b2b2;stroke-dasharray:2.96,1.28;stroke-dashoffset:0;stroke-opacity:0.3;stroke-width:0.8;"/>
     </g>
     <g id="line2d_4">
      <g>
       <use style="stroke:#000000;stroke-width:0.8;" x="244.188325" xlink:href="#m661a3be77c" y="336.6"/>
      </g>
     </g>
     <g id="text_2">
      <!-- 10 -->
      <defs>
       <path d="M 12.40625 8.296875 
L 28.515625 8.296875 
L 28.515625 63.921875 
L 10.984375 60.40625 
L 10.984375 69.390625 
L 28.421875 72.90625 
L 38.28125 72.90625 
L 38.28125 8.296875 
L 54.390625 8.296875 
L 54.390625 0 
L 12.40625 0 
z
" id="DejaVuSans-49"/>
      </defs>
      <g transform="translate(235.280825 354.237813)scale(0.14 -0.14)">
       <use xlink:href="#DejaVuSans-49"/>
       <use x="63.623047" xlink:href="#DejaVuSans-48"/>
      </g>
     </g>
    </g>
    <g id="xtick_3">
     <g id="line2d_5">
      <path clip-path="url(#p6a11222eb5)" d="M 335.09352 336.6 
L 335.09352 39.6 
" style="fill:none;stroke:#b2b2b2;stroke-dasharray:2.96,1.28;stroke-dashoffset:0;stroke-opacity:0.3;stroke-width:0.8;"/>
     </g>
     <g id="line2d_6">
      <g>
       <use style="stroke:#000000;stroke-width:0.8;" x="335.09352" xlink:href="#m661a3be77c" y="336.6"/>
      </g>
     </g>
     <g id="text_3">
      <!-- 20 -->
      <defs>
       <path d="M 19.1875 8.296875 
L 53.609375 8.296875 
L 53.609375 0 
L 7.328125 0 
L 7.328125 8.296875 
Q 12.9375 14.109375 22.625 23.890625 
Q 32.328125 33.6875 34.8125 36.53125 
Q 39.546875 41.84375 41.421875 45.53125 
Q 43.3125 49.21875 43.3125 52.78125 
Q 43.3125 58.59375 39.234375 62.25 
Q 35.15625 65.921875 28.609375 65.921875 
Q 23.96875 65.921875 18.8125 64.3125 
Q 13.671875 62.703125 7.8125 59.421875 
L 7.8125 69.390625 
Q 13.765625 71.78125 18.9375 73 
Q 24.125 74.21875 28.421875 74.21875 
Q 39.75 74.21875 46.484375 68.546875 
Q 53.21875 62.890625 53.21875 53.421875 
Q 53.21875 48.921875 51.53125 44.890625 
Q 49.859375 40.875 45.40625 35.40625 
Q 44.1875 33.984375 37.640625 27.21875 
Q 31.109375 20.453125 19.1875 8.296875 
z
" id="DejaVuSans-50"/>
      </defs>
      <g transform="translate(326.18602 354.237813)scale(0.14 -0.14)">
       <use xlink:href="#DejaVuSans-50"/>
       <use x="63.623047" xlink:href="#DejaVuSans-48"/>
      </g>
     </g>
    </g>
    <g id="xtick_4">
     <g id="line2d_7">
      <path clip-path="url(#p6a11222eb5)" d="M 425.998714 336.6 
L 425.998714 39.6 
" style="fill:none;stroke:#b2b2b2;stroke-dasharray:2.96,1.28;stroke-dashoffset:0;stroke-opacity:0.3;stroke-width:0.8;"/>
     </g>
     <g id="line2d_8">
      <g>
       <use style="stroke:#000000;stroke-width:0.8;" x="425.998714" xlink:href="#m661a3be77c" y="336.6"/>
      </g>
     </g>
     <g id="text_4">
      <!-- 30 -->
      <defs>
       <path d="M 40.578125 39.3125 
Q 47.65625 37.796875 51.625 33 
Q 55.609375 28.21875 55.609375 21.1875 
Q 55.609375 10.40625 48.1875 4.484375 
Q 40.765625 -1.421875 27.09375 -1.421875 
Q 22.515625 -1.421875 17.65625 -0.515625 
Q 12.796875 0.390625 7.625 2.203125 
L 7.625 11.71875 
Q 11.71875 9.328125 16.59375 8.109375 
Q 21.484375 6.890625 26.8125 6.890625 
Q 36.078125 6.890625 40.9375 10.546875 
Q 45.796875 14.203125 45.796875 21.1875 
Q 45.796875 27.640625 41.28125 31.265625 
Q 36.765625 34.90625 28.71875 34.90625 
L 20.21875 34.90625 
L 20.21875 43.015625 
L 29.109375 43.015625 
Q 36.375 43.015625 40.234375 45.921875 
Q 44.09375 48.828125 44.09375 54.296875 
Q 44.09375 59.90625 40.109375 62.90625 
Q 36.140625 65.921875 28.71875 65.921875 
Q 24.65625 65.921875 20.015625 65.03125 
Q 15.375 64.15625 9.8125 62.3125 
L 9.8125 71.09375 
Q 15.4375 72.65625 20.34375 73.4375 
Q 25.25 74.21875 29.59375 74.21875 
Q 40.828125 74.21875 47.359375 69.109375 
Q 53.90625 64.015625 53.90625 55.328125 
Q 53.90625 49.265625 50.4375 45.09375 
Q 46.96875 40.921875 40.578125 39.3125 
z
" id="DejaVuSans-51"/>
      </defs>
      <g transform="translate(417.091214 354.237813)scale(0.14 -0.14)">
       <use xlink:href="#DejaVuSans-51"/>
       <use x="63.623047" xlink:href="#DejaVuSans-48"/>
      </g>
     </g>
    </g>
    <g id="xtick_5">
     <g id="line2d_9">
      <path clip-path="url(#p6a11222eb5)" d="M 516.903909 336.6 
L 516.903909 39.6 
" style="fill:none;stroke:#b2b2b2;stroke-dasharray:2.96,1.28;stroke-dashoffset:0;stroke-opacity:0.3;stroke-width:0.8;"/>
     </g>
     <g id="line2d_10">
      <g>
       <use style="stroke:#000000;stroke-width:0.8;" x="516.903909" xlink:href="#m661a3be77c" y="336.6"/>
      </g>
     </g>
     <g id="text_5">
      <!-- 40 -->
      <defs>
       <path d="M 37.796875 64.3125 
L 12.890625 25.390625 
L 37.796875 25.390625 
z
M 35.203125 72.90625 
L 47.609375 72.90625 
L 47.609375 25.390625 
L 58.015625 25.390625 
L 58.015625 17.1875 
L 47.609375 17.1875 
L 47.609375 0 
L 37.796875 0 
L 37.796875 17.1875 
L 4.890625 17.1875 
L 4.890625 26.703125 
z
" id="DejaVuSans-52"/>
      </defs>
      <g transform="translate(507.996409 354.237813)scale(0.14 -0.14)">
       <use xlink:href="#DejaVuSans-52"/>
       <use x="63.623047" xlink:href="#DejaVuSans-48"/>
      </g>
     </g>
    </g>
    <g id="xtick_6">
     <g id="line2d_11">
      <path clip-path="url(#p6a11222eb5)" d="M 607.809104 336.6 
L 607.809104 39.6 
" style="fill:none;stroke:#b2b2b2;stroke-dasharray:2.96,1.28;stroke-dashoffset:0;stroke-opacity:0.3;stroke-width:0.8;"/>
     </g>
     <g id="line2d_12">
      <g>
       <use style="stroke:#000000;stroke-width:0.8;" x="607.809104" xlink:href="#m661a3be77c" y="336.6"/>
      </g>
     </g>
     <g id="text_6">
      <!-- 50 -->
      <defs>
       <path d="M 10.796875 72.90625 
L 49.515625 72.90625 
L 49.515625 64.59375 
L 19.828125 64.59375 
L 19.828125 46.734375 
Q 21.96875 47.46875 24.109375 47.828125 
Q 26.265625 48.1875 28.421875 48.1875 
Q 40.625 48.1875 47.75 41.5 
Q 54.890625 34.8125 54.890625 23.390625 
Q 54.890625 11.625 47.5625 5.09375 
Q 40.234375 -1.421875 26.90625 -1.421875 
Q 22.3125 -1.421875 17.546875 -0.640625 
Q 12.796875 0.140625 7.71875 1.703125 
L 7.71875 11.625 
Q 12.109375 9.234375 16.796875 8.0625 
Q 21.484375 6.890625 26.703125 6.890625 
Q 35.15625 6.890625 40.078125 11.328125 
Q 45.015625 15.765625 45.015625 23.390625 
Q 45.015625 31 40.078125 35.4375 
Q 35.15625 39.890625 26.703125 39.890625 
Q 22.75 39.890625 18.8125 39.015625 
Q 14.890625 38.140625 10.796875 36.28125 
z
" id="DejaVuSans-53"/>
      </defs>
      <g transform="translate(598.901604 354.237813)scale(0.14 -0.14)">
       <use xlink:href="#DejaVuSans-53"/>
       <use x="63.623047" xlink:href="#DejaVuSans-48"/>
      </g>
     </g>
    </g>
    <g id="text_7">
     <!-- Pulse length, $\Delta t$ (ns) -->
     <defs>
      <path d="M 19.671875 64.796875 
L 19.671875 37.40625 
L 32.078125 37.40625 
Q 38.96875 37.40625 42.71875 40.96875 
Q 46.484375 44.53125 46.484375 51.125 
Q 46.484375 57.671875 42.71875 61.234375 
Q 38.96875 64.796875 32.078125 64.796875 
z
M 9.8125 72.90625 
L 32.078125 72.90625 
Q 44.34375 72.90625 50.609375 67.359375 
Q 56.890625 61.8125 56.890625 51.125 
Q 56.890625 40.328125 50.609375 34.8125 
Q 44.34375 29.296875 32.078125 29.296875 
L 19.671875 29.296875 
L 19.671875 0 
L 9.8125 0 
z
" id="DejaVuSans-80"/>
      <path d="M 8.5 21.578125 
L 8.5 54.6875 
L 17.484375 54.6875 
L 17.484375 21.921875 
Q 17.484375 14.15625 20.5 10.265625 
Q 23.53125 6.390625 29.59375 6.390625 
Q 36.859375 6.390625 41.078125 11.03125 
Q 45.3125 15.671875 45.3125 23.6875 
L 45.3125 54.6875 
L 54.296875 54.6875 
L 54.296875 0 
L 45.3125 0 
L 45.3125 8.40625 
Q 42.046875 3.421875 37.71875 1 
Q 33.40625 -1.421875 27.6875 -1.421875 
Q 18.265625 -1.421875 13.375 4.4375 
Q 8.5 10.296875 8.5 21.578125 
z
M 31.109375 56 
z
" id="DejaVuSans-117"/>
      <path d="M 9.421875 75.984375 
L 18.40625 75.984375 
L 18.40625 0 
L 9.421875 0 
z
" id="DejaVuSans-108"/>
      <path d="M 44.28125 53.078125 
L 44.28125 44.578125 
Q 40.484375 46.53125 36.375 47.5 
Q 32.28125 48.484375 27.875 48.484375 
Q 21.1875 48.484375 17.84375 46.4375 
Q 14.5 44.390625 14.5 40.28125 
Q 14.5 37.15625 16.890625 35.375 
Q 19.28125 33.59375 26.515625 31.984375 
L 29.59375 31.296875 
Q 39.15625 29.25 43.1875 25.515625 
Q 47.21875 21.78125 47.21875 15.09375 
Q 47.21875 7.46875 41.1875 3.015625 
Q 35.15625 -1.421875 24.609375 -1.421875 
Q 20.21875 -1.421875 15.453125 -0.5625 
Q 10.6875 0.296875 5.421875 2 
L 5.421875 11.28125 
Q 10.40625 8.6875 15.234375 7.390625 
Q 20.0625 6.109375 24.8125 6.109375 
Q 31.15625 6.109375 34.5625 8.28125 
Q 37.984375 10.453125 37.984375 14.40625 
Q 37.984375 18.0625 35.515625 20.015625 
Q 33.0625 21.96875 24.703125 23.78125 
L 21.578125 24.515625 
Q 13.234375 26.265625 9.515625 29.90625 
Q 5.8125 33.546875 5.8125 39.890625 
Q 5.8125 47.609375 11.28125 51.796875 
Q 16.75 56 26.8125 56 
Q 31.78125 56 36.171875 55.265625 
Q 40.578125 54.546875 44.28125 53.078125 
z
" id="DejaVuSans-115"/>
      <path d="M 56.203125 29.59375 
L 56.203125 25.203125 
L 14.890625 25.203125 
Q 15.484375 15.921875 20.484375 11.0625 
Q 25.484375 6.203125 34.421875 6.203125 
Q 39.59375 6.203125 44.453125 7.46875 
Q 49.3125 8.734375 54.109375 11.28125 
L 54.109375 2.78125 
Q 49.265625 0.734375 44.1875 -0.34375 
Q 39.109375 -1.421875 33.890625 -1.421875 
Q 20.796875 -1.421875 13.15625 6.1875 
Q 5.515625 13.8125 5.515625 26.8125 
Q 5.515625 40.234375 12.765625 48.109375 
Q 20.015625 56 32.328125 56 
Q 43.359375 56 49.78125 48.890625 
Q 56.203125 41.796875 56.203125 29.59375 
z
M 47.21875 32.234375 
Q 47.125 39.59375 43.09375 43.984375 
Q 39.0625 48.390625 32.421875 48.390625 
Q 24.90625 48.390625 20.390625 44.140625 
Q 15.875 39.890625 15.1875 32.171875 
z
" id="DejaVuSans-101"/>
      <path id="DejaVuSans-32"/>
      <path d="M 54.890625 33.015625 
L 54.890625 0 
L 45.90625 0 
L 45.90625 32.71875 
Q 45.90625 40.484375 42.875 44.328125 
Q 39.84375 48.1875 33.796875 48.1875 
Q 26.515625 48.1875 22.3125 43.546875 
Q 18.109375 38.921875 18.109375 30.90625 
L 18.109375 0 
L 9.078125 0 
L 9.078125 54.6875 
L 18.109375 54.6875 
L 18.109375 46.1875 
Q 21.34375 51.125 25.703125 53.5625 
Q 30.078125 56 35.796875 56 
Q 45.21875 56 50.046875 50.171875 
Q 54.890625 44.34375 54.890625 33.015625 
z
" id="DejaVuSans-110"/>
      <path d="M 45.40625 27.984375 
Q 45.40625 37.75 41.375 43.109375 
Q 37.359375 48.484375 30.078125 48.484375 
Q 22.859375 48.484375 18.828125 43.109375 
Q 14.796875 37.75 14.796875 27.984375 
Q 14.796875 18.265625 18.828125 12.890625 
Q 22.859375 7.515625 30.078125 7.515625 
Q 37.359375 7.515625 41.375 12.890625 
Q 45.40625 18.265625 45.40625 27.984375 
z
M 54.390625 6.78125 
Q 54.390625 -7.171875 48.1875 -13.984375 
Q 42 -20.796875 29.203125 -20.796875 
Q 24.46875 -20.796875 20.265625 -20.09375 
Q 16.0625 -19.390625 12.109375 -17.921875 
L 12.109375 -9.1875 
Q 16.0625 -11.328125 19.921875 -12.34375 
Q 23.78125 -13.375 27.78125 -13.375 
Q 36.625 -13.375 41.015625 -8.765625 
Q 45.40625 -4.15625 45.40625 5.171875 
L 45.40625 9.625 
Q 42.625 4.78125 38.28125 2.390625 
Q 33.9375 0 27.875 0 
Q 17.828125 0 11.671875 7.65625 
Q 5.515625 15.328125 5.515625 27.984375 
Q 5.515625 40.671875 11.671875 48.328125 
Q 17.828125 56 27.875 56 
Q 33.9375 56 38.28125 53.609375 
Q 42.625 51.21875 45.40625 46.390625 
L 45.40625 54.6875 
L 54.390625 54.6875 
z
" id="DejaVuSans-103"/>
      <path d="M 18.3125 70.21875 
L 18.3125 54.6875 
L 36.8125 54.6875 
L 36.8125 47.703125 
L 18.3125 47.703125 
L 18.3125 18.015625 
Q 18.3125 11.328125 20.140625 9.421875 
Q 21.96875 7.515625 27.59375 7.515625 
L 36.8125 7.515625 
L 36.8125 0 
L 27.59375 0 
Q 17.1875 0 13.234375 3.875 
Q 9.28125 7.765625 9.28125 18.015625 
L 9.28125 47.703125 
L 2.6875 47.703125 
L 2.6875 54.6875 
L 9.28125 54.6875 
L 9.28125 70.21875 
z
" id="DejaVuSans-116"/>
      <path d="M 54.890625 33.015625 
L 54.890625 0 
L 45.90625 0 
L 45.90625 32.71875 
Q 45.90625 40.484375 42.875 44.328125 
Q 39.84375 48.1875 33.796875 48.1875 
Q 26.515625 48.1875 22.3125 43.546875 
Q 18.109375 38.921875 18.109375 30.90625 
L 18.109375 0 
L 9.078125 0 
L 9.078125 75.984375 
L 18.109375 75.984375 
L 18.109375 46.1875 
Q 21.34375 51.125 25.703125 53.5625 
Q 30.078125 56 35.796875 56 
Q 45.21875 56 50.046875 50.171875 
Q 54.890625 44.34375 54.890625 33.015625 
z
" id="DejaVuSans-104"/>
      <path d="M 11.71875 12.40625 
L 22.015625 12.40625 
L 22.015625 4 
L 14.015625 -11.625 
L 7.71875 -11.625 
L 11.71875 4 
z
" id="DejaVuSans-44"/>
      <path d="M 5.421875 0 
Q 4.59375 0 4.59375 0.78125 
Q 4.640625 0.875 4.65625 0.921875 
Q 4.6875 0.984375 4.6875 1.125 
L 39.109375 70.515625 
Q 39.546875 71.578125 40.921875 71.578125 
L 42.28125 71.578125 
Q 43.65625 71.578125 44.09375 70.515625 
L 78.515625 1.125 
Q 78.5625 1.03125 78.578125 0.953125 
Q 78.609375 0.875 78.609375 0.78125 
Q 78.609375 0 77.78125 0 
z
M 12.015625 8.015625 
L 64.703125 8.015625 
L 38.375 61.078125 
z
" id="Cmr10-162"/>
      <path d="M 6.203125 8.109375 
Q 6.203125 9.578125 6.5 10.890625 
L 13.71875 39.59375 
L 3.21875 39.59375 
Q 2.203125 39.59375 2.203125 40.921875 
Q 2.59375 43.109375 3.515625 43.109375 
L 14.59375 43.109375 
L 18.609375 59.421875 
Q 19 60.75 20.171875 61.671875 
Q 21.34375 62.59375 22.796875 62.59375 
Q 24.078125 62.59375 24.921875 61.828125 
Q 25.78125 61.078125 25.78125 59.8125 
Q 25.78125 59.515625 25.75 59.34375 
Q 25.734375 59.1875 25.6875 58.984375 
L 21.6875 43.109375 
L 31.984375 43.109375 
Q 33.015625 43.109375 33.015625 41.796875 
Q 32.953125 41.546875 32.8125 40.953125 
Q 32.671875 40.375 32.421875 39.984375 
Q 32.171875 39.59375 31.6875 39.59375 
L 20.796875 39.59375 
L 13.625 10.6875 
Q 12.890625 7.859375 12.890625 5.8125 
Q 12.890625 1.515625 15.828125 1.515625 
Q 20.21875 1.515625 23.609375 5.640625 
Q 27 9.765625 28.8125 14.703125 
Q 29.203125 15.28125 29.59375 15.28125 
L 30.8125 15.28125 
Q 31.203125 15.28125 31.4375 15.015625 
Q 31.6875 14.75 31.6875 14.40625 
Q 31.6875 14.203125 31.59375 14.109375 
Q 29.390625 8.0625 25.1875 3.46875 
Q 21 -1.125 15.578125 -1.125 
Q 11.625 -1.125 8.90625 1.453125 
Q 6.203125 4.046875 6.203125 8.109375 
z
" id="Cmmi10-116"/>
      <path d="M 31 75.875 
Q 24.46875 64.65625 21.28125 53.65625 
Q 18.109375 42.671875 18.109375 31.390625 
Q 18.109375 20.125 21.3125 9.0625 
Q 24.515625 -2 31 -13.1875 
L 23.1875 -13.1875 
Q 15.875 -1.703125 12.234375 9.375 
Q 8.59375 20.453125 8.59375 31.390625 
Q 8.59375 42.28125 12.203125 53.3125 
Q 15.828125 64.359375 23.1875 75.875 
z
" id="DejaVuSans-40"/>
      <path d="M 8.015625 75.875 
L 15.828125 75.875 
Q 23.140625 64.359375 26.78125 53.3125 
Q 30.421875 42.28125 30.421875 31.390625 
Q 30.421875 20.453125 26.78125 9.375 
Q 23.140625 -1.703125 15.828125 -13.1875 
L 8.015625 -13.1875 
Q 14.5 -2 17.703125 9.0625 
Q 20.90625 20.125 20.90625 31.390625 
Q 20.90625 42.671875 17.703125 53.65625 
Q 14.5 64.65625 8.015625 75.875 
z
" id="DejaVuSans-41"/>
     </defs>
     <g transform="translate(293.6 376.349375)scale(0.2 -0.2)">
      <use transform="translate(0 0.015625)" xlink:href="#DejaVuSans-80"/>
      <use transform="translate(60.302734 0.015625)" xlink:href="#DejaVuSans-117"/>
      <use transform="translate(123.681641 0.015625)" xlink:href="#DejaVuSans-108"/>
      <use transform="translate(151.464844 0.015625)" xlink:href="#DejaVuSans-115"/>
      <use transform="translate(203.564453 0.015625)" xlink:href="#DejaVuSans-101"/>
      <use transform="translate(265.087891 0.015625)" xlink:href="#DejaVuSans-32"/>
      <use transform="translate(296.875 0.015625)" xlink:href="#DejaVuSans-108"/>
      <use transform="translate(324.658203 0.015625)" xlink:href="#DejaVuSans-101"/>
      <use transform="translate(386.181641 0.015625)" xlink:href="#DejaVuSans-110"/>
      <use transform="translate(449.560547 0.015625)" xlink:href="#DejaVuSans-103"/>
      <use transform="translate(513.037109 0.015625)" xlink:href="#DejaVuSans-116"/>
      <use transform="translate(552.246094 0.015625)" xlink:href="#DejaVuSans-104"/>
      <use transform="translate(615.625 0.015625)" xlink:href="#DejaVuSans-44"/>
      <use transform="translate(647.412109 0.015625)" xlink:href="#DejaVuSans-32"/>
      <use transform="translate(679.199219 0.015625)" xlink:href="#Cmr10-162"/>
      <use transform="translate(762.5 0.015625)" xlink:href="#Cmmi10-116"/>
      <use transform="translate(798.583984 0.015625)" xlink:href="#DejaVuSans-32"/>
      <use transform="translate(830.371094 0.015625)" xlink:href="#DejaVuSans-40"/>
      <use transform="translate(869.384766 0.015625)" xlink:href="#DejaVuSans-110"/>
      <use transform="translate(932.763672 0.015625)" xlink:href="#DejaVuSans-115"/>
      <use transform="translate(984.863281 0.015625)" xlink:href="#DejaVuSans-41"/>
     </g>
    </g>
   </g>
   <g id="matplotlib.axis_2">
    <g id="ytick_1">
     <g id="line2d_13">
      <path clip-path="url(#p6a11222eb5)" d="M 144 330.3923 
L 648 330.3923 
" style="fill:none;stroke:#b2b2b2;stroke-dasharray:2.96,1.28;stroke-dashoffset:0;stroke-opacity:0.3;stroke-width:0.8;"/>
     </g>
     <g id="line2d_14">
      <defs>
       <path d="M 0 0 
L -3.5 0 
" id="md5fd61e81f" style="stroke:#000000;stroke-width:0.8;"/>
      </defs>
      <g>
       <use style="stroke:#000000;stroke-width:0.8;" x="144" xlink:href="#md5fd61e81f" y="330.3923"/>
      </g>
     </g>
     <g id="text_8">
      <!-- −0.4 -->
      <defs>
       <path d="M 10.59375 35.5 
L 73.1875 35.5 
L 73.1875 27.203125 
L 10.59375 27.203125 
z
" id="DejaVuSans-8722"/>
       <path d="M 10.6875 12.40625 
L 21 12.40625 
L 21 0 
L 10.6875 0 
z
" id="DejaVuSans-46"/>
      </defs>
      <g transform="translate(103.004063 335.711206)scale(0.14 -0.14)">
       <use xlink:href="#DejaVuSans-8722"/>
       <use x="83.789062" xlink:href="#DejaVuSans-48"/>
       <use x="147.412109" xlink:href="#DejaVuSans-46"/>
       <use x="179.199219" xlink:href="#DejaVuSans-52"/>
      </g>
     </g>
    </g>
    <g id="ytick_2">
     <g id="line2d_15">
      <path clip-path="url(#p6a11222eb5)" d="M 144 266.426661 
L 648 266.426661 
" style="fill:none;stroke:#b2b2b2;stroke-dasharray:2.96,1.28;stroke-dashoffset:0;stroke-opacity:0.3;stroke-width:0.8;"/>
     </g>
     <g id="line2d_16">
      <g>
       <use style="stroke:#000000;stroke-width:0.8;" x="144" xlink:href="#md5fd61e81f" y="266.426661"/>
      </g>
     </g>
     <g id="text_9">
      <!-- −0.2 -->
      <g transform="translate(103.004063 271.745568)scale(0.14 -0.14)">
       <use xlink:href="#DejaVuSans-8722"/>
       <use x="83.789062" xlink:href="#DejaVuSans-48"/>
       <use x="147.412109" xlink:href="#DejaVuSans-46"/>
       <use x="179.199219" xlink:href="#DejaVuSans-50"/>
      </g>
     </g>
    </g>
    <g id="ytick_3">
     <g id="line2d_17">
      <path clip-path="url(#p6a11222eb5)" d="M 144 202.461022 
L 648 202.461022 
" style="fill:none;stroke:#b2b2b2;stroke-dasharray:2.96,1.28;stroke-dashoffset:0;stroke-opacity:0.3;stroke-width:0.8;"/>
     </g>
     <g id="line2d_18">
      <g>
       <use style="stroke:#000000;stroke-width:0.8;" x="144" xlink:href="#md5fd61e81f" y="202.461022"/>
      </g>
     </g>
     <g id="text_10">
      <!-- 0.0 -->
      <g transform="translate(114.735625 207.779929)scale(0.14 -0.14)">
       <use xlink:href="#DejaVuSans-48"/>
       <use x="63.623047" xlink:href="#DejaVuSans-46"/>
       <use x="95.410156" xlink:href="#DejaVuSans-48"/>
      </g>
     </g>
    </g>
    <g id="ytick_4">
     <g id="line2d_19">
      <path clip-path="url(#p6a11222eb5)" d="M 144 138.495384 
L 648 138.495384 
" style="fill:none;stroke:#b2b2b2;stroke-dasharray:2.96,1.28;stroke-dashoffset:0;stroke-opacity:0.3;stroke-width:0.8;"/>
     </g>
     <g id="line2d_20">
      <g>
       <use style="stroke:#000000;stroke-width:0.8;" x="144" xlink:href="#md5fd61e81f" y="138.495384"/>
      </g>
     </g>
     <g id="text_11">
      <!-- 0.2 -->
      <g transform="translate(114.735625 143.81429)scale(0.14 -0.14)">
       <use xlink:href="#DejaVuSans-48"/>
       <use x="63.623047" xlink:href="#DejaVuSans-46"/>
       <use x="95.410156" xlink:href="#DejaVuSans-50"/>
      </g>
     </g>
    </g>
    <g id="ytick_5">
     <g id="line2d_21">
      <path clip-path="url(#p6a11222eb5)" d="M 144 74.529745 
L 648 74.529745 
" style="fill:none;stroke:#b2b2b2;stroke-dasharray:2.96,1.28;stroke-dashoffset:0;stroke-opacity:0.3;stroke-width:0.8;"/>
     </g>
     <g id="line2d_22">
      <g>
       <use style="stroke:#000000;stroke-width:0.8;" x="144" xlink:href="#md5fd61e81f" y="74.529745"/>
      </g>
     </g>
     <g id="text_12">
      <!-- 0.4 -->
      <g transform="translate(114.735625 79.848651)scale(0.14 -0.14)">
       <use xlink:href="#DejaVuSans-48"/>
       <use x="63.623047" xlink:href="#DejaVuSans-46"/>
       <use x="95.410156" xlink:href="#DejaVuSans-52"/>
      </g>
     </g>
    </g>
    <g id="text_13">
     <!-- Real Amplitude (a.u) -->
     <defs>
      <path d="M 44.390625 34.1875 
Q 47.5625 33.109375 50.5625 29.59375 
Q 53.5625 26.078125 56.59375 19.921875 
L 66.609375 0 
L 56 0 
L 46.6875 18.703125 
Q 43.0625 26.03125 39.671875 28.421875 
Q 36.28125 30.8125 30.421875 30.8125 
L 19.671875 30.8125 
L 19.671875 0 
L 9.8125 0 
L 9.8125 72.90625 
L 32.078125 72.90625 
Q 44.578125 72.90625 50.734375 67.671875 
Q 56.890625 62.453125 56.890625 51.90625 
Q 56.890625 45.015625 53.6875 40.46875 
Q 50.484375 35.9375 44.390625 34.1875 
z
M 19.671875 64.796875 
L 19.671875 38.921875 
L 32.078125 38.921875 
Q 39.203125 38.921875 42.84375 42.21875 
Q 46.484375 45.515625 46.484375 51.90625 
Q 46.484375 58.296875 42.84375 61.546875 
Q 39.203125 64.796875 32.078125 64.796875 
z
" id="DejaVuSans-82"/>
      <path d="M 34.28125 27.484375 
Q 23.390625 27.484375 19.1875 25 
Q 14.984375 22.515625 14.984375 16.5 
Q 14.984375 11.71875 18.140625 8.90625 
Q 21.296875 6.109375 26.703125 6.109375 
Q 34.1875 6.109375 38.703125 11.40625 
Q 43.21875 16.703125 43.21875 25.484375 
L 43.21875 27.484375 
z
M 52.203125 31.203125 
L 52.203125 0 
L 43.21875 0 
L 43.21875 8.296875 
Q 40.140625 3.328125 35.546875 0.953125 
Q 30.953125 -1.421875 24.3125 -1.421875 
Q 15.921875 -1.421875 10.953125 3.296875 
Q 6 8.015625 6 15.921875 
Q 6 25.140625 12.171875 29.828125 
Q 18.359375 34.515625 30.609375 34.515625 
L 43.21875 34.515625 
L 43.21875 35.40625 
Q 43.21875 41.609375 39.140625 45 
Q 35.0625 48.390625 27.6875 48.390625 
Q 23 48.390625 18.546875 47.265625 
Q 14.109375 46.140625 10.015625 43.890625 
L 10.015625 52.203125 
Q 14.9375 54.109375 19.578125 55.046875 
Q 24.21875 56 28.609375 56 
Q 40.484375 56 46.34375 49.84375 
Q 52.203125 43.703125 52.203125 31.203125 
z
" id="DejaVuSans-97"/>
      <path d="M 34.1875 63.1875 
L 20.796875 26.90625 
L 47.609375 26.90625 
z
M 28.609375 72.90625 
L 39.796875 72.90625 
L 67.578125 0 
L 57.328125 0 
L 50.6875 18.703125 
L 17.828125 18.703125 
L 11.1875 0 
L 0.78125 0 
z
" id="DejaVuSans-65"/>
      <path d="M 52 44.1875 
Q 55.375 50.25 60.0625 53.125 
Q 64.75 56 71.09375 56 
Q 79.640625 56 84.28125 50.015625 
Q 88.921875 44.046875 88.921875 33.015625 
L 88.921875 0 
L 79.890625 0 
L 79.890625 32.71875 
Q 79.890625 40.578125 77.09375 44.375 
Q 74.3125 48.1875 68.609375 48.1875 
Q 61.625 48.1875 57.5625 43.546875 
Q 53.515625 38.921875 53.515625 30.90625 
L 53.515625 0 
L 44.484375 0 
L 44.484375 32.71875 
Q 44.484375 40.625 41.703125 44.40625 
Q 38.921875 48.1875 33.109375 48.1875 
Q 26.21875 48.1875 22.15625 43.53125 
Q 18.109375 38.875 18.109375 30.90625 
L 18.109375 0 
L 9.078125 0 
L 9.078125 54.6875 
L 18.109375 54.6875 
L 18.109375 46.1875 
Q 21.1875 51.21875 25.484375 53.609375 
Q 29.78125 56 35.6875 56 
Q 41.65625 56 45.828125 52.96875 
Q 50 49.953125 52 44.1875 
z
" id="DejaVuSans-109"/>
      <path d="M 18.109375 8.203125 
L 18.109375 -20.796875 
L 9.078125 -20.796875 
L 9.078125 54.6875 
L 18.109375 54.6875 
L 18.109375 46.390625 
Q 20.953125 51.265625 25.265625 53.625 
Q 29.59375 56 35.59375 56 
Q 45.5625 56 51.78125 48.09375 
Q 58.015625 40.1875 58.015625 27.296875 
Q 58.015625 14.40625 51.78125 6.484375 
Q 45.5625 -1.421875 35.59375 -1.421875 
Q 29.59375 -1.421875 25.265625 0.953125 
Q 20.953125 3.328125 18.109375 8.203125 
z
M 48.6875 27.296875 
Q 48.6875 37.203125 44.609375 42.84375 
Q 40.53125 48.484375 33.40625 48.484375 
Q 26.265625 48.484375 22.1875 42.84375 
Q 18.109375 37.203125 18.109375 27.296875 
Q 18.109375 17.390625 22.1875 11.75 
Q 26.265625 6.109375 33.40625 6.109375 
Q 40.53125 6.109375 44.609375 11.75 
Q 48.6875 17.390625 48.6875 27.296875 
z
" id="DejaVuSans-112"/>
      <path d="M 9.421875 54.6875 
L 18.40625 54.6875 
L 18.40625 0 
L 9.421875 0 
z
M 9.421875 75.984375 
L 18.40625 75.984375 
L 18.40625 64.59375 
L 9.421875 64.59375 
z
" id="DejaVuSans-105"/>
      <path d="M 45.40625 46.390625 
L 45.40625 75.984375 
L 54.390625 75.984375 
L 54.390625 0 
L 45.40625 0 
L 45.40625 8.203125 
Q 42.578125 3.328125 38.25 0.953125 
Q 33.9375 -1.421875 27.875 -1.421875 
Q 17.96875 -1.421875 11.734375 6.484375 
Q 5.515625 14.40625 5.515625 27.296875 
Q 5.515625 40.1875 11.734375 48.09375 
Q 17.96875 56 27.875 56 
Q 33.9375 56 38.25 53.625 
Q 42.578125 51.265625 45.40625 46.390625 
z
M 14.796875 27.296875 
Q 14.796875 17.390625 18.875 11.75 
Q 22.953125 6.109375 30.078125 6.109375 
Q 37.203125 6.109375 41.296875 11.75 
Q 45.40625 17.390625 45.40625 27.296875 
Q 45.40625 37.203125 41.296875 42.84375 
Q 37.203125 48.484375 30.078125 48.484375 
Q 22.953125 48.484375 18.875 42.84375 
Q 14.796875 37.203125 14.796875 27.296875 
z
" id="DejaVuSans-100"/>
     </defs>
     <g transform="translate(94.844687 291.15)rotate(-90)scale(0.2 -0.2)">
      <use xlink:href="#DejaVuSans-82"/>
      <use x="69.419922" xlink:href="#DejaVuSans-101"/>
      <use x="130.943359" xlink:href="#DejaVuSans-97"/>
      <use x="192.222656" xlink:href="#DejaVuSans-108"/>
      <use x="220.005859" xlink:href="#DejaVuSans-32"/>
      <use x="251.792969" xlink:href="#DejaVuSans-65"/>
      <use x="320.201172" xlink:href="#DejaVuSans-109"/>
      <use x="417.613281" xlink:href="#DejaVuSans-112"/>
      <use x="481.089844" xlink:href="#DejaVuSans-108"/>
      <use x="508.873047" xlink:href="#DejaVuSans-105"/>
      <use x="536.65625" xlink:href="#DejaVuSans-116"/>
      <use x="575.865234" xlink:href="#DejaVuSans-117"/>
      <use x="639.244141" xlink:href="#DejaVuSans-100"/>
      <use x="702.720703" xlink:href="#DejaVuSans-101"/>
      <use x="764.244141" xlink:href="#DejaVuSans-32"/>
      <use x="796.03125" xlink:href="#DejaVuSans-40"/>
      <use x="835.044922" xlink:href="#DejaVuSans-97"/>
      <use x="896.324219" xlink:href="#DejaVuSans-46"/>
      <use x="928.111328" xlink:href="#DejaVuSans-117"/>
      <use x="991.490234" xlink:href="#DejaVuSans-41"/>
     </g>
    </g>
   </g>
   <g id="line2d_23">
    <path clip-path="url(#p6a11222eb5)" d="M 166.918909 279.1404 
L 168.755231 286.323399 
L 170.591552 292.475066 
L 172.427873 297.534418 
L 173.346034 299.638995 
L 174.264195 301.453599 
L 175.182355 302.974369 
L 176.100516 304.198308 
L 177.018677 305.12329 
L 177.936838 305.74806 
L 178.854998 306.072236 
L 179.773159 306.0963 
L 180.69132 305.8216 
L 181.60948 305.250338 
L 182.527641 304.385559 
L 183.445802 303.231141 
L 184.363962 301.791778 
L 185.282123 300.072962 
L 186.200284 298.080965 
L 188.036605 293.306282 
L 189.872926 287.532617 
L 191.709248 280.835727 
L 193.545569 273.301265 
L 195.381891 265.023702 
L 198.136373 251.43922 
L 201.809015 231.72893 
L 212.826944 170.63201 
L 215.581426 156.97724 
L 218.335908 144.686835 
L 220.172229 137.399956 
L 222.00855 130.9294 
L 223.844872 125.341839 
L 225.681193 120.693168 
L 227.517514 117.02797 
L 228.435675 115.574907 
L 229.353836 114.379102 
L 230.271997 113.442788 
L 231.190157 112.767437 
L 232.108318 112.353764 
L 233.026479 112.201727 
L 233.944639 112.310529 
L 234.8628 112.678626 
L 235.780961 113.303732 
L 236.699121 114.182834 
L 237.617282 115.3122 
L 238.535443 116.687394 
L 239.453603 118.303292 
L 241.289925 122.233382 
L 243.126246 127.048465 
L 244.962567 132.684873 
L 246.798889 139.070099 
L 248.63521 146.123715 
L 251.389692 157.764655 
L 254.144174 170.393227 
L 258.734978 192.708394 
L 264.243942 219.569324 
L 266.998424 232.227024 
L 269.752906 243.939538 
L 272.507388 254.418414 
L 274.343709 260.592573 
L 276.180031 266.040593 
L 278.016352 270.706704 
L 279.852673 274.544647 
L 281.688995 277.518115 
L 282.607156 278.672129 
L 283.525316 279.601078 
L 284.443477 280.303347 
L 285.361638 280.777983 
L 286.279798 281.024692 
L 287.197959 281.043838 
L 288.11612 280.83644 
L 289.03428 280.404166 
L 289.952441 279.749321 
L 290.870602 278.874844 
L 291.788762 277.784291 
L 292.706923 276.481825 
L 294.543244 273.260742 
L 296.379566 269.256407 
L 298.215887 264.522214 
L 300.052209 259.119439 
L 301.88853 253.116466 
L 304.643012 243.151388 
L 307.397494 232.27844 
L 311.988297 212.940527 
L 318.415422 185.694217 
L 321.169904 174.790286 
L 323.924386 164.753012 
L 325.760708 158.665911 
L 327.597029 153.13945 
L 329.43335 148.231859 
L 331.269672 143.993709 
L 333.105993 140.467399 
L 334.942315 137.686751 
L 335.860475 136.584195 
L 336.778636 135.676697 
L 337.696797 134.965953 
L 338.614957 134.453082 
L 339.533118 134.138628 
L 340.451279 134.022561 
L 341.369439 134.104279 
L 342.2876 134.382614 
L 343.205761 134.855835 
L 344.123921 135.521659 
L 345.042082 136.377258 
L 345.960243 137.419271 
L 347.796564 140.046499 
L 349.632885 143.366284 
L 351.469207 147.333951 
L 353.305528 151.897806 
L 355.14185 156.999787 
L 357.896332 165.521057 
L 360.650814 174.874078 
L 364.323456 188.200081 
L 372.586903 218.685805 
L 375.341385 228.0713 
L 378.095867 236.664788 
L 379.932188 241.848815 
L 381.768509 246.531427 
L 383.604831 250.663534 
L 385.441152 254.202833 
L 387.277474 257.114235 
L 389.113795 259.370193 
L 390.031956 260.245898 
L 390.950116 260.950954 
L 391.868277 261.484134 
L 392.786438 261.844712 
L 393.704598 262.032463 
L 394.622759 262.047663 
L 395.54092 261.891081 
L 396.45908 261.56398 
L 397.377241 261.068107 
L 398.295402 260.405687 
L 399.213562 259.579416 
L 401.049884 257.448385 
L 402.886205 254.705551 
L 404.722526 251.388196 
L 406.558848 247.539852 
L 408.395169 243.209744 
L 411.149651 235.931271 
L 413.904133 227.893094 
L 417.576776 216.371901 
L 426.758383 186.942783 
L 429.512865 178.870994 
L 432.267347 171.520816 
L 434.103668 167.111105 
L 435.93999 163.149189 
L 437.776311 159.676381 
L 439.612632 156.727985 
L 441.448954 154.332944 
L 443.285275 152.513572 
L 444.203436 151.824872 
L 445.121597 151.285356 
L 446.039757 150.895875 
L 446.957918 150.656844 
L 447.876079 150.568241 
L 448.794239 150.629612 
L 449.7124 150.840071 
L 450.630561 151.19831 
L 451.548721 151.702598 
L 452.466882 152.350793 
L 454.303203 154.068319 
L 456.139525 156.325829 
L 457.975846 159.092297 
L 459.812168 162.331138 
L 461.648489 166.000684 
L 464.402971 172.210351 
L 467.157453 179.111995 
L 470.830096 189.064815 
L 480.929863 217.18305 
L 483.684345 224.119105 
L 486.438827 230.399494 
L 488.275149 234.145908 
L 490.11147 237.492963 
L 491.947791 240.405958 
L 493.784113 242.855503 
L 495.620434 244.817813 
L 497.456756 246.274925 
L 498.374916 246.810049 
L 499.293077 247.214851 
L 500.211238 247.488779 
L 501.129398 247.63166 
L 502.047559 247.643702 
L 502.96572 247.525488 
L 503.88388 247.277972 
L 504.802041 246.902479 
L 506.638362 245.77466 
L 508.474684 244.159744 
L 510.311005 242.080877 
L 512.147327 239.566317 
L 513.983648 236.649063 
L 515.819969 233.366433 
L 518.574451 227.84838 
L 521.328933 221.754069 
L 525.001576 213.018622 
L 534.183183 190.703431 
L 536.937665 184.582356 
L 539.692147 179.008252 
L 541.528468 175.663941 
L 543.36479 172.659106 
L 545.201111 170.02508 
L 547.037433 167.788641 
L 548.873754 165.971747 
L 550.710075 164.591327 
L 552.546397 163.659134 
L 554.382718 163.181661 
L 555.300879 163.114026 
L 556.219039 163.160112 
L 558.055361 163.590442 
L 559.891682 164.46345 
L 561.728003 165.764937 
L 563.564325 167.47591 
L 565.400646 169.572853 
L 567.236968 172.028031 
L 569.073289 174.809859 
L 571.827771 179.51757 
L 574.582253 184.750156 
L 578.254896 192.296404 
L 588.354663 213.617591 
L 591.109145 218.877442 
L 593.863627 223.640296 
L 595.699949 226.481593 
L 597.53627 229.020132 
L 599.372592 231.229591 
L 601.208913 233.087678 
L 603.045234 234.57635 
L 604.881556 235.681977 
L 606.717877 236.395461 
L 608.554198 236.712294 
L 610.39052 236.63257 
L 612.226841 236.160941 
L 614.063162 235.306515 
L 615.899484 234.082717 
L 617.735805 232.507088 
L 619.572127 230.601048 
L 621.408448 228.389612 
L 623.244769 225.901069 
L 625.081091 223.166627 
L 625.081091 223.166627 
" style="fill:none;stroke:#7b68ee;stroke-linecap:square;stroke-width:1.8;"/>
   </g>
   <g id="patch_3">
    <path d="M 144 336.6 
L 144 39.6 
" style="fill:none;stroke:#8787ff;stroke-linecap:square;stroke-linejoin:miter;stroke-width:0.8;"/>
   </g>
   <g id="patch_4">
    <path d="M 648 336.6 
L 648 39.6 
" style="fill:none;stroke:#8787ff;stroke-linecap:square;stroke-linejoin:miter;stroke-width:0.8;"/>
   </g>
   <g id="patch_5">
    <path d="M 144 336.6 
L 648 336.6 
" style="fill:none;stroke:#8787ff;stroke-linecap:square;stroke-linejoin:miter;stroke-width:0.8;"/>
   </g>
   <g id="patch_6">
    <path d="M 144 39.6 
L 648 39.6 
" style="fill:none;stroke:#8787ff;stroke-linecap:square;stroke-linejoin:miter;stroke-width:0.8;"/>
   </g>
  </g>
 </g>
 <defs>
  <clipPath id="p6a11222eb5">
   <rect height="297" width="504" x="144" y="39.6"/>
  </clipPath>
 </defs>
</svg>
