<?xml version="1.0" encoding="utf-8" standalone="no"?>
<!DOCTYPE svg PUBLIC "-//W3C//DTD SVG 1.1//EN"
  "http://www.w3.org/Graphics/SVG/1.1/DTD/svg11.dtd">
<!-- Created with matplotlib (https://matplotlib.org/) -->
<svg height="396pt" version="1.1" viewBox="0 0 720 396" width="720pt" xmlns="http://www.w3.org/2000/svg" xmlns:xlink="http://www.w3.org/1999/xlink">
 <defs>
  <style type="text/css">
*{stroke-linecap:butt;stroke-linejoin:round;}
  </style>
 </defs>
 <g id="figure_1">
  <g id="patch_1">
   <path d="M 0 396 
L 720 396 
L 720 0 
L 0 0 
z
" style="fill:none;"/>
  </g>
  <g id="axes_1">
   <g id="patch_2">
    <path d="M 72 336.6 
L 684 336.6 
L 684 39.6 
L 72 39.6 
z
" style="fill:none;"/>
   </g>
   <g id="matplotlib.axis_1">
    <g id="xtick_1">
     <g id="line2d_1">
      <path clip-path="url(#p02fe21c259)" d="M 72 336.6 
L 72 39.6 
" style="fill:none;stroke:#b2b2b2;stroke-dasharray:2.96,1.28;stroke-dashoffset:0;stroke-opacity:0.3;stroke-width:0.8;"/>
     </g>
     <g id="line2d_2">
      <defs>
       <path d="M 0 0 
L 0 3.5 
" id="ma96e9cf9e2" style="stroke:#000000;stroke-width:0.8;"/>
      </defs>
      <g>
       <use style="stroke:#000000;stroke-width:0.8;" x="72" xlink:href="#ma96e9cf9e2" y="336.6"/>
      </g>
     </g>
     <g id="text_1">
      <!-- −3 -->
      <defs>
       <path d="M 10.59375 35.5 
L 73.1875 35.5 
L 73.1875 27.203125 
L 10.59375 27.203125 
z
" id="DejaVuSans-8722"/>
       <path d="M 40.578125 39.3125 
Q 47.65625 37.796875 51.625 33 
Q 55.609375 28.21875 55.609375 21.1875 
Q 55.609375 10.40625 48.1875 4.484375 
Q 40.765625 -1.421875 27.09375 -1.421875 
Q 22.515625 -1.421875 17.65625 -0.515625 
Q 12.796875 0.390625 7.625 2.203125 
L 7.625 11.71875 
Q 11.71875 9.328125 16.59375 8.109375 
Q 21.484375 6.890625 26.8125 6.890625 
Q 36.078125 6.890625 40.9375 10.546875 
Q 45.796875 14.203125 45.796875 21.1875 
Q 45.796875 27.640625 41.28125 31.265625 
Q 36.765625 34.90625 28.71875 34.90625 
L 20.21875 34.90625 
L 20.21875 43.015625 
L 29.109375 43.015625 
Q 36.375 43.015625 40.234375 45.921875 
Q 44.09375 48.828125 44.09375 54.296875 
Q 44.09375 59.90625 40.109375 62.90625 
Q 36.140625 65.921875 28.71875 65.921875 
Q 24.65625 65.921875 20.015625 65.03125 
Q 15.375 64.15625 9.8125 62.3125 
L 9.8125 71.09375 
Q 15.4375 72.65625 20.34375 73.4375 
Q 25.25 74.21875 29.59375 74.21875 
Q 40.828125 74.21875 47.359375 69.109375 
Q 53.90625 64.015625 53.90625 55.328125 
Q 53.90625 49.265625 50.4375 45.09375 
Q 46.96875 40.921875 40.578125 39.3125 
z
" id="DejaVuSans-51"/>
      </defs>
      <g transform="translate(61.680469 354.237813)scale(0.14 -0.14)">
       <use xlink:href="#DejaVuSans-8722"/>
       <use x="83.789062" xlink:href="#DejaVuSans-51"/>
      </g>
     </g>
    </g>
    <g id="xtick_2">
     <g id="line2d_3">
      <path clip-path="url(#p02fe21c259)" d="M 174 336.6 
L 174 39.6 
" style="fill:none;stroke:#b2b2b2;stroke-dasharray:2.96,1.28;stroke-dashoffset:0;stroke-opacity:0.3;stroke-width:0.8;"/>
     </g>
     <g id="line2d_4">
      <g>
       <use style="stroke:#000000;stroke-width:0.8;" x="174" xlink:href="#ma96e9cf9e2" y="336.6"/>
      </g>
     </g>
     <g id="text_2">
      <!-- −2 -->
      <defs>
       <path d="M 19.1875 8.296875 
L 53.609375 8.296875 
L 53.609375 0 
L 7.328125 0 
L 7.328125 8.296875 
Q 12.9375 14.109375 22.625 23.890625 
Q 32.328125 33.6875 34.8125 36.53125 
Q 39.546875 41.84375 41.421875 45.53125 
Q 43.3125 49.21875 43.3125 52.78125 
Q 43.3125 58.59375 39.234375 62.25 
Q 35.15625 65.921875 28.609375 65.921875 
Q 23.96875 65.921875 18.8125 64.3125 
Q 13.671875 62.703125 7.8125 59.421875 
L 7.8125 69.390625 
Q 13.765625 71.78125 18.9375 73 
Q 24.125 74.21875 28.421875 74.21875 
Q 39.75 74.21875 46.484375 68.546875 
Q 53.21875 62.890625 53.21875 53.421875 
Q 53.21875 48.921875 51.53125 44.890625 
Q 49.859375 40.875 45.40625 35.40625 
Q 44.1875 33.984375 37.640625 27.21875 
Q 31.109375 20.453125 19.1875 8.296875 
z
" id="DejaVuSans-50"/>
      </defs>
      <g transform="translate(163.680469 354.237813)scale(0.14 -0.14)">
       <use xlink:href="#DejaVuSans-8722"/>
       <use x="83.789062" xlink:href="#DejaVuSans-50"/>
      </g>
     </g>
    </g>
    <g id="xtick_3">
     <g id="line2d_5">
      <path clip-path="url(#p02fe21c259)" d="M 276 336.6 
L 276 39.6 
" style="fill:none;stroke:#b2b2b2;stroke-dasharray:2.96,1.28;stroke-dashoffset:0;stroke-opacity:0.3;stroke-width:0.8;"/>
     </g>
     <g id="line2d_6">
      <g>
       <use style="stroke:#000000;stroke-width:0.8;" x="276" xlink:href="#ma96e9cf9e2" y="336.6"/>
      </g>
     </g>
     <g id="text_3">
      <!-- −1 -->
      <defs>
       <path d="M 12.40625 8.296875 
L 28.515625 8.296875 
L 28.515625 63.921875 
L 10.984375 60.40625 
L 10.984375 69.390625 
L 28.421875 72.90625 
L 38.28125 72.90625 
L 38.28125 8.296875 
L 54.390625 8.296875 
L 54.390625 0 
L 12.40625 0 
z
" id="DejaVuSans-49"/>
      </defs>
      <g transform="translate(265.680469 354.237813)scale(0.14 -0.14)">
       <use xlink:href="#DejaVuSans-8722"/>
       <use x="83.789062" xlink:href="#DejaVuSans-49"/>
      </g>
     </g>
    </g>
    <g id="xtick_4">
     <g id="line2d_7">
      <path clip-path="url(#p02fe21c259)" d="M 378 336.6 
L 378 39.6 
" style="fill:none;stroke:#b2b2b2;stroke-dasharray:2.96,1.28;stroke-dashoffset:0;stroke-opacity:0.3;stroke-width:0.8;"/>
     </g>
     <g id="line2d_8">
      <g>
       <use style="stroke:#000000;stroke-width:0.8;" x="378" xlink:href="#ma96e9cf9e2" y="336.6"/>
      </g>
     </g>
     <g id="text_4">
      <!-- 0 -->
      <defs>
       <path d="M 31.78125 66.40625 
Q 24.171875 66.40625 20.328125 58.90625 
Q 16.5 51.421875 16.5 36.375 
Q 16.5 21.390625 20.328125 13.890625 
Q 24.171875 6.390625 31.78125 6.390625 
Q 39.453125 6.390625 43.28125 13.890625 
Q 47.125 21.390625 47.125 36.375 
Q 47.125 51.421875 43.28125 58.90625 
Q 39.453125 66.40625 31.78125 66.40625 
z
M 31.78125 74.21875 
Q 44.046875 74.21875 50.515625 64.515625 
Q 56.984375 54.828125 56.984375 36.375 
Q 56.984375 17.96875 50.515625 8.265625 
Q 44.046875 -1.421875 31.78125 -1.421875 
Q 19.53125 -1.421875 13.0625 8.265625 
Q 6.59375 17.96875 6.59375 36.375 
Q 6.59375 54.828125 13.0625 64.515625 
Q 19.53125 74.21875 31.78125 74.21875 
z
" id="DejaVuSans-48"/>
      </defs>
      <g transform="translate(373.54625 354.237813)scale(0.14 -0.14)">
       <use xlink:href="#DejaVuSans-48"/>
      </g>
     </g>
    </g>
    <g id="xtick_5">
     <g id="line2d_9">
      <path clip-path="url(#p02fe21c259)" d="M 480 336.6 
L 480 39.6 
" style="fill:none;stroke:#b2b2b2;stroke-dasharray:2.96,1.28;stroke-dashoffset:0;stroke-opacity:0.3;stroke-width:0.8;"/>
     </g>
     <g id="line2d_10">
      <g>
       <use style="stroke:#000000;stroke-width:0.8;" x="480" xlink:href="#ma96e9cf9e2" y="336.6"/>
      </g>
     </g>
     <g id="text_5">
      <!-- 1 -->
      <g transform="translate(475.54625 354.237813)scale(0.14 -0.14)">
       <use xlink:href="#DejaVuSans-49"/>
      </g>
     </g>
    </g>
    <g id="xtick_6">
     <g id="line2d_11">
      <path clip-path="url(#p02fe21c259)" d="M 582 336.6 
L 582 39.6 
" style="fill:none;stroke:#b2b2b2;stroke-dasharray:2.96,1.28;stroke-dashoffset:0;stroke-opacity:0.3;stroke-width:0.8;"/>
     </g>
     <g id="line2d_12">
      <g>
       <use style="stroke:#000000;stroke-width:0.8;" x="582" xlink:href="#ma96e9cf9e2" y="336.6"/>
      </g>
     </g>
     <g id="text_6">
      <!-- 2 -->
      <g transform="translate(577.54625 354.237813)scale(0.14 -0.14)">
       <use xlink:href="#DejaVuSans-50"/>
      </g>
     </g>
    </g>
    <g id="xtick_7">
     <g id="line2d_13">
      <path clip-path="url(#p02fe21c259)" d="M 684 336.6 
L 684 39.6 
" style="fill:none;stroke:#b2b2b2;stroke-dasharray:2.96,1.28;stroke-dashoffset:0;stroke-opacity:0.3;stroke-width:0.8;"/>
     </g>
     <g id="line2d_14">
      <g>
       <use style="stroke:#000000;stroke-width:0.8;" x="684" xlink:href="#ma96e9cf9e2" y="336.6"/>
      </g>
     </g>
     <g id="text_7">
      <!-- 3 -->
      <g transform="translate(679.54625 354.237813)scale(0.14 -0.14)">
       <use xlink:href="#DejaVuSans-51"/>
      </g>
     </g>
    </g>
    <g id="text_8">
     <!-- Magnetic Flux ($\Phi$) -->
     <defs>
      <path d="M 9.8125 72.90625 
L 24.515625 72.90625 
L 43.109375 23.296875 
L 61.8125 72.90625 
L 76.515625 72.90625 
L 76.515625 0 
L 66.890625 0 
L 66.890625 64.015625 
L 48.09375 14.015625 
L 38.1875 14.015625 
L 19.390625 64.015625 
L 19.390625 0 
L 9.8125 0 
z
" id="DejaVuSans-77"/>
      <path d="M 34.28125 27.484375 
Q 23.390625 27.484375 19.1875 25 
Q 14.984375 22.515625 14.984375 16.5 
Q 14.984375 11.71875 18.140625 8.90625 
Q 21.296875 6.109375 26.703125 6.109375 
Q 34.1875 6.109375 38.703125 11.40625 
Q 43.21875 16.703125 43.21875 25.484375 
L 43.21875 27.484375 
z
M 52.203125 31.203125 
L 52.203125 0 
L 43.21875 0 
L 43.21875 8.296875 
Q 40.140625 3.328125 35.546875 0.953125 
Q 30.953125 -1.421875 24.3125 -1.421875 
Q 15.921875 -1.421875 10.953125 3.296875 
Q 6 8.015625 6 15.921875 
Q 6 25.140625 12.171875 29.828125 
Q 18.359375 34.515625 30.609375 34.515625 
L 43.21875 34.515625 
L 43.21875 35.40625 
Q 43.21875 41.609375 39.140625 45 
Q 35.0625 48.390625 27.6875 48.390625 
Q 23 48.390625 18.546875 47.265625 
Q 14.109375 46.140625 10.015625 43.890625 
L 10.015625 52.203125 
Q 14.9375 54.109375 19.578125 55.046875 
Q 24.21875 56 28.609375 56 
Q 40.484375 56 46.34375 49.84375 
Q 52.203125 43.703125 52.203125 31.203125 
z
" id="DejaVuSans-97"/>
      <path d="M 45.40625 27.984375 
Q 45.40625 37.75 41.375 43.109375 
Q 37.359375 48.484375 30.078125 48.484375 
Q 22.859375 48.484375 18.828125 43.109375 
Q 14.796875 37.75 14.796875 27.984375 
Q 14.796875 18.265625 18.828125 12.890625 
Q 22.859375 7.515625 30.078125 7.515625 
Q 37.359375 7.515625 41.375 12.890625 
Q 45.40625 18.265625 45.40625 27.984375 
z
M 54.390625 6.78125 
Q 54.390625 -7.171875 48.1875 -13.984375 
Q 42 -20.796875 29.203125 -20.796875 
Q 24.46875 -20.796875 20.265625 -20.09375 
Q 16.0625 -19.390625 12.109375 -17.921875 
L 12.109375 -9.1875 
Q 16.0625 -11.328125 19.921875 -12.34375 
Q 23.78125 -13.375 27.78125 -13.375 
Q 36.625 -13.375 41.015625 -8.765625 
Q 45.40625 -4.15625 45.40625 5.171875 
L 45.40625 9.625 
Q 42.625 4.78125 38.28125 2.390625 
Q 33.9375 0 27.875 0 
Q 17.828125 0 11.671875 7.65625 
Q 5.515625 15.328125 5.515625 27.984375 
Q 5.515625 40.671875 11.671875 48.328125 
Q 17.828125 56 27.875 56 
Q 33.9375 56 38.28125 53.609375 
Q 42.625 51.21875 45.40625 46.390625 
L 45.40625 54.6875 
L 54.390625 54.6875 
z
" id="DejaVuSans-103"/>
      <path d="M 54.890625 33.015625 
L 54.890625 0 
L 45.90625 0 
L 45.90625 32.71875 
Q 45.90625 40.484375 42.875 44.328125 
Q 39.84375 48.1875 33.796875 48.1875 
Q 26.515625 48.1875 22.3125 43.546875 
Q 18.109375 38.921875 18.109375 30.90625 
L 18.109375 0 
L 9.078125 0 
L 9.078125 54.6875 
L 18.109375 54.6875 
L 18.109375 46.1875 
Q 21.34375 51.125 25.703125 53.5625 
Q 30.078125 56 35.796875 56 
Q 45.21875 56 50.046875 50.171875 
Q 54.890625 44.34375 54.890625 33.015625 
z
" id="DejaVuSans-110"/>
      <path d="M 56.203125 29.59375 
L 56.203125 25.203125 
L 14.890625 25.203125 
Q 15.484375 15.921875 20.484375 11.0625 
Q 25.484375 6.203125 34.421875 6.203125 
Q 39.59375 6.203125 44.453125 7.46875 
Q 49.3125 8.734375 54.109375 11.28125 
L 54.109375 2.78125 
Q 49.265625 0.734375 44.1875 -0.34375 
Q 39.109375 -1.421875 33.890625 -1.421875 
Q 20.796875 -1.421875 13.15625 6.1875 
Q 5.515625 13.8125 5.515625 26.8125 
Q 5.515625 40.234375 12.765625 48.109375 
Q 20.015625 56 32.328125 56 
Q 43.359375 56 49.78125 48.890625 
Q 56.203125 41.796875 56.203125 29.59375 
z
M 47.21875 32.234375 
Q 47.125 39.59375 43.09375 43.984375 
Q 39.0625 48.390625 32.421875 48.390625 
Q 24.90625 48.390625 20.390625 44.140625 
Q 15.875 39.890625 15.1875 32.171875 
z
" id="DejaVuSans-101"/>
      <path d="M 18.3125 70.21875 
L 18.3125 54.6875 
L 36.8125 54.6875 
L 36.8125 47.703125 
L 18.3125 47.703125 
L 18.3125 18.015625 
Q 18.3125 11.328125 20.140625 9.421875 
Q 21.96875 7.515625 27.59375 7.515625 
L 36.8125 7.515625 
L 36.8125 0 
L 27.59375 0 
Q 17.1875 0 13.234375 3.875 
Q 9.28125 7.765625 9.28125 18.015625 
L 9.28125 47.703125 
L 2.6875 47.703125 
L 2.6875 54.6875 
L 9.28125 54.6875 
L 9.28125 70.21875 
z
" id="DejaVuSans-116"/>
      <path d="M 9.421875 54.6875 
L 18.40625 54.6875 
L 18.40625 0 
L 9.421875 0 
z
M 9.421875 75.984375 
L 18.40625 75.984375 
L 18.40625 64.59375 
L 9.421875 64.59375 
z
" id="DejaVuSans-105"/>
      <path d="M 48.78125 52.59375 
L 48.78125 44.1875 
Q 44.96875 46.296875 41.140625 47.34375 
Q 37.3125 48.390625 33.40625 48.390625 
Q 24.65625 48.390625 19.8125 42.84375 
Q 14.984375 37.3125 14.984375 27.296875 
Q 14.984375 17.28125 19.8125 11.734375 
Q 24.65625 6.203125 33.40625 6.203125 
Q 37.3125 6.203125 41.140625 7.25 
Q 44.96875 8.296875 48.78125 10.40625 
L 48.78125 2.09375 
Q 45.015625 0.34375 40.984375 -0.53125 
Q 36.96875 -1.421875 32.421875 -1.421875 
Q 20.0625 -1.421875 12.78125 6.34375 
Q 5.515625 14.109375 5.515625 27.296875 
Q 5.515625 40.671875 12.859375 48.328125 
Q 20.21875 56 33.015625 56 
Q 37.15625 56 41.109375 55.140625 
Q 45.0625 54.296875 48.78125 52.59375 
z
" id="DejaVuSans-99"/>
      <path id="DejaVuSans-32"/>
      <path d="M 9.8125 72.90625 
L 51.703125 72.90625 
L 51.703125 64.59375 
L 19.671875 64.59375 
L 19.671875 43.109375 
L 48.578125 43.109375 
L 48.578125 34.8125 
L 19.671875 34.8125 
L 19.671875 0 
L 9.8125 0 
z
" id="DejaVuSans-70"/>
      <path d="M 9.421875 75.984375 
L 18.40625 75.984375 
L 18.40625 0 
L 9.421875 0 
z
" id="DejaVuSans-108"/>
      <path d="M 8.5 21.578125 
L 8.5 54.6875 
L 17.484375 54.6875 
L 17.484375 21.921875 
Q 17.484375 14.15625 20.5 10.265625 
Q 23.53125 6.390625 29.59375 6.390625 
Q 36.859375 6.390625 41.078125 11.03125 
Q 45.3125 15.671875 45.3125 23.6875 
L 45.3125 54.6875 
L 54.296875 54.6875 
L 54.296875 0 
L 45.3125 0 
L 45.3125 8.40625 
Q 42.046875 3.421875 37.71875 1 
Q 33.40625 -1.421875 27.6875 -1.421875 
Q 18.265625 -1.421875 13.375 4.4375 
Q 8.5 10.296875 8.5 21.578125 
z
M 31.109375 56 
z
" id="DejaVuSans-117"/>
      <path d="M 54.890625 54.6875 
L 35.109375 28.078125 
L 55.90625 0 
L 45.3125 0 
L 29.390625 21.484375 
L 13.484375 0 
L 2.875 0 
L 24.125 28.609375 
L 4.6875 54.6875 
L 15.28125 54.6875 
L 29.78125 35.203125 
L 44.28125 54.6875 
z
" id="DejaVuSans-120"/>
      <path d="M 31 75.875 
Q 24.46875 64.65625 21.28125 53.65625 
Q 18.109375 42.671875 18.109375 31.390625 
Q 18.109375 20.125 21.3125 9.0625 
Q 24.515625 -2 31 -13.1875 
L 23.1875 -13.1875 
Q 15.875 -1.703125 12.234375 9.375 
Q 8.59375 20.453125 8.59375 31.390625 
Q 8.59375 42.28125 12.203125 53.3125 
Q 15.828125 64.359375 23.1875 75.875 
z
" id="DejaVuSans-40"/>
      <path d="M 18.609375 0 
L 18.609375 3.515625 
Q 31.390625 3.515625 31.390625 6.6875 
L 31.390625 13.921875 
Q 21.78125 14.84375 14.5 19.671875 
Q 10.6875 22.265625 8.140625 26.078125 
Q 5.609375 29.890625 5.609375 34.1875 
Q 5.609375 38.421875 8.140625 42.25 
Q 10.6875 46.09375 14.5 48.578125 
Q 18.265625 51.125 22.4375 52.515625 
Q 26.609375 53.90625 31.390625 54.390625 
L 31.390625 61.625 
Q 31.390625 64.796875 18.609375 64.796875 
L 18.609375 68.3125 
L 52.875 68.3125 
L 52.875 64.796875 
Q 40.09375 64.796875 40.09375 61.625 
L 40.09375 54.390625 
Q 44.234375 54.390625 48.875 52.84375 
Q 53.515625 51.3125 57.46875 48.671875 
Q 61.421875 46.046875 63.953125 42.265625 
Q 66.5 38.484375 66.5 34.1875 
Q 66.5 29.890625 63.953125 26.125 
Q 61.421875 22.359375 57.34375 19.625 
Q 53.265625 16.890625 48.625 15.40625 
Q 44 13.921875 40.09375 13.921875 
L 40.09375 6.6875 
Q 40.09375 3.515625 52.875 3.515625 
L 52.875 0 
z
M 40.09375 16.5 
Q 48.140625 17.53125 52.125 21.890625 
Q 56.109375 26.265625 56.109375 34.1875 
Q 56.109375 42.140625 52.078125 46.484375 
Q 48.046875 50.828125 40.09375 51.8125 
z
M 31.390625 16.609375 
L 31.390625 51.703125 
Q 16.015625 49.5625 16.015625 34.1875 
Q 16.015625 18.75 31.390625 16.609375 
z
" id="Cmr10-169"/>
      <path d="M 8.015625 75.875 
L 15.828125 75.875 
Q 23.140625 64.359375 26.78125 53.3125 
Q 30.421875 42.28125 30.421875 31.390625 
Q 30.421875 20.453125 26.78125 9.375 
Q 23.140625 -1.703125 15.828125 -13.1875 
L 8.015625 -13.1875 
Q 14.5 -2 17.703125 9.0625 
Q 20.90625 20.125 20.90625 31.390625 
Q 20.90625 42.671875 17.703125 53.65625 
Q 14.5 64.65625 8.015625 75.875 
z
" id="DejaVuSans-41"/>
     </defs>
     <g transform="translate(290 376.349375)scale(0.2 -0.2)">
      <use transform="translate(0 0.015625)" xlink:href="#DejaVuSans-77"/>
      <use transform="translate(86.279297 0.015625)" xlink:href="#DejaVuSans-97"/>
      <use transform="translate(147.558594 0.015625)" xlink:href="#DejaVuSans-103"/>
      <use transform="translate(211.035156 0.015625)" xlink:href="#DejaVuSans-110"/>
      <use transform="translate(274.414062 0.015625)" xlink:href="#DejaVuSans-101"/>
      <use transform="translate(335.9375 0.015625)" xlink:href="#DejaVuSans-116"/>
      <use transform="translate(375.146484 0.015625)" xlink:href="#DejaVuSans-105"/>
      <use transform="translate(402.929688 0.015625)" xlink:href="#DejaVuSans-99"/>
      <use transform="translate(457.910156 0.015625)" xlink:href="#DejaVuSans-32"/>
      <use transform="translate(489.697266 0.015625)" xlink:href="#DejaVuSans-70"/>
      <use transform="translate(547.216797 0.015625)" xlink:href="#DejaVuSans-108"/>
      <use transform="translate(575 0.015625)" xlink:href="#DejaVuSans-117"/>
      <use transform="translate(638.378906 0.015625)" xlink:href="#DejaVuSans-120"/>
      <use transform="translate(697.558594 0.015625)" xlink:href="#DejaVuSans-32"/>
      <use transform="translate(729.345703 0.015625)" xlink:href="#DejaVuSans-40"/>
      <use transform="translate(768.359375 0.015625)" xlink:href="#Cmr10-169"/>
      <use transform="translate(840.576172 0.015625)" xlink:href="#DejaVuSans-41"/>
     </g>
    </g>
   </g>
   <g id="matplotlib.axis_2">
    <g id="ytick_1">
     <g id="line2d_15">
      <path clip-path="url(#p02fe21c259)" d="M 72 336.6 
L 684 336.6 
" style="fill:none;stroke:#b2b2b2;stroke-dasharray:2.96,1.28;stroke-dashoffset:0;stroke-opacity:0.3;stroke-width:0.8;"/>
     </g>
     <g id="line2d_16">
      <defs>
       <path d="M 0 0 
L -3.5 0 
" id="m51e5484ed6" style="stroke:#000000;stroke-width:0.8;"/>
      </defs>
      <g>
       <use style="stroke:#000000;stroke-width:0.8;" x="72" xlink:href="#m51e5484ed6" y="336.6"/>
      </g>
     </g>
     <g id="text_9">
      <!-- 8 -->
      <defs>
       <path d="M 31.78125 34.625 
Q 24.75 34.625 20.71875 30.859375 
Q 16.703125 27.09375 16.703125 20.515625 
Q 16.703125 13.921875 20.71875 10.15625 
Q 24.75 6.390625 31.78125 6.390625 
Q 38.8125 6.390625 42.859375 10.171875 
Q 46.921875 13.96875 46.921875 20.515625 
Q 46.921875 27.09375 42.890625 30.859375 
Q 38.875 34.625 31.78125 34.625 
z
M 21.921875 38.8125 
Q 15.578125 40.375 12.03125 44.71875 
Q 8.5 49.078125 8.5 55.328125 
Q 8.5 64.0625 14.71875 69.140625 
Q 20.953125 74.21875 31.78125 74.21875 
Q 42.671875 74.21875 48.875 69.140625 
Q 55.078125 64.0625 55.078125 55.328125 
Q 55.078125 49.078125 51.53125 44.71875 
Q 48 40.375 41.703125 38.8125 
Q 48.828125 37.15625 52.796875 32.3125 
Q 56.78125 27.484375 56.78125 20.515625 
Q 56.78125 9.90625 50.3125 4.234375 
Q 43.84375 -1.421875 31.78125 -1.421875 
Q 19.734375 -1.421875 13.25 4.234375 
Q 6.78125 9.90625 6.78125 20.515625 
Q 6.78125 27.484375 10.78125 32.3125 
Q 14.796875 37.15625 21.921875 38.8125 
z
M 18.3125 54.390625 
Q 18.3125 48.734375 21.84375 45.5625 
Q 25.390625 42.390625 31.78125 42.390625 
Q 38.140625 42.390625 41.71875 45.5625 
Q 45.3125 48.734375 45.3125 54.390625 
Q 45.3125 60.0625 41.71875 63.234375 
Q 38.140625 66.40625 31.78125 66.40625 
Q 25.390625 66.40625 21.84375 63.234375 
Q 18.3125 60.0625 18.3125 54.390625 
z
" id="DejaVuSans-56"/>
      </defs>
      <g transform="translate(56.0925 341.918906)scale(0.14 -0.14)">
       <use xlink:href="#DejaVuSans-56"/>
      </g>
     </g>
    </g>
    <g id="ytick_2">
     <g id="line2d_17">
      <path clip-path="url(#p02fe21c259)" d="M 72 277.2 
L 684 277.2 
" style="fill:none;stroke:#b2b2b2;stroke-dasharray:2.96,1.28;stroke-dashoffset:0;stroke-opacity:0.3;stroke-width:0.8;"/>
     </g>
     <g id="line2d_18">
      <g>
       <use style="stroke:#000000;stroke-width:0.8;" x="72" xlink:href="#m51e5484ed6" y="277.2"/>
      </g>
     </g>
     <g id="text_10">
      <!-- 10 -->
      <g transform="translate(47.185 282.518906)scale(0.14 -0.14)">
       <use xlink:href="#DejaVuSans-49"/>
       <use x="63.623047" xlink:href="#DejaVuSans-48"/>
      </g>
     </g>
    </g>
    <g id="ytick_3">
     <g id="line2d_19">
      <path clip-path="url(#p02fe21c259)" d="M 72 217.8 
L 684 217.8 
" style="fill:none;stroke:#b2b2b2;stroke-dasharray:2.96,1.28;stroke-dashoffset:0;stroke-opacity:0.3;stroke-width:0.8;"/>
     </g>
     <g id="line2d_20">
      <g>
       <use style="stroke:#000000;stroke-width:0.8;" x="72" xlink:href="#m51e5484ed6" y="217.8"/>
      </g>
     </g>
     <g id="text_11">
      <!-- 12 -->
      <g transform="translate(47.185 223.118906)scale(0.14 -0.14)">
       <use xlink:href="#DejaVuSans-49"/>
       <use x="63.623047" xlink:href="#DejaVuSans-50"/>
      </g>
     </g>
    </g>
    <g id="ytick_4">
     <g id="line2d_21">
      <path clip-path="url(#p02fe21c259)" d="M 72 158.4 
L 684 158.4 
" style="fill:none;stroke:#b2b2b2;stroke-dasharray:2.96,1.28;stroke-dashoffset:0;stroke-opacity:0.3;stroke-width:0.8;"/>
     </g>
     <g id="line2d_22">
      <g>
       <use style="stroke:#000000;stroke-width:0.8;" x="72" xlink:href="#m51e5484ed6" y="158.4"/>
      </g>
     </g>
     <g id="text_12">
      <!-- 14 -->
      <defs>
       <path d="M 37.796875 64.3125 
L 12.890625 25.390625 
L 37.796875 25.390625 
z
M 35.203125 72.90625 
L 47.609375 72.90625 
L 47.609375 25.390625 
L 58.015625 25.390625 
L 58.015625 17.1875 
L 47.609375 17.1875 
L 47.609375 0 
L 37.796875 0 
L 37.796875 17.1875 
L 4.890625 17.1875 
L 4.890625 26.703125 
z
" id="DejaVuSans-52"/>
      </defs>
      <g transform="translate(47.185 163.718906)scale(0.14 -0.14)">
       <use xlink:href="#DejaVuSans-49"/>
       <use x="63.623047" xlink:href="#DejaVuSans-52"/>
      </g>
     </g>
    </g>
    <g id="ytick_5">
     <g id="line2d_23">
      <path clip-path="url(#p02fe21c259)" d="M 72 99 
L 684 99 
" style="fill:none;stroke:#b2b2b2;stroke-dasharray:2.96,1.28;stroke-dashoffset:0;stroke-opacity:0.3;stroke-width:0.8;"/>
     </g>
     <g id="line2d_24">
      <g>
       <use style="stroke:#000000;stroke-width:0.8;" x="72" xlink:href="#m51e5484ed6" y="99"/>
      </g>
     </g>
     <g id="text_13">
      <!-- 16 -->
      <defs>
       <path d="M 33.015625 40.375 
Q 26.375 40.375 22.484375 35.828125 
Q 18.609375 31.296875 18.609375 23.390625 
Q 18.609375 15.53125 22.484375 10.953125 
Q 26.375 6.390625 33.015625 6.390625 
Q 39.65625 6.390625 43.53125 10.953125 
Q 47.40625 15.53125 47.40625 23.390625 
Q 47.40625 31.296875 43.53125 35.828125 
Q 39.65625 40.375 33.015625 40.375 
z
M 52.59375 71.296875 
L 52.59375 62.3125 
Q 48.875 64.0625 45.09375 64.984375 
Q 41.3125 65.921875 37.59375 65.921875 
Q 27.828125 65.921875 22.671875 59.328125 
Q 17.53125 52.734375 16.796875 39.40625 
Q 19.671875 43.65625 24.015625 45.921875 
Q 28.375 48.1875 33.59375 48.1875 
Q 44.578125 48.1875 50.953125 41.515625 
Q 57.328125 34.859375 57.328125 23.390625 
Q 57.328125 12.15625 50.6875 5.359375 
Q 44.046875 -1.421875 33.015625 -1.421875 
Q 20.359375 -1.421875 13.671875 8.265625 
Q 6.984375 17.96875 6.984375 36.375 
Q 6.984375 53.65625 15.1875 63.9375 
Q 23.390625 74.21875 37.203125 74.21875 
Q 40.921875 74.21875 44.703125 73.484375 
Q 48.484375 72.75 52.59375 71.296875 
z
" id="DejaVuSans-54"/>
      </defs>
      <g transform="translate(47.185 104.318906)scale(0.14 -0.14)">
       <use xlink:href="#DejaVuSans-49"/>
       <use x="63.623047" xlink:href="#DejaVuSans-54"/>
      </g>
     </g>
    </g>
    <g id="ytick_6">
     <g id="line2d_25">
      <path clip-path="url(#p02fe21c259)" d="M 72 39.6 
L 684 39.6 
" style="fill:none;stroke:#b2b2b2;stroke-dasharray:2.96,1.28;stroke-dashoffset:0;stroke-opacity:0.3;stroke-width:0.8;"/>
     </g>
     <g id="line2d_26">
      <g>
       <use style="stroke:#000000;stroke-width:0.8;" x="72" xlink:href="#m51e5484ed6" y="39.6"/>
      </g>
     </g>
     <g id="text_14">
      <!-- 18 -->
      <g transform="translate(47.185 44.918906)scale(0.14 -0.14)">
       <use xlink:href="#DejaVuSans-49"/>
       <use x="63.623047" xlink:href="#DejaVuSans-56"/>
      </g>
     </g>
    </g>
    <g id="text_15">
     <!-- $\omega/2\pi$ (GHz) -->
     <defs>
      <path d="M 12.109375 -1.125 
Q 6.453125 -1.125 3.9375 3.015625 
Q 1.421875 7.171875 1.421875 13.1875 
Q 1.421875 17.140625 2.125 20.921875 
Q 2.828125 24.703125 4.265625 28.578125 
Q 5.71875 32.46875 7.5625 35.859375 
Q 9.421875 39.265625 11.71875 42.484375 
Q 12.15625 43.109375 12.890625 43.109375 
Q 13.53125 43.109375 13.921875 42.71875 
Q 14.3125 42.328125 14.3125 41.796875 
Q 14.3125 41.265625 14.015625 40.828125 
Q 4.890625 28.265625 4.890625 17.671875 
Q 4.890625 13.09375 7 9.796875 
Q 9.125 6.5 13.484375 6.5 
Q 17.234375 6.5 20.4375 8.6875 
Q 23.640625 10.890625 25.984375 14.3125 
Q 25.984375 16.0625 26.59375 19.765625 
Q 27.203125 23.484375 28.484375 26.390625 
Q 29.78125 29.296875 31.59375 29.296875 
Q 33.890625 29.296875 33.890625 26.609375 
Q 33.890625 25.046875 33.21875 22.671875 
Q 32.5625 20.3125 31.75 18.265625 
Q 30.953125 16.21875 29.78125 13.625 
Q 30.953125 6.5 36.921875 6.5 
Q 40.375 6.5 43.859375 8.5 
Q 47.359375 10.5 50.046875 13.75 
Q 52.734375 17 54.265625 20.75 
Q 55.8125 24.515625 55.8125 27.875 
Q 55.8125 30.90625 54.859375 32.59375 
Q 53.90625 34.28125 52.34375 36.125 
Q 50.78125 37.984375 50.78125 39.109375 
Q 50.78125 41.0625 52.4375 42.671875 
Q 54.109375 44.28125 56 44.28125 
Q 58.453125 44.28125 59.46875 42.0625 
Q 60.5 39.84375 60.5 37.015625 
Q 60.5 32.421875 58.671875 25.4375 
Q 56.84375 18.453125 54.5 13.8125 
Q 51.265625 7.515625 46.40625 3.1875 
Q 41.546875 -1.125 35.5 -1.125 
Q 31.640625 -1.125 29.265625 1.1875 
Q 26.90625 3.515625 26.21875 7.515625 
Q 23.4375 3.5625 19.875 1.21875 
Q 16.3125 -1.125 12.109375 -1.125 
z
" id="Cmmi10-33"/>
      <path d="M 5.609375 -23 
Q 5.609375 -22.703125 5.71875 -22.609375 
L 40.484375 73.78125 
Q 40.671875 74.359375 41.15625 74.671875 
Q 41.65625 75 42.28125 75 
Q 43.171875 75 43.71875 74.453125 
Q 44.28125 73.921875 44.28125 73 
L 44.28125 72.609375 
L 9.515625 -23.78125 
Q 8.9375 -25 7.625 -25 
Q 6.78125 -25 6.1875 -24.40625 
Q 5.609375 -23.828125 5.609375 -23 
z
" id="Cmmi10-61"/>
      <path d="M 4.984375 0 
L 4.984375 2.6875 
Q 4.984375 2.9375 5.171875 3.21875 
L 20.703125 20.40625 
Q 24.21875 24.21875 26.40625 26.796875 
Q 28.609375 29.390625 30.75 32.765625 
Q 32.90625 36.140625 34.15625 39.625 
Q 35.40625 43.109375 35.40625 47.015625 
Q 35.40625 51.125 33.890625 54.859375 
Q 32.375 58.59375 29.375 60.84375 
Q 26.375 63.09375 22.125 63.09375 
Q 17.78125 63.09375 14.3125 60.46875 
Q 10.84375 57.859375 9.421875 53.71875 
Q 9.8125 53.8125 10.5 53.8125 
Q 12.75 53.8125 14.328125 52.296875 
Q 15.921875 50.78125 15.921875 48.390625 
Q 15.921875 46.09375 14.328125 44.5 
Q 12.75 42.921875 10.5 42.921875 
Q 8.15625 42.921875 6.5625 44.546875 
Q 4.984375 46.1875 4.984375 48.390625 
Q 4.984375 52.15625 6.390625 55.4375 
Q 7.8125 58.734375 10.46875 61.296875 
Q 13.140625 63.875 16.484375 65.234375 
Q 19.828125 66.609375 23.578125 66.609375 
Q 29.296875 66.609375 34.21875 64.1875 
Q 39.15625 61.765625 42.03125 57.34375 
Q 44.921875 52.9375 44.921875 47.015625 
Q 44.921875 42.671875 43.015625 38.765625 
Q 41.109375 34.859375 38.125 31.65625 
Q 35.15625 28.46875 30.515625 24.40625 
Q 25.875 20.359375 24.421875 19 
L 13.09375 8.109375 
L 22.703125 8.109375 
Q 29.78125 8.109375 34.546875 8.21875 
Q 39.3125 8.34375 39.59375 8.59375 
Q 40.765625 9.859375 42 17.828125 
L 44.921875 17.828125 
L 42.09375 0 
z
" id="Cmr10-50"/>
      <path d="M 10.109375 1.703125 
Q 10.109375 2.25 10.5 3.328125 
Q 13.28125 9.125 15.6875 14.71875 
Q 18.109375 20.3125 20.03125 25.609375 
Q 21.96875 30.90625 23.578125 36.921875 
L 17.1875 36.921875 
Q 13.53125 36.921875 10.34375 34.625 
Q 7.171875 32.328125 5.078125 28.8125 
Q 4.890625 28.421875 4.5 28.421875 
L 3.328125 28.421875 
Q 2.390625 28.421875 2.390625 29.390625 
Q 2.390625 29.59375 2.59375 29.984375 
Q 5.859375 35.546875 9.59375 39.328125 
Q 13.328125 43.109375 18.015625 43.109375 
L 54.296875 43.109375 
Q 55.328125 43.109375 56.046875 42.421875 
Q 56.78125 41.75 56.78125 40.578125 
Q 56.78125 39.109375 55.734375 38.015625 
Q 54.6875 36.921875 53.21875 36.921875 
L 40.484375 36.921875 
Q 38.875 29.046875 38.71875 21.578125 
Q 38.71875 11.96875 42.09375 4.203125 
Q 42.390625 3.609375 42.390625 2.984375 
Q 42.390625 1.90625 41.75 0.96875 
Q 41.109375 0.046875 40.109375 -0.53125 
Q 39.109375 -1.125 37.984375 -1.125 
Q 35.359375 -1.125 34.375 3.171875 
Q 33.40625 7.46875 33.40625 11.53125 
Q 33.40625 17.234375 34.375 22.53125 
Q 35.359375 27.828125 37.5 36.921875 
L 26.609375 36.921875 
Q 18.703125 4.890625 17.09375 1.609375 
Q 15.671875 -1.125 13.1875 -1.125 
Q 11.96875 -1.125 11.03125 -0.3125 
Q 10.109375 0.484375 10.109375 1.703125 
z
" id="Cmmi10-188"/>
      <path d="M 59.515625 10.40625 
L 59.515625 29.984375 
L 43.40625 29.984375 
L 43.40625 38.09375 
L 69.28125 38.09375 
L 69.28125 6.78125 
Q 63.578125 2.734375 56.6875 0.65625 
Q 49.8125 -1.421875 42 -1.421875 
Q 24.90625 -1.421875 15.25 8.5625 
Q 5.609375 18.5625 5.609375 36.375 
Q 5.609375 54.25 15.25 64.234375 
Q 24.90625 74.21875 42 74.21875 
Q 49.125 74.21875 55.546875 72.453125 
Q 61.96875 70.703125 67.390625 67.28125 
L 67.390625 56.78125 
Q 61.921875 61.421875 55.765625 63.765625 
Q 49.609375 66.109375 42.828125 66.109375 
Q 29.4375 66.109375 22.71875 58.640625 
Q 16.015625 51.171875 16.015625 36.375 
Q 16.015625 21.625 22.71875 14.15625 
Q 29.4375 6.6875 42.828125 6.6875 
Q 48.046875 6.6875 52.140625 7.59375 
Q 56.25 8.5 59.515625 10.40625 
z
" id="DejaVuSans-71"/>
      <path d="M 9.8125 72.90625 
L 19.671875 72.90625 
L 19.671875 43.015625 
L 55.515625 43.015625 
L 55.515625 72.90625 
L 65.375 72.90625 
L 65.375 0 
L 55.515625 0 
L 55.515625 34.71875 
L 19.671875 34.71875 
L 19.671875 0 
L 9.8125 0 
z
" id="DejaVuSans-72"/>
      <path d="M 5.515625 54.6875 
L 48.1875 54.6875 
L 48.1875 46.484375 
L 14.40625 7.171875 
L 48.1875 7.171875 
L 48.1875 0 
L 4.296875 0 
L 4.296875 8.203125 
L 38.09375 47.515625 
L 5.515625 47.515625 
z
" id="DejaVuSans-122"/>
     </defs>
     <g transform="translate(38.185 241.6)rotate(-90)scale(0.2 -0.2)">
      <use transform="translate(0 0.125)" xlink:href="#Cmmi10-33"/>
      <use transform="translate(62.207031 0.125)" xlink:href="#Cmmi10-61"/>
      <use transform="translate(112.207031 0.125)" xlink:href="#Cmr10-50"/>
      <use transform="translate(162.207031 0.125)" xlink:href="#Cmmi10-188"/>
      <use transform="translate(219.189453 0.125)" xlink:href="#DejaVuSans-32"/>
      <use transform="translate(250.976562 0.125)" xlink:href="#DejaVuSans-40"/>
      <use transform="translate(289.990234 0.125)" xlink:href="#DejaVuSans-71"/>
      <use transform="translate(367.480469 0.125)" xlink:href="#DejaVuSans-72"/>
      <use transform="translate(442.675781 0.125)" xlink:href="#DejaVuSans-122"/>
      <use transform="translate(495.166016 0.125)" xlink:href="#DejaVuSans-41"/>
     </g>
    </g>
   </g>
   <g id="line2d_27">
    <defs>
     <path d="M 0 1.5 
C 0.397805 1.5 0.77937 1.341951 1.06066 1.06066 
C 1.341951 0.77937 1.5 0.397805 1.5 0 
C 1.5 -0.397805 1.341951 -0.77937 1.06066 -1.06066 
C 0.77937 -1.341951 0.397805 -1.5 0 -1.5 
C -0.397805 -1.5 -0.77937 -1.341951 -1.06066 -1.06066 
C -1.341951 -0.77937 -1.5 -0.397805 -1.5 0 
C -1.5 0.397805 -1.341951 0.77937 -1.06066 1.06066 
C -0.77937 1.341951 -0.397805 1.5 0 1.5 
z
" id="m6ffabe0ec7" style="stroke:#004ba8;stroke-opacity:0.5;stroke-width:5;"/>
    </defs>
    <g clip-path="url(#p02fe21c259)">
     <use style="fill:#004ba8;fill-opacity:0.5;stroke:#004ba8;stroke-opacity:0.5;stroke-width:5;" x="112.187709" xlink:href="#m6ffabe0ec7" y="193.325715"/>
     <use style="fill:#004ba8;fill-opacity:0.5;stroke:#004ba8;stroke-opacity:0.5;stroke-width:5;" x="112.840071" xlink:href="#m6ffabe0ec7" y="189.298098"/>
     <use style="fill:#004ba8;fill-opacity:0.5;stroke:#004ba8;stroke-opacity:0.5;stroke-width:5;" x="113.492434" xlink:href="#m6ffabe0ec7" y="185.636385"/>
     <use style="fill:#004ba8;fill-opacity:0.5;stroke:#004ba8;stroke-opacity:0.5;stroke-width:5;" x="114.144943" xlink:href="#m6ffabe0ec7" y="182.34117"/>
     <use style="fill:#004ba8;fill-opacity:0.5;stroke:#004ba8;stroke-opacity:0.5;stroke-width:5;" x="114.797306" xlink:href="#m6ffabe0ec7" y="179.045658"/>
     <use style="fill:#004ba8;fill-opacity:0.5;stroke:#004ba8;stroke-opacity:0.5;stroke-width:5;" x="115.449814" xlink:href="#m6ffabe0ec7" y="176.482845"/>
     <use style="fill:#004ba8;fill-opacity:0.5;stroke:#004ba8;stroke-opacity:0.5;stroke-width:5;" x="116.102177" xlink:href="#m6ffabe0ec7" y="173.797668"/>
     <use style="fill:#004ba8;fill-opacity:0.5;stroke:#004ba8;stroke-opacity:0.5;stroke-width:5;" x="116.754686" xlink:href="#m6ffabe0ec7" y="171.356625"/>
     <use style="fill:#004ba8;fill-opacity:0.5;stroke:#004ba8;stroke-opacity:0.5;stroke-width:5;" x="117.407194" xlink:href="#m6ffabe0ec7" y="168.915582"/>
     <use style="fill:#004ba8;fill-opacity:0.5;stroke:#004ba8;stroke-opacity:0.5;stroke-width:5;" x="118.059557" xlink:href="#m6ffabe0ec7" y="167.084874"/>
     <use style="fill:#004ba8;fill-opacity:0.5;stroke:#004ba8;stroke-opacity:0.5;stroke-width:5;" x="118.712066" xlink:href="#m6ffabe0ec7" y="166.108635"/>
     <use style="fill:#004ba8;fill-opacity:0.5;stroke:#004ba8;stroke-opacity:0.5;stroke-width:5;" x="119.364429" xlink:href="#m6ffabe0ec7" y="160.738281"/>
     <use style="fill:#004ba8;fill-opacity:0.5;stroke:#004ba8;stroke-opacity:0.5;stroke-width:5;" x="120.016791" xlink:href="#m6ffabe0ec7" y="159.762042"/>
     <use style="fill:#004ba8;fill-opacity:0.5;stroke:#004ba8;stroke-opacity:0.5;stroke-width:5;" x="120.6693" xlink:href="#m6ffabe0ec7" y="158.419305"/>
     <use style="fill:#004ba8;fill-opacity:0.5;stroke:#004ba8;stroke-opacity:0.5;stroke-width:5;" x="121.321663" xlink:href="#m6ffabe0ec7" y="157.443066"/>
    </g>
   </g>
   <g id="line2d_28">
    <g clip-path="url(#p02fe21c259)">
     <use style="fill:#004ba8;fill-opacity:0.5;stroke:#004ba8;stroke-opacity:0.5;stroke-width:5;" x="215.426571" xlink:href="#m6ffabe0ec7" y="277.873061"/>
     <use style="fill:#004ba8;fill-opacity:0.5;stroke:#004ba8;stroke-opacity:0.5;stroke-width:5;" x="215.931107" xlink:href="#m6ffabe0ec7" y="273.13407"/>
     <use style="fill:#004ba8;fill-opacity:0.5;stroke:#004ba8;stroke-opacity:0.5;stroke-width:5;" x="216.435643" xlink:href="#m6ffabe0ec7" y="269.766684"/>
     <use style="fill:#004ba8;fill-opacity:0.5;stroke:#004ba8;stroke-opacity:0.5;stroke-width:5;" x="216.940179" xlink:href="#m6ffabe0ec7" y="266.649075"/>
     <use style="fill:#004ba8;fill-opacity:0.5;stroke:#004ba8;stroke-opacity:0.5;stroke-width:5;" x="217.444714" xlink:href="#m6ffabe0ec7" y="262.533546"/>
     <use style="fill:#004ba8;fill-opacity:0.5;stroke:#004ba8;stroke-opacity:0.5;stroke-width:5;" x="217.94925" xlink:href="#m6ffabe0ec7" y="259.41564"/>
     <use style="fill:#004ba8;fill-opacity:0.5;stroke:#004ba8;stroke-opacity:0.5;stroke-width:5;" x="218.453786" xlink:href="#m6ffabe0ec7" y="256.796694"/>
     <use style="fill:#004ba8;fill-opacity:0.5;stroke:#004ba8;stroke-opacity:0.5;stroke-width:5;" x="218.958321" xlink:href="#m6ffabe0ec7" y="254.302488"/>
     <use style="fill:#004ba8;fill-opacity:0.5;stroke:#004ba8;stroke-opacity:0.5;stroke-width:5;" x="219.462857" xlink:href="#m6ffabe0ec7" y="252.182205"/>
     <use style="fill:#004ba8;fill-opacity:0.5;stroke:#004ba8;stroke-opacity:0.5;stroke-width:5;" x="219.967393" xlink:href="#m6ffabe0ec7" y="250.311699"/>
     <use style="fill:#004ba8;fill-opacity:0.5;stroke:#004ba8;stroke-opacity:0.5;stroke-width:5;" x="220.471929" xlink:href="#m6ffabe0ec7" y="248.440896"/>
     <use style="fill:#004ba8;fill-opacity:0.5;stroke:#004ba8;stroke-opacity:0.5;stroke-width:5;" x="220.976464" xlink:href="#m6ffabe0ec7" y="246.44565"/>
     <use style="fill:#004ba8;fill-opacity:0.5;stroke:#004ba8;stroke-opacity:0.5;stroke-width:5;" x="221.481" xlink:href="#m6ffabe0ec7" y="244.949067"/>
     <use style="fill:#004ba8;fill-opacity:0.5;stroke:#004ba8;stroke-opacity:0.5;stroke-width:5;" x="221.985536" xlink:href="#m6ffabe0ec7" y="243.826407"/>
     <use style="fill:#004ba8;fill-opacity:0.5;stroke:#004ba8;stroke-opacity:0.5;stroke-width:5;" x="222.490071" xlink:href="#m6ffabe0ec7" y="242.704044"/>
     <use style="fill:#004ba8;fill-opacity:0.5;stroke:#004ba8;stroke-opacity:0.5;stroke-width:5;" x="222.994607" xlink:href="#m6ffabe0ec7" y="241.706421"/>
     <use style="fill:#004ba8;fill-opacity:0.5;stroke:#004ba8;stroke-opacity:0.5;stroke-width:5;" x="223.499143" xlink:href="#m6ffabe0ec7" y="241.207461"/>
     <use style="fill:#004ba8;fill-opacity:0.5;stroke:#004ba8;stroke-opacity:0.5;stroke-width:5;" x="224.003679" xlink:href="#m6ffabe0ec7" y="240.833538"/>
     <use style="fill:#004ba8;fill-opacity:0.5;stroke:#004ba8;stroke-opacity:0.5;stroke-width:5;" x="224.508214" xlink:href="#m6ffabe0ec7" y="240.584058"/>
     <use style="fill:#004ba8;fill-opacity:0.5;stroke:#004ba8;stroke-opacity:0.5;stroke-width:5;" x="225.01275" xlink:href="#m6ffabe0ec7" y="240.833538"/>
     <use style="fill:#004ba8;fill-opacity:0.5;stroke:#004ba8;stroke-opacity:0.5;stroke-width:5;" x="225.517286" xlink:href="#m6ffabe0ec7" y="241.207461"/>
     <use style="fill:#004ba8;fill-opacity:0.5;stroke:#004ba8;stroke-opacity:0.5;stroke-width:5;" x="226.021821" xlink:href="#m6ffabe0ec7" y="241.581681"/>
     <use style="fill:#004ba8;fill-opacity:0.5;stroke:#004ba8;stroke-opacity:0.5;stroke-width:5;" x="226.526357" xlink:href="#m6ffabe0ec7" y="242.080641"/>
     <use style="fill:#004ba8;fill-opacity:0.5;stroke:#004ba8;stroke-opacity:0.5;stroke-width:5;" x="227.030893" xlink:href="#m6ffabe0ec7" y="242.828784"/>
     <use style="fill:#004ba8;fill-opacity:0.5;stroke:#004ba8;stroke-opacity:0.5;stroke-width:5;" x="227.535429" xlink:href="#m6ffabe0ec7" y="243.577224"/>
     <use style="fill:#004ba8;fill-opacity:0.5;stroke:#004ba8;stroke-opacity:0.5;stroke-width:5;" x="228.039964" xlink:href="#m6ffabe0ec7" y="244.574847"/>
     <use style="fill:#004ba8;fill-opacity:0.5;stroke:#004ba8;stroke-opacity:0.5;stroke-width:5;" x="228.5445" xlink:href="#m6ffabe0ec7" y="245.44773"/>
     <use style="fill:#004ba8;fill-opacity:0.5;stroke:#004ba8;stroke-opacity:0.5;stroke-width:5;" x="229.049036" xlink:href="#m6ffabe0ec7" y="246.944313"/>
     <use style="fill:#004ba8;fill-opacity:0.5;stroke:#004ba8;stroke-opacity:0.5;stroke-width:5;" x="229.553571" xlink:href="#m6ffabe0ec7" y="248.690376"/>
     <use style="fill:#004ba8;fill-opacity:0.5;stroke:#004ba8;stroke-opacity:0.5;stroke-width:5;" x="230.058107" xlink:href="#m6ffabe0ec7" y="249.937479"/>
     <use style="fill:#004ba8;fill-opacity:0.5;stroke:#004ba8;stroke-opacity:0.5;stroke-width:5;" x="230.562643" xlink:href="#m6ffabe0ec7" y="251.434062"/>
     <use style="fill:#004ba8;fill-opacity:0.5;stroke:#004ba8;stroke-opacity:0.5;stroke-width:5;" x="231.067179" xlink:href="#m6ffabe0ec7" y="253.304568"/>
     <use style="fill:#004ba8;fill-opacity:0.5;stroke:#004ba8;stroke-opacity:0.5;stroke-width:5;" x="231.571714" xlink:href="#m6ffabe0ec7" y="253.928268"/>
     <use style="fill:#004ba8;fill-opacity:0.5;stroke:#004ba8;stroke-opacity:0.5;stroke-width:5;" x="232.07625" xlink:href="#m6ffabe0ec7" y="255.549591"/>
     <use style="fill:#004ba8;fill-opacity:0.5;stroke:#004ba8;stroke-opacity:0.5;stroke-width:5;" x="232.580786" xlink:href="#m6ffabe0ec7" y="256.796694"/>
     <use style="fill:#004ba8;fill-opacity:0.5;stroke:#004ba8;stroke-opacity:0.5;stroke-width:5;" x="233.085321" xlink:href="#m6ffabe0ec7" y="258.293277"/>
     <use style="fill:#004ba8;fill-opacity:0.5;stroke:#004ba8;stroke-opacity:0.5;stroke-width:5;" x="233.589857" xlink:href="#m6ffabe0ec7" y="258.91668"/>
     <use style="fill:#004ba8;fill-opacity:0.5;stroke:#004ba8;stroke-opacity:0.5;stroke-width:5;" x="234.094393" xlink:href="#m6ffabe0ec7" y="259.9146"/>
     <use style="fill:#004ba8;fill-opacity:0.5;stroke:#004ba8;stroke-opacity:0.5;stroke-width:5;" x="234.598929" xlink:href="#m6ffabe0ec7" y="260.413263"/>
     <use style="fill:#004ba8;fill-opacity:0.5;stroke:#004ba8;stroke-opacity:0.5;stroke-width:5;" x="235.103464" xlink:href="#m6ffabe0ec7" y="260.912223"/>
     <use style="fill:#004ba8;fill-opacity:0.5;stroke:#004ba8;stroke-opacity:0.5;stroke-width:5;" x="235.608" xlink:href="#m6ffabe0ec7" y="260.912223"/>
    </g>
   </g>
   <g id="line2d_29">
    <g clip-path="url(#p02fe21c259)">
     <use style="fill:#004ba8;fill-opacity:0.5;stroke:#004ba8;stroke-opacity:0.5;stroke-width:5;" x="317.417829" xlink:href="#m6ffabe0ec7" y="315.771598"/>
     <use style="fill:#004ba8;fill-opacity:0.5;stroke:#004ba8;stroke-opacity:0.5;stroke-width:5;" x="318.112521" xlink:href="#m6ffabe0ec7" y="310.266851"/>
     <use style="fill:#004ba8;fill-opacity:0.5;stroke:#004ba8;stroke-opacity:0.5;stroke-width:5;" x="318.807214" xlink:href="#m6ffabe0ec7" y="304.051829"/>
     <use style="fill:#004ba8;fill-opacity:0.5;stroke:#004ba8;stroke-opacity:0.5;stroke-width:5;" x="319.501907" xlink:href="#m6ffabe0ec7" y="298.19193"/>
     <use style="fill:#004ba8;fill-opacity:0.5;stroke:#004ba8;stroke-opacity:0.5;stroke-width:5;" x="320.1966" xlink:href="#m6ffabe0ec7" y="293.219883"/>
     <use style="fill:#004ba8;fill-opacity:0.5;stroke:#004ba8;stroke-opacity:0.5;stroke-width:5;" x="320.891293" xlink:href="#m6ffabe0ec7" y="289.313293"/>
     <use style="fill:#004ba8;fill-opacity:0.5;stroke:#004ba8;stroke-opacity:0.5;stroke-width:5;" x="321.585986" xlink:href="#m6ffabe0ec7" y="285.229128"/>
     <use style="fill:#004ba8;fill-opacity:0.5;stroke:#004ba8;stroke-opacity:0.5;stroke-width:5;" x="322.280679" xlink:href="#m6ffabe0ec7" y="281.500085"/>
     <use style="fill:#004ba8;fill-opacity:0.5;stroke:#004ba8;stroke-opacity:0.5;stroke-width:5;" x="322.975371" xlink:href="#m6ffabe0ec7" y="278.658923"/>
     <use style="fill:#004ba8;fill-opacity:0.5;stroke:#004ba8;stroke-opacity:0.5;stroke-width:5;" x="323.670064" xlink:href="#m6ffabe0ec7" y="276.528186"/>
     <use style="fill:#004ba8;fill-opacity:0.5;stroke:#004ba8;stroke-opacity:0.5;stroke-width:5;" x="324.364757" xlink:href="#m6ffabe0ec7" y="274.930029"/>
     <use style="fill:#004ba8;fill-opacity:0.5;stroke:#004ba8;stroke-opacity:0.5;stroke-width:5;" x="325.05945" xlink:href="#m6ffabe0ec7" y="273.509181"/>
     <use style="fill:#004ba8;fill-opacity:0.5;stroke:#004ba8;stroke-opacity:0.5;stroke-width:5;" x="325.754143" xlink:href="#m6ffabe0ec7" y="272.97666"/>
     <use style="fill:#004ba8;fill-opacity:0.5;stroke:#004ba8;stroke-opacity:0.5;stroke-width:5;" x="326.448836" xlink:href="#m6ffabe0ec7" y="272.799054"/>
     <use style="fill:#004ba8;fill-opacity:0.5;stroke:#004ba8;stroke-opacity:0.5;stroke-width:5;" x="327.143529" xlink:href="#m6ffabe0ec7" y="272.799054"/>
     <use style="fill:#004ba8;fill-opacity:0.5;stroke:#004ba8;stroke-opacity:0.5;stroke-width:5;" x="327.838221" xlink:href="#m6ffabe0ec7" y="273.509181"/>
     <use style="fill:#004ba8;fill-opacity:0.5;stroke:#004ba8;stroke-opacity:0.5;stroke-width:5;" x="328.532914" xlink:href="#m6ffabe0ec7" y="274.574817"/>
     <use style="fill:#004ba8;fill-opacity:0.5;stroke:#004ba8;stroke-opacity:0.5;stroke-width:5;" x="329.227607" xlink:href="#m6ffabe0ec7" y="276.172974"/>
     <use style="fill:#004ba8;fill-opacity:0.5;stroke:#004ba8;stroke-opacity:0.5;stroke-width:5;" x="329.9223" xlink:href="#m6ffabe0ec7" y="278.481347"/>
     <use style="fill:#004ba8;fill-opacity:0.5;stroke:#004ba8;stroke-opacity:0.5;stroke-width:5;" x="330.616993" xlink:href="#m6ffabe0ec7" y="281.500085"/>
     <use style="fill:#004ba8;fill-opacity:0.5;stroke:#004ba8;stroke-opacity:0.5;stroke-width:5;" x="331.311686" xlink:href="#m6ffabe0ec7" y="284.518823"/>
     <use style="fill:#004ba8;fill-opacity:0.5;stroke:#004ba8;stroke-opacity:0.5;stroke-width:5;" x="332.006379" xlink:href="#m6ffabe0ec7" y="287.715136"/>
     <use style="fill:#004ba8;fill-opacity:0.5;stroke:#004ba8;stroke-opacity:0.5;stroke-width:5;" x="332.701071" xlink:href="#m6ffabe0ec7" y="291.621726"/>
     <use style="fill:#004ba8;fill-opacity:0.5;stroke:#004ba8;stroke-opacity:0.5;stroke-width:5;" x="333.395764" xlink:href="#m6ffabe0ec7" y="295.705892"/>
    </g>
   </g>
   <g id="line2d_30">
    <g clip-path="url(#p02fe21c259)">
     <use style="fill:#004ba8;fill-opacity:0.5;stroke:#004ba8;stroke-opacity:0.5;stroke-width:5;" x="422.282571" xlink:href="#m6ffabe0ec7" y="296.829176"/>
     <use style="fill:#004ba8;fill-opacity:0.5;stroke:#004ba8;stroke-opacity:0.5;stroke-width:5;" x="422.913995" xlink:href="#m6ffabe0ec7" y="292.539248"/>
     <use style="fill:#004ba8;fill-opacity:0.5;stroke:#004ba8;stroke-opacity:0.5;stroke-width:5;" x="423.545433" xlink:href="#m6ffabe0ec7" y="288.023571"/>
     <use style="fill:#004ba8;fill-opacity:0.5;stroke:#004ba8;stroke-opacity:0.5;stroke-width:5;" x="424.176857" xlink:href="#m6ffabe0ec7" y="284.636791"/>
     <use style="fill:#004ba8;fill-opacity:0.5;stroke:#004ba8;stroke-opacity:0.5;stroke-width:5;" x="424.808281" xlink:href="#m6ffabe0ec7" y="281.701599"/>
     <use style="fill:#004ba8;fill-opacity:0.5;stroke:#004ba8;stroke-opacity:0.5;stroke-width:5;" x="425.439719" xlink:href="#m6ffabe0ec7" y="279.669525"/>
     <use style="fill:#004ba8;fill-opacity:0.5;stroke:#004ba8;stroke-opacity:0.5;stroke-width:5;" x="426.071143" xlink:href="#m6ffabe0ec7" y="277.637451"/>
     <use style="fill:#004ba8;fill-opacity:0.5;stroke:#004ba8;stroke-opacity:0.5;stroke-width:5;" x="426.702567" xlink:href="#m6ffabe0ec7" y="276.056847"/>
     <use style="fill:#004ba8;fill-opacity:0.5;stroke:#004ba8;stroke-opacity:0.5;stroke-width:5;" x="427.334005" xlink:href="#m6ffabe0ec7" y="274.47651"/>
     <use style="fill:#004ba8;fill-opacity:0.5;stroke:#004ba8;stroke-opacity:0.5;stroke-width:5;" x="427.965429" xlink:href="#m6ffabe0ec7" y="274.024773"/>
     <use style="fill:#004ba8;fill-opacity:0.5;stroke:#004ba8;stroke-opacity:0.5;stroke-width:5;" x="428.596852" xlink:href="#m6ffabe0ec7" y="273.347613"/>
     <use style="fill:#004ba8;fill-opacity:0.5;stroke:#004ba8;stroke-opacity:0.5;stroke-width:5;" x="429.228291" xlink:href="#m6ffabe0ec7" y="273.573333"/>
     <use style="fill:#004ba8;fill-opacity:0.5;stroke:#004ba8;stroke-opacity:0.5;stroke-width:5;" x="429.859714" xlink:href="#m6ffabe0ec7" y="273.573333"/>
     <use style="fill:#004ba8;fill-opacity:0.5;stroke:#004ba8;stroke-opacity:0.5;stroke-width:5;" x="430.491138" xlink:href="#m6ffabe0ec7" y="274.25079"/>
     <use style="fill:#004ba8;fill-opacity:0.5;stroke:#004ba8;stroke-opacity:0.5;stroke-width:5;" x="431.122576" xlink:href="#m6ffabe0ec7" y="275.379687"/>
     <use style="fill:#004ba8;fill-opacity:0.5;stroke:#004ba8;stroke-opacity:0.5;stroke-width:5;" x="431.754" xlink:href="#m6ffabe0ec7" y="277.186041"/>
     <use style="fill:#004ba8;fill-opacity:0.5;stroke:#004ba8;stroke-opacity:0.5;stroke-width:5;" x="432.385424" xlink:href="#m6ffabe0ec7" y="277.86326"/>
     <use style="fill:#004ba8;fill-opacity:0.5;stroke:#004ba8;stroke-opacity:0.5;stroke-width:5;" x="433.016862" xlink:href="#m6ffabe0ec7" y="281.250011"/>
     <use style="fill:#004ba8;fill-opacity:0.5;stroke:#004ba8;stroke-opacity:0.5;stroke-width:5;" x="433.648286" xlink:href="#m6ffabe0ec7" y="284.185232"/>
     <use style="fill:#004ba8;fill-opacity:0.5;stroke:#004ba8;stroke-opacity:0.5;stroke-width:5;" x="434.279709" xlink:href="#m6ffabe0ec7" y="287.346203"/>
     <use style="fill:#004ba8;fill-opacity:0.5;stroke:#004ba8;stroke-opacity:0.5;stroke-width:5;" x="434.911148" xlink:href="#m6ffabe0ec7" y="290.281424"/>
     <use style="fill:#004ba8;fill-opacity:0.5;stroke:#004ba8;stroke-opacity:0.5;stroke-width:5;" x="435.542571" xlink:href="#m6ffabe0ec7" y="295.022881"/>
    </g>
   </g>
   <g id="line2d_31">
    <g clip-path="url(#p02fe21c259)">
     <use style="fill:#004ba8;fill-opacity:0.5;stroke:#004ba8;stroke-opacity:0.5;stroke-width:5;" x="521.300237" xlink:href="#m6ffabe0ec7" y="264.839157"/>
     <use style="fill:#004ba8;fill-opacity:0.5;stroke:#004ba8;stroke-opacity:0.5;stroke-width:5;" x="522.1872" xlink:href="#m6ffabe0ec7" y="262.384155"/>
     <use style="fill:#004ba8;fill-opacity:0.5;stroke:#004ba8;stroke-opacity:0.5;stroke-width:5;" x="523.074163" xlink:href="#m6ffabe0ec7" y="260.747685"/>
     <use style="fill:#004ba8;fill-opacity:0.5;stroke:#004ba8;stroke-opacity:0.5;stroke-width:5;" x="523.96098" xlink:href="#m6ffabe0ec7" y="258.020037"/>
     <use style="fill:#004ba8;fill-opacity:0.5;stroke:#004ba8;stroke-opacity:0.5;stroke-width:5;" x="524.847943" xlink:href="#m6ffabe0ec7" y="254.201211"/>
     <use style="fill:#004ba8;fill-opacity:0.5;stroke:#004ba8;stroke-opacity:0.5;stroke-width:5;" x="525.734906" xlink:href="#m6ffabe0ec7" y="251.746506"/>
     <use style="fill:#004ba8;fill-opacity:0.5;stroke:#004ba8;stroke-opacity:0.5;stroke-width:5;" x="526.621723" xlink:href="#m6ffabe0ec7" y="249.56415"/>
     <use style="fill:#004ba8;fill-opacity:0.5;stroke:#004ba8;stroke-opacity:0.5;stroke-width:5;" x="527.508686" xlink:href="#m6ffabe0ec7" y="247.92768"/>
     <use style="fill:#004ba8;fill-opacity:0.5;stroke:#004ba8;stroke-opacity:0.5;stroke-width:5;" x="528.395649" xlink:href="#m6ffabe0ec7" y="245.745621"/>
     <use style="fill:#004ba8;fill-opacity:0.5;stroke:#004ba8;stroke-opacity:0.5;stroke-width:5;" x="529.282466" xlink:href="#m6ffabe0ec7" y="244.108854"/>
     <use style="fill:#004ba8;fill-opacity:0.5;stroke:#004ba8;stroke-opacity:0.5;stroke-width:5;" x="530.169429" xlink:href="#m6ffabe0ec7" y="243.563562"/>
     <use style="fill:#004ba8;fill-opacity:0.5;stroke:#004ba8;stroke-opacity:0.5;stroke-width:5;" x="531.056391" xlink:href="#m6ffabe0ec7" y="243.290619"/>
     <use style="fill:#004ba8;fill-opacity:0.5;stroke:#004ba8;stroke-opacity:0.5;stroke-width:5;" x="531.943209" xlink:href="#m6ffabe0ec7" y="243.836208"/>
     <use style="fill:#004ba8;fill-opacity:0.5;stroke:#004ba8;stroke-opacity:0.5;stroke-width:5;" x="532.830171" xlink:href="#m6ffabe0ec7" y="244.927386"/>
     <use style="fill:#004ba8;fill-opacity:0.5;stroke:#004ba8;stroke-opacity:0.5;stroke-width:5;" x="533.717134" xlink:href="#m6ffabe0ec7" y="246.836502"/>
     <use style="fill:#004ba8;fill-opacity:0.5;stroke:#004ba8;stroke-opacity:0.5;stroke-width:5;" x="534.603951" xlink:href="#m6ffabe0ec7" y="249.837093"/>
     <use style="fill:#004ba8;fill-opacity:0.5;stroke:#004ba8;stroke-opacity:0.5;stroke-width:5;" x="535.490914" xlink:href="#m6ffabe0ec7" y="252.564741"/>
     <use style="fill:#004ba8;fill-opacity:0.5;stroke:#004ba8;stroke-opacity:0.5;stroke-width:5;" x="536.377877" xlink:href="#m6ffabe0ec7" y="256.110624"/>
     <use style="fill:#004ba8;fill-opacity:0.5;stroke:#004ba8;stroke-opacity:0.5;stroke-width:5;" x="537.264694" xlink:href="#m6ffabe0ec7" y="260.747685"/>
     <use style="fill:#004ba8;fill-opacity:0.5;stroke:#004ba8;stroke-opacity:0.5;stroke-width:5;" x="538.151657" xlink:href="#m6ffabe0ec7" y="265.657392"/>
     <use style="fill:#004ba8;fill-opacity:0.5;stroke:#004ba8;stroke-opacity:0.5;stroke-width:5;" x="539.03862" xlink:href="#m6ffabe0ec7" y="271.385334"/>
    </g>
   </g>
   <g id="line2d_32">
    <g clip-path="url(#p02fe21c259)">
     <use style="fill:#004ba8;fill-opacity:0.5;stroke:#004ba8;stroke-opacity:0.5;stroke-width:5;" x="636.021677" xlink:href="#m6ffabe0ec7" y="168.655707"/>
     <use style="fill:#004ba8;fill-opacity:0.5;stroke:#004ba8;stroke-opacity:0.5;stroke-width:5;" x="636.962409" xlink:href="#m6ffabe0ec7" y="170.044479"/>
     <use style="fill:#004ba8;fill-opacity:0.5;stroke:#004ba8;stroke-opacity:0.5;stroke-width:5;" x="637.903286" xlink:href="#m6ffabe0ec7" y="172.12734"/>
     <use style="fill:#004ba8;fill-opacity:0.5;stroke:#004ba8;stroke-opacity:0.5;stroke-width:5;" x="638.844163" xlink:href="#m6ffabe0ec7" y="174.557394"/>
     <use style="fill:#004ba8;fill-opacity:0.5;stroke:#004ba8;stroke-opacity:0.5;stroke-width:5;" x="639.784894" xlink:href="#m6ffabe0ec7" y="178.723413"/>
     <use style="fill:#004ba8;fill-opacity:0.5;stroke:#004ba8;stroke-opacity:0.5;stroke-width:5;" x="640.725771" xlink:href="#m6ffabe0ec7" y="183.236328"/>
     <use style="fill:#004ba8;fill-opacity:0.5;stroke:#004ba8;stroke-opacity:0.5;stroke-width:5;" x="641.666649" xlink:href="#m6ffabe0ec7" y="188.096436"/>
     <use style="fill:#004ba8;fill-opacity:0.5;stroke:#004ba8;stroke-opacity:0.5;stroke-width:5;" x="642.60738" xlink:href="#m6ffabe0ec7" y="193.303737"/>
     <use style="fill:#004ba8;fill-opacity:0.5;stroke:#004ba8;stroke-opacity:0.5;stroke-width:5;" x="643.548257" xlink:href="#m6ffabe0ec7" y="198.858231"/>
    </g>
   </g>
   <g id="line2d_33">
    <defs>
     <path d="M 0 1.5 
C 0.397805 1.5 0.77937 1.341951 1.06066 1.06066 
C 1.341951 0.77937 1.5 0.397805 1.5 0 
C 1.5 -0.397805 1.341951 -0.77937 1.06066 -1.06066 
C 0.77937 -1.341951 0.397805 -1.5 0 -1.5 
C -0.397805 -1.5 -0.77937 -1.341951 -1.06066 -1.06066 
C -1.341951 -0.77937 -1.5 -0.397805 -1.5 0 
C -1.5 0.397805 -1.341951 0.77937 -1.06066 1.06066 
C -0.77937 1.341951 -0.397805 1.5 0 1.5 
z
" id="med1f3718b0" style="stroke:#990000;stroke-opacity:0.5;stroke-width:5;"/>
    </defs>
    <g clip-path="url(#p02fe21c259)">
     <use style="fill:#990000;fill-opacity:0.5;stroke:#990000;stroke-opacity:0.5;stroke-width:5;" x="113.434149" xlink:href="#med1f3718b0" y="107.660223"/>
     <use style="fill:#990000;fill-opacity:0.5;stroke:#990000;stroke-opacity:0.5;stroke-width:5;" x="114.163594" xlink:href="#med1f3718b0" y="103.307094"/>
     <use style="fill:#990000;fill-opacity:0.5;stroke:#990000;stroke-opacity:0.5;stroke-width:5;" x="114.893186" xlink:href="#med1f3718b0" y="100.65726"/>
     <use style="fill:#990000;fill-opacity:0.5;stroke:#990000;stroke-opacity:0.5;stroke-width:5;" x="115.622631" xlink:href="#med1f3718b0" y="98.196615"/>
     <use style="fill:#990000;fill-opacity:0.5;stroke:#990000;stroke-opacity:0.5;stroke-width:5;" x="116.352077" xlink:href="#med1f3718b0" y="96.304131"/>
     <use style="fill:#990000;fill-opacity:0.5;stroke:#990000;stroke-opacity:0.5;stroke-width:5;" x="117.081669" xlink:href="#med1f3718b0" y="94.032675"/>
     <use style="fill:#990000;fill-opacity:0.5;stroke:#990000;stroke-opacity:0.5;stroke-width:5;" x="117.811114" xlink:href="#med1f3718b0" y="92.518569"/>
     <use style="fill:#990000;fill-opacity:0.5;stroke:#990000;stroke-opacity:0.5;stroke-width:5;" x="118.540706" xlink:href="#med1f3718b0" y="91.761516"/>
     <use style="fill:#990000;fill-opacity:0.5;stroke:#990000;stroke-opacity:0.5;stroke-width:5;" x="119.270151" xlink:href="#med1f3718b0" y="93.275622"/>
     <use style="fill:#990000;fill-opacity:0.5;stroke:#990000;stroke-opacity:0.5;stroke-width:5;" x="119.999743" xlink:href="#med1f3718b0" y="94.222161"/>
     <use style="fill:#990000;fill-opacity:0.5;stroke:#990000;stroke-opacity:0.5;stroke-width:5;" x="120.729189" xlink:href="#med1f3718b0" y="95.357592"/>
     <use style="fill:#990000;fill-opacity:0.5;stroke:#990000;stroke-opacity:0.5;stroke-width:5;" x="121.45878" xlink:href="#med1f3718b0" y="95.925456"/>
     <use style="fill:#990000;fill-opacity:0.5;stroke:#990000;stroke-opacity:0.5;stroke-width:5;" x="122.188226" xlink:href="#med1f3718b0" y="97.061184"/>
     <use style="fill:#990000;fill-opacity:0.5;stroke:#990000;stroke-opacity:0.5;stroke-width:5;" x="122.917671" xlink:href="#med1f3718b0" y="100.089396"/>
     <use style="fill:#990000;fill-opacity:0.5;stroke:#990000;stroke-opacity:0.5;stroke-width:5;" x="123.647263" xlink:href="#med1f3718b0" y="101.225124"/>
     <use style="fill:#990000;fill-opacity:0.5;stroke:#990000;stroke-opacity:0.5;stroke-width:5;" x="124.376709" xlink:href="#med1f3718b0" y="103.307094"/>
     <use style="fill:#990000;fill-opacity:0.5;stroke:#990000;stroke-opacity:0.5;stroke-width:5;" x="125.1063" xlink:href="#med1f3718b0" y="108.038898"/>
     <use style="fill:#990000;fill-opacity:0.5;stroke:#990000;stroke-opacity:0.5;stroke-width:5;" x="125.835746" xlink:href="#med1f3718b0" y="114.095322"/>
     <use style="fill:#990000;fill-opacity:0.5;stroke:#990000;stroke-opacity:0.5;stroke-width:5;" x="126.565337" xlink:href="#med1f3718b0" y="118.827126"/>
     <use style="fill:#990000;fill-opacity:0.5;stroke:#990000;stroke-opacity:0.5;stroke-width:5;" x="127.294783" xlink:href="#med1f3718b0" y="125.073036"/>
     <use style="fill:#990000;fill-opacity:0.5;stroke:#990000;stroke-opacity:0.5;stroke-width:5;" x="128.024374" xlink:href="#med1f3718b0" y="129.994029"/>
     <use style="fill:#990000;fill-opacity:0.5;stroke:#990000;stroke-opacity:0.5;stroke-width:5;" x="128.75382" xlink:href="#med1f3718b0" y="133.96878"/>
     <use style="fill:#990000;fill-opacity:0.5;stroke:#990000;stroke-opacity:0.5;stroke-width:5;" x="129.483411" xlink:href="#med1f3718b0" y="136.996992"/>
     <use style="fill:#990000;fill-opacity:0.5;stroke:#990000;stroke-opacity:0.5;stroke-width:5;" x="130.212857" xlink:href="#med1f3718b0" y="140.593365"/>
    </g>
   </g>
   <g id="line2d_34">
    <g clip-path="url(#p02fe21c259)">
     <use style="fill:#990000;fill-opacity:0.5;stroke:#990000;stroke-opacity:0.5;stroke-width:5;" x="215.863714" xlink:href="#med1f3718b0" y="80.551845"/>
     <use style="fill:#990000;fill-opacity:0.5;stroke:#990000;stroke-opacity:0.5;stroke-width:5;" x="216.595011" xlink:href="#med1f3718b0" y="78.032394"/>
     <use style="fill:#990000;fill-opacity:0.5;stroke:#990000;stroke-opacity:0.5;stroke-width:5;" x="217.326321" xlink:href="#med1f3718b0" y="75.269106"/>
     <use style="fill:#990000;fill-opacity:0.5;stroke:#990000;stroke-opacity:0.5;stroke-width:5;" x="218.057618" xlink:href="#med1f3718b0" y="74.212677"/>
     <use style="fill:#990000;fill-opacity:0.5;stroke:#990000;stroke-opacity:0.5;stroke-width:5;" x="218.788929" xlink:href="#med1f3718b0" y="72.668574"/>
     <use style="fill:#990000;fill-opacity:0.5;stroke:#990000;stroke-opacity:0.5;stroke-width:5;" x="219.520239" xlink:href="#med1f3718b0" y="71.612145"/>
     <use style="fill:#990000;fill-opacity:0.5;stroke:#990000;stroke-opacity:0.5;stroke-width:5;" x="220.251536" xlink:href="#med1f3718b0" y="70.230501"/>
     <use style="fill:#990000;fill-opacity:0.5;stroke:#990000;stroke-opacity:0.5;stroke-width:5;" x="220.982847" xlink:href="#med1f3718b0" y="69.986664"/>
     <use style="fill:#990000;fill-opacity:0.5;stroke:#990000;stroke-opacity:0.5;stroke-width:5;" x="221.714143" xlink:href="#med1f3718b0" y="71.043093"/>
     <use style="fill:#990000;fill-opacity:0.5;stroke:#990000;stroke-opacity:0.5;stroke-width:5;" x="222.445439" xlink:href="#med1f3718b0" y="71.449389"/>
     <use style="fill:#990000;fill-opacity:0.5;stroke:#990000;stroke-opacity:0.5;stroke-width:5;" x="223.17675" xlink:href="#med1f3718b0" y="71.449389"/>
     <use style="fill:#990000;fill-opacity:0.5;stroke:#990000;stroke-opacity:0.5;stroke-width:5;" x="223.908046" xlink:href="#med1f3718b0" y="73.156248"/>
     <use style="fill:#990000;fill-opacity:0.5;stroke:#990000;stroke-opacity:0.5;stroke-width:5;" x="224.639357" xlink:href="#med1f3718b0" y="73.96884"/>
     <use style="fill:#990000;fill-opacity:0.5;stroke:#990000;stroke-opacity:0.5;stroke-width:5;" x="225.370668" xlink:href="#med1f3718b0" y="75.838158"/>
     <use style="fill:#990000;fill-opacity:0.5;stroke:#990000;stroke-opacity:0.5;stroke-width:5;" x="226.101964" xlink:href="#med1f3718b0" y="79.414038"/>
     <use style="fill:#990000;fill-opacity:0.5;stroke:#990000;stroke-opacity:0.5;stroke-width:5;" x="226.833275" xlink:href="#med1f3718b0" y="81.608274"/>
     <use style="fill:#990000;fill-opacity:0.5;stroke:#990000;stroke-opacity:0.5;stroke-width:5;" x="227.564571" xlink:href="#med1f3718b0" y="85.021695"/>
    </g>
   </g>
   <g id="line2d_35">
    <g clip-path="url(#p02fe21c259)">
     <use style="fill:#990000;fill-opacity:0.5;stroke:#990000;stroke-opacity:0.5;stroke-width:5;" x="317.543143" xlink:href="#med1f3718b0" y="75.847365"/>
     <use style="fill:#990000;fill-opacity:0.5;stroke:#990000;stroke-opacity:0.5;stroke-width:5;" x="318.274483" xlink:href="#med1f3718b0" y="73.790046"/>
     <use style="fill:#990000;fill-opacity:0.5;stroke:#990000;stroke-opacity:0.5;stroke-width:5;" x="319.005837" xlink:href="#med1f3718b0" y="71.191593"/>
     <use style="fill:#990000;fill-opacity:0.5;stroke:#990000;stroke-opacity:0.5;stroke-width:5;" x="319.737177" xlink:href="#med1f3718b0" y="69.026166"/>
     <use style="fill:#990000;fill-opacity:0.5;stroke:#990000;stroke-opacity:0.5;stroke-width:5;" x="320.468532" xlink:href="#med1f3718b0" y="67.293765"/>
     <use style="fill:#990000;fill-opacity:0.5;stroke:#990000;stroke-opacity:0.5;stroke-width:5;" x="321.199872" xlink:href="#med1f3718b0" y="65.778174"/>
     <use style="fill:#990000;fill-opacity:0.5;stroke:#990000;stroke-opacity:0.5;stroke-width:5;" x="321.931227" xlink:href="#med1f3718b0" y="64.154178"/>
     <use style="fill:#990000;fill-opacity:0.5;stroke:#990000;stroke-opacity:0.5;stroke-width:5;" x="322.662567" xlink:href="#med1f3718b0" y="62.854803"/>
     <use style="fill:#990000;fill-opacity:0.5;stroke:#990000;stroke-opacity:0.5;stroke-width:5;" x="323.393921" xlink:href="#med1f3718b0" y="62.205264"/>
     <use style="fill:#990000;fill-opacity:0.5;stroke:#990000;stroke-opacity:0.5;stroke-width:5;" x="324.125261" xlink:href="#med1f3718b0" y="62.205264"/>
     <use style="fill:#990000;fill-opacity:0.5;stroke:#990000;stroke-opacity:0.5;stroke-width:5;" x="324.856616" xlink:href="#med1f3718b0" y="62.205264"/>
     <use style="fill:#990000;fill-opacity:0.5;stroke:#990000;stroke-opacity:0.5;stroke-width:5;" x="325.587956" xlink:href="#med1f3718b0" y="61.880346"/>
     <use style="fill:#990000;fill-opacity:0.5;stroke:#990000;stroke-opacity:0.5;stroke-width:5;" x="326.31931" xlink:href="#med1f3718b0" y="62.313372"/>
     <use style="fill:#990000;fill-opacity:0.5;stroke:#990000;stroke-opacity:0.5;stroke-width:5;" x="327.05065" xlink:href="#med1f3718b0" y="63.287829"/>
     <use style="fill:#990000;fill-opacity:0.5;stroke:#990000;stroke-opacity:0.5;stroke-width:5;" x="327.782005" xlink:href="#med1f3718b0" y="63.82926"/>
     <use style="fill:#990000;fill-opacity:0.5;stroke:#990000;stroke-opacity:0.5;stroke-width:5;" x="328.513345" xlink:href="#med1f3718b0" y="65.345148"/>
     <use style="fill:#990000;fill-opacity:0.5;stroke:#990000;stroke-opacity:0.5;stroke-width:5;" x="329.244699" xlink:href="#med1f3718b0" y="66.536118"/>
     <use style="fill:#990000;fill-opacity:0.5;stroke:#990000;stroke-opacity:0.5;stroke-width:5;" x="329.976039" xlink:href="#med1f3718b0" y="67.943601"/>
     <use style="fill:#990000;fill-opacity:0.5;stroke:#990000;stroke-opacity:0.5;stroke-width:5;" x="330.707394" xlink:href="#med1f3718b0" y="70.542054"/>
     <use style="fill:#990000;fill-opacity:0.5;stroke:#990000;stroke-opacity:0.5;stroke-width:5;" x="331.438734" xlink:href="#med1f3718b0" y="73.790046"/>
     <use style="fill:#990000;fill-opacity:0.5;stroke:#990000;stroke-opacity:0.5;stroke-width:5;" x="332.170089" xlink:href="#med1f3718b0" y="76.605012"/>
     <use style="fill:#990000;fill-opacity:0.5;stroke:#990000;stroke-opacity:0.5;stroke-width:5;" x="332.901429" xlink:href="#med1f3718b0" y="79.853301"/>
    </g>
   </g>
   <g id="line2d_36">
    <g clip-path="url(#p02fe21c259)">
     <use style="fill:#990000;fill-opacity:0.5;stroke:#990000;stroke-opacity:0.5;stroke-width:5;" x="425.415429" xlink:href="#med1f3718b0" y="67.869054"/>
     <use style="fill:#990000;fill-opacity:0.5;stroke:#990000;stroke-opacity:0.5;stroke-width:5;" x="425.660709" xlink:href="#med1f3718b0" y="66.984588"/>
     <use style="fill:#990000;fill-opacity:0.5;stroke:#990000;stroke-opacity:0.5;stroke-width:5;" x="425.906005" xlink:href="#med1f3718b0" y="66.149127"/>
     <use style="fill:#990000;fill-opacity:0.5;stroke:#990000;stroke-opacity:0.5;stroke-width:5;" x="426.151286" xlink:href="#med1f3718b0" y="65.559285"/>
     <use style="fill:#990000;fill-opacity:0.5;stroke:#990000;stroke-opacity:0.5;stroke-width:5;" x="426.396567" xlink:href="#med1f3718b0" y="65.117052"/>
     <use style="fill:#990000;fill-opacity:0.5;stroke:#990000;stroke-opacity:0.5;stroke-width:5;" x="426.641862" xlink:href="#med1f3718b0" y="64.773126"/>
     <use style="fill:#990000;fill-opacity:0.5;stroke:#990000;stroke-opacity:0.5;stroke-width:5;" x="426.887143" xlink:href="#med1f3718b0" y="64.281888"/>
     <use style="fill:#990000;fill-opacity:0.5;stroke:#990000;stroke-opacity:0.5;stroke-width:5;" x="427.132424" xlink:href="#med1f3718b0" y="63.790353"/>
     <use style="fill:#990000;fill-opacity:0.5;stroke:#990000;stroke-opacity:0.5;stroke-width:5;" x="427.377719" xlink:href="#med1f3718b0" y="63.34812"/>
     <use style="fill:#990000;fill-opacity:0.5;stroke:#990000;stroke-opacity:0.5;stroke-width:5;" x="427.623" xlink:href="#med1f3718b0" y="63.102501"/>
     <use style="fill:#990000;fill-opacity:0.5;stroke:#990000;stroke-opacity:0.5;stroke-width:5;" x="427.868281" xlink:href="#med1f3718b0" y="62.905887"/>
     <use style="fill:#990000;fill-opacity:0.5;stroke:#990000;stroke-opacity:0.5;stroke-width:5;" x="428.113576" xlink:href="#med1f3718b0" y="62.660268"/>
     <use style="fill:#990000;fill-opacity:0.5;stroke:#990000;stroke-opacity:0.5;stroke-width:5;" x="428.358857" xlink:href="#med1f3718b0" y="62.365347"/>
     <use style="fill:#990000;fill-opacity:0.5;stroke:#990000;stroke-opacity:0.5;stroke-width:5;" x="428.604138" xlink:href="#med1f3718b0" y="62.168733"/>
     <use style="fill:#990000;fill-opacity:0.5;stroke:#990000;stroke-opacity:0.5;stroke-width:5;" x="428.849433" xlink:href="#med1f3718b0" y="62.021421"/>
     <use style="fill:#990000;fill-opacity:0.5;stroke:#990000;stroke-opacity:0.5;stroke-width:5;" x="429.094714" xlink:href="#med1f3718b0" y="61.7265"/>
     <use style="fill:#990000;fill-opacity:0.5;stroke:#990000;stroke-opacity:0.5;stroke-width:5;" x="429.339995" xlink:href="#med1f3718b0" y="61.677495"/>
     <use style="fill:#990000;fill-opacity:0.5;stroke:#990000;stroke-opacity:0.5;stroke-width:5;" x="429.585291" xlink:href="#med1f3718b0" y="61.677495"/>
     <use style="fill:#990000;fill-opacity:0.5;stroke:#990000;stroke-opacity:0.5;stroke-width:5;" x="429.830571" xlink:href="#med1f3718b0" y="61.677495"/>
     <use style="fill:#990000;fill-opacity:0.5;stroke:#990000;stroke-opacity:0.5;stroke-width:5;" x="430.075852" xlink:href="#med1f3718b0" y="61.824807"/>
     <use style="fill:#990000;fill-opacity:0.5;stroke:#990000;stroke-opacity:0.5;stroke-width:5;" x="430.321148" xlink:href="#med1f3718b0" y="61.775505"/>
     <use style="fill:#990000;fill-opacity:0.5;stroke:#990000;stroke-opacity:0.5;stroke-width:5;" x="430.566429" xlink:href="#med1f3718b0" y="61.677495"/>
     <use style="fill:#990000;fill-opacity:0.5;stroke:#990000;stroke-opacity:0.5;stroke-width:5;" x="430.811709" xlink:href="#med1f3718b0" y="61.824807"/>
     <use style="fill:#990000;fill-opacity:0.5;stroke:#990000;stroke-opacity:0.5;stroke-width:5;" x="431.057005" xlink:href="#med1f3718b0" y="61.677495"/>
     <use style="fill:#990000;fill-opacity:0.5;stroke:#990000;stroke-opacity:0.5;stroke-width:5;" x="431.302286" xlink:href="#med1f3718b0" y="62.021421"/>
     <use style="fill:#990000;fill-opacity:0.5;stroke:#990000;stroke-opacity:0.5;stroke-width:5;" x="431.547567" xlink:href="#med1f3718b0" y="62.021421"/>
     <use style="fill:#990000;fill-opacity:0.5;stroke:#990000;stroke-opacity:0.5;stroke-width:5;" x="431.792862" xlink:href="#med1f3718b0" y="62.218035"/>
     <use style="fill:#990000;fill-opacity:0.5;stroke:#990000;stroke-opacity:0.5;stroke-width:5;" x="432.038143" xlink:href="#med1f3718b0" y="62.561961"/>
     <use style="fill:#990000;fill-opacity:0.5;stroke:#990000;stroke-opacity:0.5;stroke-width:5;" x="432.283424" xlink:href="#med1f3718b0" y="63.053199"/>
     <use style="fill:#990000;fill-opacity:0.5;stroke:#990000;stroke-opacity:0.5;stroke-width:5;" x="432.528719" xlink:href="#med1f3718b0" y="63.299115"/>
     <use style="fill:#990000;fill-opacity:0.5;stroke:#990000;stroke-opacity:0.5;stroke-width:5;" x="432.774" xlink:href="#med1f3718b0" y="64.035972"/>
    </g>
   </g>
   <g id="line2d_37">
    <g clip-path="url(#p02fe21c259)">
     <use style="fill:#990000;fill-opacity:0.5;stroke:#990000;stroke-opacity:0.5;stroke-width:5;" x="525.666857" xlink:href="#med1f3718b0" y="87.904674"/>
     <use style="fill:#990000;fill-opacity:0.5;stroke:#990000;stroke-opacity:0.5;stroke-width:5;" x="526.131686" xlink:href="#med1f3718b0" y="86.055255"/>
     <use style="fill:#990000;fill-opacity:0.5;stroke:#990000;stroke-opacity:0.5;stroke-width:5;" x="526.596514" xlink:href="#med1f3718b0" y="85.027932"/>
     <use style="fill:#990000;fill-opacity:0.5;stroke:#990000;stroke-opacity:0.5;stroke-width:5;" x="527.061343" xlink:href="#med1f3718b0" y="84.000609"/>
     <use style="fill:#990000;fill-opacity:0.5;stroke:#990000;stroke-opacity:0.5;stroke-width:5;" x="527.526171" xlink:href="#med1f3718b0" y="81.945963"/>
     <use style="fill:#990000;fill-opacity:0.5;stroke:#990000;stroke-opacity:0.5;stroke-width:5;" x="527.991" xlink:href="#med1f3718b0" y="80.713116"/>
     <use style="fill:#990000;fill-opacity:0.5;stroke:#990000;stroke-opacity:0.5;stroke-width:5;" x="528.455829" xlink:href="#med1f3718b0" y="79.069518"/>
     <use style="fill:#990000;fill-opacity:0.5;stroke:#990000;stroke-opacity:0.5;stroke-width:5;" x="528.920657" xlink:href="#med1f3718b0" y="77.631147"/>
     <use style="fill:#990000;fill-opacity:0.5;stroke:#990000;stroke-opacity:0.5;stroke-width:5;" x="529.385486" xlink:href="#med1f3718b0" y="78.452946"/>
     <use style="fill:#990000;fill-opacity:0.5;stroke:#990000;stroke-opacity:0.5;stroke-width:5;" x="529.850314" xlink:href="#med1f3718b0" y="76.3983"/>
     <use style="fill:#990000;fill-opacity:0.5;stroke:#990000;stroke-opacity:0.5;stroke-width:5;" x="530.315143" xlink:href="#med1f3718b0" y="74.959929"/>
     <use style="fill:#990000;fill-opacity:0.5;stroke:#990000;stroke-opacity:0.5;stroke-width:5;" x="530.779971" xlink:href="#med1f3718b0" y="74.549178"/>
     <use style="fill:#990000;fill-opacity:0.5;stroke:#990000;stroke-opacity:0.5;stroke-width:5;" x="531.2448" xlink:href="#med1f3718b0" y="72.905283"/>
     <use style="fill:#990000;fill-opacity:0.5;stroke:#990000;stroke-opacity:0.5;stroke-width:5;" x="531.709629" xlink:href="#med1f3718b0" y="72.494235"/>
     <use style="fill:#990000;fill-opacity:0.5;stroke:#990000;stroke-opacity:0.5;stroke-width:5;" x="532.174457" xlink:href="#med1f3718b0" y="72.083484"/>
     <use style="fill:#990000;fill-opacity:0.5;stroke:#990000;stroke-opacity:0.5;stroke-width:5;" x="532.639286" xlink:href="#med1f3718b0" y="71.87796"/>
     <use style="fill:#990000;fill-opacity:0.5;stroke:#990000;stroke-opacity:0.5;stroke-width:5;" x="533.104114" xlink:href="#med1f3718b0" y="71.466912"/>
     <use style="fill:#990000;fill-opacity:0.5;stroke:#990000;stroke-opacity:0.5;stroke-width:5;" x="533.568943" xlink:href="#med1f3718b0" y="71.261685"/>
     <use style="fill:#990000;fill-opacity:0.5;stroke:#990000;stroke-opacity:0.5;stroke-width:5;" x="534.033771" xlink:href="#med1f3718b0" y="70.645113"/>
     <use style="fill:#990000;fill-opacity:0.5;stroke:#990000;stroke-opacity:0.5;stroke-width:5;" x="534.4986" xlink:href="#med1f3718b0" y="70.645113"/>
     <use style="fill:#990000;fill-opacity:0.5;stroke:#990000;stroke-opacity:0.5;stroke-width:5;" x="534.963429" xlink:href="#med1f3718b0" y="70.850637"/>
     <use style="fill:#990000;fill-opacity:0.5;stroke:#990000;stroke-opacity:0.5;stroke-width:5;" x="535.428257" xlink:href="#med1f3718b0" y="71.466912"/>
     <use style="fill:#990000;fill-opacity:0.5;stroke:#990000;stroke-opacity:0.5;stroke-width:5;" x="535.893086" xlink:href="#med1f3718b0" y="72.289008"/>
     <use style="fill:#990000;fill-opacity:0.5;stroke:#990000;stroke-opacity:0.5;stroke-width:5;" x="536.357914" xlink:href="#med1f3718b0" y="72.699759"/>
     <use style="fill:#990000;fill-opacity:0.5;stroke:#990000;stroke-opacity:0.5;stroke-width:5;" x="536.822743" xlink:href="#med1f3718b0" y="73.316331"/>
     <use style="fill:#990000;fill-opacity:0.5;stroke:#990000;stroke-opacity:0.5;stroke-width:5;" x="537.287571" xlink:href="#med1f3718b0" y="73.727082"/>
     <use style="fill:#990000;fill-opacity:0.5;stroke:#990000;stroke-opacity:0.5;stroke-width:5;" x="537.7524" xlink:href="#med1f3718b0" y="75.165453"/>
     <use style="fill:#990000;fill-opacity:0.5;stroke:#990000;stroke-opacity:0.5;stroke-width:5;" x="538.217229" xlink:href="#med1f3718b0" y="75.987252"/>
     <use style="fill:#990000;fill-opacity:0.5;stroke:#990000;stroke-opacity:0.5;stroke-width:5;" x="538.682057" xlink:href="#med1f3718b0" y="77.014575"/>
     <use style="fill:#990000;fill-opacity:0.5;stroke:#990000;stroke-opacity:0.5;stroke-width:5;" x="539.146886" xlink:href="#med1f3718b0" y="78.452946"/>
     <use style="fill:#990000;fill-opacity:0.5;stroke:#990000;stroke-opacity:0.5;stroke-width:5;" x="539.611714" xlink:href="#med1f3718b0" y="78.65847"/>
    </g>
   </g>
   <g id="line2d_38">
    <path clip-path="url(#p02fe21c259)" d="M 112.187709 200.278757 
L 113.492434 196.901637 
L 116.102177 188.902503 
L 118.059557 183.229648 
L 119.364429 180.099867 
L 120.729189 177.615062 
L 121.45878 176.669479 
L 122.188226 176.013664 
L 122.917671 175.660992 
L 123.647263 175.621929 
L 124.376709 175.903971 
L 125.1063 176.511873 
L 125.835746 177.447267 
L 126.565337 178.709638 
L 127.294783 180.294784 
L 128.75382 184.404953 
L 130.212857 189.686107 
L 215.426571 270.983948 
L 217.444714 257.72111 
L 218.958321 249.176025 
L 220.471929 242.169616 
L 221.714143 237.713757 
L 222.490071 235.562282 
L 223.499143 233.520137 
L 224.003679 232.826776 
L 224.639357 232.269427 
L 225.370668 232.069295 
L 225.517286 232.086383 
L 226.101964 232.345628 
L 226.833275 233.101792 
L 227.564571 234.339728 
L 228.5445 236.754728 
L 229.553571 240.143884 
L 230.562643 244.440495 
L 231.571714 249.630134 
L 233.085321 259.038515 
L 234.598929 270.28874 
L 235.608 278.725049 
L 317.417829 317.513655 
L 318.807214 303.947161 
L 320.1966 292.406476 
L 321.199872 285.356886 
L 322.280679 278.980527 
L 323.393921 273.742368 
L 324.364757 270.280828 
L 325.05945 268.438728 
L 325.754143 267.127502 
L 326.448836 266.348242 
L 327.143529 266.102062 
L 327.838221 266.390142 
L 328.532914 267.213755 
L 329.244699 268.614559 
L 329.976039 270.642726 
L 330.707394 273.2698 
L 331.438734 276.497897 
L 332.701071 283.491186 
L 333.395764 288.111889 
L 422.282571 290.438041 
L 423.545433 281.983634 
L 424.808281 275.340217 
L 426.071143 270.493831 
L 426.887143 268.312483 
L 427.623 266.982228 
L 428.113576 266.429984 
L 428.604138 266.144852 
L 429.094714 266.126357 
L 429.585291 266.374081 
L 430.075852 266.887597 
L 430.566429 267.666543 
L 431.302286 269.331759 
L 432.038143 271.591976 
L 433.016862 275.517703 
L 434.279709 282.128336 
L 435.542571 290.469529 
L 521.300237 271.099633 
L 523.074163 257.957884 
L 524.847943 247.364594 
L 526.131686 241.387217 
L 527.061343 237.969928 
L 527.991 235.327735 
L 528.920657 233.464494 
L 529.385486 232.825154 
L 530.169429 232.187235 
L 530.315143 232.129411 
L 531.056391 232.12856 
L 531.2448 232.206145 
L 531.943209 232.766658 
L 532.639286 233.748852 
L 533.104114 234.636978 
L 534.033771 236.960341 
L 534.963429 239.993338 
L 535.893086 243.706341 
L 537.287571 250.466012 
L 538.682057 258.498184 
L 539.611714 264.445278 
L 636.021677 178.872724 
L 636.962409 180.820844 
L 637.903286 183.13184 
L 639.784894 188.554634 
L 642.60738 197.184844 
L 643.548257 199.660173 
L 643.548257 199.660173 
" style="fill:none;stroke:#004ba8;stroke-linecap:square;stroke-width:1.8;"/>
   </g>
   <g id="line2d_39">
    <path clip-path="url(#p02fe21c259)" d="M 112.187709 285.7545 
L 112.840071 158.620152 
L 113.492434 147.928039 
L 114.893186 130.038566 
L 116.352077 114.877152 
L 117.811114 102.617794 
L 118.712066 96.375624 
L 120.016791 89.036657 
L 121.321663 83.636516 
L 122.188226 81.094078 
L 122.917671 79.589616 
L 123.647263 78.660892 
L 124.376709 78.304879 
L 125.1063 78.519342 
L 125.835746 79.303358 
L 126.565337 80.657646 
L 127.294783 82.583372 
L 128.024374 85.084425 
L 128.75382 88.164523 
L 129.483411 91.831505 
L 130.212857 96.092815 
L 215.426571 122.649475 
L 216.940179 107.715467 
L 218.453786 95.49772 
L 219.520239 88.345785 
L 220.471929 82.932929 
L 221.714143 77.207626 
L 222.490071 74.38888 
L 223.499143 71.584245 
L 224.003679 70.544552 
L 224.639357 69.577027 
L 225.370668 68.934468 
L 225.517286 68.866067 
L 226.101964 68.793541 
L 226.833275 69.152617 
L 227.030893 69.335275 
L 227.564571 70.010288 
L 228.039964 70.834679 
L 229.049036 73.279976 
L 230.058107 76.669397 
L 231.067179 81.002779 
L 232.07625 86.282722 
L 233.085321 92.516832 
L 234.598929 103.699721 
L 235.608 112.447647 
L 317.417829 101.157541 
L 318.807214 90.710531 
L 320.1966 81.84287 
L 321.585986 74.515762 
L 322.662567 69.904364 
L 323.670064 66.440999 
L 324.364757 64.536679 
L 325.05945 63.029442 
L 325.754143 61.920716 
L 326.448836 61.211414 
L 327.143529 60.901894 
L 327.838221 60.991931 
L 328.532914 61.480699 
L 329.244699 62.393542 
L 329.976039 63.763513 
L 330.707394 65.568241 
L 331.438734 67.803654 
L 332.701071 72.661197 
L 333.395764 75.865366 
L 422.282571 77.474747 
L 423.545433 71.614242 
L 424.808281 67.000737 
L 426.071143 63.661973 
L 426.887143 62.193079 
L 427.623 61.336364 
L 428.113576 61.012985 
L 428.604138 60.888421 
L 429.228291 61.017833 
L 429.830571 61.448644 
L 430.321148 62.021592 
L 431.057005 63.254337 
L 431.792862 64.933986 
L 432.774 67.865467 
L 433.648286 71.139656 
L 434.911148 76.960123 
L 435.542571 80.349832 
L 521.300237 104.525449 
L 523.074163 91.467501 
L 523.96098 86.071032 
L 524.847943 81.410379 
L 526.131686 75.95984 
L 527.061343 72.966484 
L 527.991 70.774589 
L 528.455829 69.979613 
L 529.282466 69.062542 
L 529.850314 68.801739 
L 530.315143 68.812562 
L 531.056391 69.248649 
L 531.709629 70.061008 
L 532.174457 70.884118 
L 533.104114 73.144359 
L 534.033771 76.228406 
L 534.963429 80.144177 
L 535.893086 84.90256 
L 537.287571 93.655728 
L 538.682057 104.429356 
L 539.611714 112.816996 
L 636.021677 89.224961 
L 636.962409 94.359015 
L 637.903286 100.532545 
L 638.844163 107.785214 
L 639.784894 116.171534 
L 640.725771 125.775538 
L 641.666649 136.730856 
L 642.60738 149.379122 
L 643.548257 196.354849 
L 643.548257 196.354849 
" style="fill:none;stroke:#990000;stroke-linecap:square;stroke-width:1.8;"/>
   </g>
   <g id="patch_3">
    <path d="M 72 336.6 
L 72 39.6 
" style="fill:none;stroke:#8787ff;stroke-linecap:square;stroke-linejoin:miter;stroke-width:0.8;"/>
   </g>
   <g id="patch_4">
    <path d="M 684 336.6 
L 684 39.6 
" style="fill:none;stroke:#8787ff;stroke-linecap:square;stroke-linejoin:miter;stroke-width:0.8;"/>
   </g>
   <g id="patch_5">
    <path d="M 72 336.6 
L 684 336.6 
" style="fill:none;stroke:#8787ff;stroke-linecap:square;stroke-linejoin:miter;stroke-width:0.8;"/>
   </g>
   <g id="patch_6">
    <path d="M 72 39.6 
L 684 39.6 
" style="fill:none;stroke:#8787ff;stroke-linecap:square;stroke-linejoin:miter;stroke-width:0.8;"/>
   </g>
  </g>
 </g>
 <defs>
  <clipPath id="p02fe21c259">
   <rect height="297" width="612" x="72" y="39.6"/>
  </clipPath>
 </defs>
</svg>
