<?xml version="1.0" encoding="utf-8" standalone="no"?>
<!DOCTYPE svg PUBLIC "-//W3C//DTD SVG 1.1//EN"
  "http://www.w3.org/Graphics/SVG/1.1/DTD/svg11.dtd">
<!-- Created with matplotlib (https://matplotlib.org/) -->
<svg height="396pt" version="1.1" viewBox="0 0 720 396" width="720pt" xmlns="http://www.w3.org/2000/svg" xmlns:xlink="http://www.w3.org/1999/xlink">
 <defs>
  <style type="text/css">
*{stroke-linecap:butt;stroke-linejoin:round;}
  </style>
 </defs>
 <g id="figure_1">
  <g id="patch_1">
   <path d="M 0 396 
L 720 396 
L 720 0 
L 0 0 
z
" style="fill:none;"/>
  </g>
  <g id="axes_1">
   <g id="patch_2">
    <path d="M 144 336.6 
L 648 336.6 
L 648 39.6 
L 144 39.6 
z
" style="fill:none;"/>
   </g>
   <g id="matplotlib.axis_1">
    <g id="xtick_1">
     <g id="line2d_1">
      <path clip-path="url(#p0a03b5fe23)" d="M 166.909091 336.6 
L 166.909091 39.6 
" style="fill:none;stroke:#b2b2b2;stroke-dasharray:2.96,1.28;stroke-dashoffset:0;stroke-opacity:0.3;stroke-width:0.8;"/>
     </g>
     <g id="line2d_2">
      <defs>
       <path d="M 0 0 
L 0 3.5 
" id="md57df7cf8f" style="stroke:#000000;stroke-width:0.8;"/>
      </defs>
      <g>
       <use style="stroke:#000000;stroke-width:0.8;" x="166.909091" xlink:href="#md57df7cf8f" y="336.6"/>
      </g>
     </g>
     <g id="text_1">
      <!-- −3 -->
      <defs>
       <path d="M 10.59375 35.5 
L 73.1875 35.5 
L 73.1875 27.203125 
L 10.59375 27.203125 
z
" id="DejaVuSans-8722"/>
       <path d="M 40.578125 39.3125 
Q 47.65625 37.796875 51.625 33 
Q 55.609375 28.21875 55.609375 21.1875 
Q 55.609375 10.40625 48.1875 4.484375 
Q 40.765625 -1.421875 27.09375 -1.421875 
Q 22.515625 -1.421875 17.65625 -0.515625 
Q 12.796875 0.390625 7.625 2.203125 
L 7.625 11.71875 
Q 11.71875 9.328125 16.59375 8.109375 
Q 21.484375 6.890625 26.8125 6.890625 
Q 36.078125 6.890625 40.9375 10.546875 
Q 45.796875 14.203125 45.796875 21.1875 
Q 45.796875 27.640625 41.28125 31.265625 
Q 36.765625 34.90625 28.71875 34.90625 
L 20.21875 34.90625 
L 20.21875 43.015625 
L 29.109375 43.015625 
Q 36.375 43.015625 40.234375 45.921875 
Q 44.09375 48.828125 44.09375 54.296875 
Q 44.09375 59.90625 40.109375 62.90625 
Q 36.140625 65.921875 28.71875 65.921875 
Q 24.65625 65.921875 20.015625 65.03125 
Q 15.375 64.15625 9.8125 62.3125 
L 9.8125 71.09375 
Q 15.4375 72.65625 20.34375 73.4375 
Q 25.25 74.21875 29.59375 74.21875 
Q 40.828125 74.21875 47.359375 69.109375 
Q 53.90625 64.015625 53.90625 55.328125 
Q 53.90625 49.265625 50.4375 45.09375 
Q 46.96875 40.921875 40.578125 39.3125 
z
" id="DejaVuSans-51"/>
      </defs>
      <g transform="translate(156.58956 354.237813)scale(0.14 -0.14)">
       <use xlink:href="#DejaVuSans-8722"/>
       <use x="83.789062" xlink:href="#DejaVuSans-51"/>
      </g>
     </g>
    </g>
    <g id="xtick_2">
     <g id="line2d_3">
      <path clip-path="url(#p0a03b5fe23)" d="M 243.272727 336.6 
L 243.272727 39.6 
" style="fill:none;stroke:#b2b2b2;stroke-dasharray:2.96,1.28;stroke-dashoffset:0;stroke-opacity:0.3;stroke-width:0.8;"/>
     </g>
     <g id="line2d_4">
      <g>
       <use style="stroke:#000000;stroke-width:0.8;" x="243.272727" xlink:href="#md57df7cf8f" y="336.6"/>
      </g>
     </g>
     <g id="text_2">
      <!-- −2 -->
      <defs>
       <path d="M 19.1875 8.296875 
L 53.609375 8.296875 
L 53.609375 0 
L 7.328125 0 
L 7.328125 8.296875 
Q 12.9375 14.109375 22.625 23.890625 
Q 32.328125 33.6875 34.8125 36.53125 
Q 39.546875 41.84375 41.421875 45.53125 
Q 43.3125 49.21875 43.3125 52.78125 
Q 43.3125 58.59375 39.234375 62.25 
Q 35.15625 65.921875 28.609375 65.921875 
Q 23.96875 65.921875 18.8125 64.3125 
Q 13.671875 62.703125 7.8125 59.421875 
L 7.8125 69.390625 
Q 13.765625 71.78125 18.9375 73 
Q 24.125 74.21875 28.421875 74.21875 
Q 39.75 74.21875 46.484375 68.546875 
Q 53.21875 62.890625 53.21875 53.421875 
Q 53.21875 48.921875 51.53125 44.890625 
Q 49.859375 40.875 45.40625 35.40625 
Q 44.1875 33.984375 37.640625 27.21875 
Q 31.109375 20.453125 19.1875 8.296875 
z
" id="DejaVuSans-50"/>
      </defs>
      <g transform="translate(232.953196 354.237813)scale(0.14 -0.14)">
       <use xlink:href="#DejaVuSans-8722"/>
       <use x="83.789062" xlink:href="#DejaVuSans-50"/>
      </g>
     </g>
    </g>
    <g id="xtick_3">
     <g id="line2d_5">
      <path clip-path="url(#p0a03b5fe23)" d="M 319.636364 336.6 
L 319.636364 39.6 
" style="fill:none;stroke:#b2b2b2;stroke-dasharray:2.96,1.28;stroke-dashoffset:0;stroke-opacity:0.3;stroke-width:0.8;"/>
     </g>
     <g id="line2d_6">
      <g>
       <use style="stroke:#000000;stroke-width:0.8;" x="319.636364" xlink:href="#md57df7cf8f" y="336.6"/>
      </g>
     </g>
     <g id="text_3">
      <!-- −1 -->
      <defs>
       <path d="M 12.40625 8.296875 
L 28.515625 8.296875 
L 28.515625 63.921875 
L 10.984375 60.40625 
L 10.984375 69.390625 
L 28.421875 72.90625 
L 38.28125 72.90625 
L 38.28125 8.296875 
L 54.390625 8.296875 
L 54.390625 0 
L 12.40625 0 
z
" id="DejaVuSans-49"/>
      </defs>
      <g transform="translate(309.316832 354.237813)scale(0.14 -0.14)">
       <use xlink:href="#DejaVuSans-8722"/>
       <use x="83.789062" xlink:href="#DejaVuSans-49"/>
      </g>
     </g>
    </g>
    <g id="xtick_4">
     <g id="line2d_7">
      <path clip-path="url(#p0a03b5fe23)" d="M 396 336.6 
L 396 39.6 
" style="fill:none;stroke:#b2b2b2;stroke-dasharray:2.96,1.28;stroke-dashoffset:0;stroke-opacity:0.3;stroke-width:0.8;"/>
     </g>
     <g id="line2d_8">
      <g>
       <use style="stroke:#000000;stroke-width:0.8;" x="396" xlink:href="#md57df7cf8f" y="336.6"/>
      </g>
     </g>
     <g id="text_4">
      <!-- 0 -->
      <defs>
       <path d="M 31.78125 66.40625 
Q 24.171875 66.40625 20.328125 58.90625 
Q 16.5 51.421875 16.5 36.375 
Q 16.5 21.390625 20.328125 13.890625 
Q 24.171875 6.390625 31.78125 6.390625 
Q 39.453125 6.390625 43.28125 13.890625 
Q 47.125 21.390625 47.125 36.375 
Q 47.125 51.421875 43.28125 58.90625 
Q 39.453125 66.40625 31.78125 66.40625 
z
M 31.78125 74.21875 
Q 44.046875 74.21875 50.515625 64.515625 
Q 56.984375 54.828125 56.984375 36.375 
Q 56.984375 17.96875 50.515625 8.265625 
Q 44.046875 -1.421875 31.78125 -1.421875 
Q 19.53125 -1.421875 13.0625 8.265625 
Q 6.59375 17.96875 6.59375 36.375 
Q 6.59375 54.828125 13.0625 64.515625 
Q 19.53125 74.21875 31.78125 74.21875 
z
" id="DejaVuSans-48"/>
      </defs>
      <g transform="translate(391.54625 354.237813)scale(0.14 -0.14)">
       <use xlink:href="#DejaVuSans-48"/>
      </g>
     </g>
    </g>
    <g id="xtick_5">
     <g id="line2d_9">
      <path clip-path="url(#p0a03b5fe23)" d="M 472.363636 336.6 
L 472.363636 39.6 
" style="fill:none;stroke:#b2b2b2;stroke-dasharray:2.96,1.28;stroke-dashoffset:0;stroke-opacity:0.3;stroke-width:0.8;"/>
     </g>
     <g id="line2d_10">
      <g>
       <use style="stroke:#000000;stroke-width:0.8;" x="472.363636" xlink:href="#md57df7cf8f" y="336.6"/>
      </g>
     </g>
     <g id="text_5">
      <!-- 1 -->
      <g transform="translate(467.909886 354.237813)scale(0.14 -0.14)">
       <use xlink:href="#DejaVuSans-49"/>
      </g>
     </g>
    </g>
    <g id="xtick_6">
     <g id="line2d_11">
      <path clip-path="url(#p0a03b5fe23)" d="M 548.727273 336.6 
L 548.727273 39.6 
" style="fill:none;stroke:#b2b2b2;stroke-dasharray:2.96,1.28;stroke-dashoffset:0;stroke-opacity:0.3;stroke-width:0.8;"/>
     </g>
     <g id="line2d_12">
      <g>
       <use style="stroke:#000000;stroke-width:0.8;" x="548.727273" xlink:href="#md57df7cf8f" y="336.6"/>
      </g>
     </g>
     <g id="text_6">
      <!-- 2 -->
      <g transform="translate(544.273523 354.237813)scale(0.14 -0.14)">
       <use xlink:href="#DejaVuSans-50"/>
      </g>
     </g>
    </g>
    <g id="xtick_7">
     <g id="line2d_13">
      <path clip-path="url(#p0a03b5fe23)" d="M 625.090909 336.6 
L 625.090909 39.6 
" style="fill:none;stroke:#b2b2b2;stroke-dasharray:2.96,1.28;stroke-dashoffset:0;stroke-opacity:0.3;stroke-width:0.8;"/>
     </g>
     <g id="line2d_14">
      <g>
       <use style="stroke:#000000;stroke-width:0.8;" x="625.090909" xlink:href="#md57df7cf8f" y="336.6"/>
      </g>
     </g>
     <g id="text_7">
      <!-- 3 -->
      <g transform="translate(620.637159 354.237813)scale(0.14 -0.14)">
       <use xlink:href="#DejaVuSans-51"/>
      </g>
     </g>
    </g>
    <g id="text_8">
     <!-- Magnetic Flux ($\Phi$) -->
     <defs>
      <path d="M 9.8125 72.90625 
L 24.515625 72.90625 
L 43.109375 23.296875 
L 61.8125 72.90625 
L 76.515625 72.90625 
L 76.515625 0 
L 66.890625 0 
L 66.890625 64.015625 
L 48.09375 14.015625 
L 38.1875 14.015625 
L 19.390625 64.015625 
L 19.390625 0 
L 9.8125 0 
z
" id="DejaVuSans-77"/>
      <path d="M 34.28125 27.484375 
Q 23.390625 27.484375 19.1875 25 
Q 14.984375 22.515625 14.984375 16.5 
Q 14.984375 11.71875 18.140625 8.90625 
Q 21.296875 6.109375 26.703125 6.109375 
Q 34.1875 6.109375 38.703125 11.40625 
Q 43.21875 16.703125 43.21875 25.484375 
L 43.21875 27.484375 
z
M 52.203125 31.203125 
L 52.203125 0 
L 43.21875 0 
L 43.21875 8.296875 
Q 40.140625 3.328125 35.546875 0.953125 
Q 30.953125 -1.421875 24.3125 -1.421875 
Q 15.921875 -1.421875 10.953125 3.296875 
Q 6 8.015625 6 15.921875 
Q 6 25.140625 12.171875 29.828125 
Q 18.359375 34.515625 30.609375 34.515625 
L 43.21875 34.515625 
L 43.21875 35.40625 
Q 43.21875 41.609375 39.140625 45 
Q 35.0625 48.390625 27.6875 48.390625 
Q 23 48.390625 18.546875 47.265625 
Q 14.109375 46.140625 10.015625 43.890625 
L 10.015625 52.203125 
Q 14.9375 54.109375 19.578125 55.046875 
Q 24.21875 56 28.609375 56 
Q 40.484375 56 46.34375 49.84375 
Q 52.203125 43.703125 52.203125 31.203125 
z
" id="DejaVuSans-97"/>
      <path d="M 45.40625 27.984375 
Q 45.40625 37.75 41.375 43.109375 
Q 37.359375 48.484375 30.078125 48.484375 
Q 22.859375 48.484375 18.828125 43.109375 
Q 14.796875 37.75 14.796875 27.984375 
Q 14.796875 18.265625 18.828125 12.890625 
Q 22.859375 7.515625 30.078125 7.515625 
Q 37.359375 7.515625 41.375 12.890625 
Q 45.40625 18.265625 45.40625 27.984375 
z
M 54.390625 6.78125 
Q 54.390625 -7.171875 48.1875 -13.984375 
Q 42 -20.796875 29.203125 -20.796875 
Q 24.46875 -20.796875 20.265625 -20.09375 
Q 16.0625 -19.390625 12.109375 -17.921875 
L 12.109375 -9.1875 
Q 16.0625 -11.328125 19.921875 -12.34375 
Q 23.78125 -13.375 27.78125 -13.375 
Q 36.625 -13.375 41.015625 -8.765625 
Q 45.40625 -4.15625 45.40625 5.171875 
L 45.40625 9.625 
Q 42.625 4.78125 38.28125 2.390625 
Q 33.9375 0 27.875 0 
Q 17.828125 0 11.671875 7.65625 
Q 5.515625 15.328125 5.515625 27.984375 
Q 5.515625 40.671875 11.671875 48.328125 
Q 17.828125 56 27.875 56 
Q 33.9375 56 38.28125 53.609375 
Q 42.625 51.21875 45.40625 46.390625 
L 45.40625 54.6875 
L 54.390625 54.6875 
z
" id="DejaVuSans-103"/>
      <path d="M 54.890625 33.015625 
L 54.890625 0 
L 45.90625 0 
L 45.90625 32.71875 
Q 45.90625 40.484375 42.875 44.328125 
Q 39.84375 48.1875 33.796875 48.1875 
Q 26.515625 48.1875 22.3125 43.546875 
Q 18.109375 38.921875 18.109375 30.90625 
L 18.109375 0 
L 9.078125 0 
L 9.078125 54.6875 
L 18.109375 54.6875 
L 18.109375 46.1875 
Q 21.34375 51.125 25.703125 53.5625 
Q 30.078125 56 35.796875 56 
Q 45.21875 56 50.046875 50.171875 
Q 54.890625 44.34375 54.890625 33.015625 
z
" id="DejaVuSans-110"/>
      <path d="M 56.203125 29.59375 
L 56.203125 25.203125 
L 14.890625 25.203125 
Q 15.484375 15.921875 20.484375 11.0625 
Q 25.484375 6.203125 34.421875 6.203125 
Q 39.59375 6.203125 44.453125 7.46875 
Q 49.3125 8.734375 54.109375 11.28125 
L 54.109375 2.78125 
Q 49.265625 0.734375 44.1875 -0.34375 
Q 39.109375 -1.421875 33.890625 -1.421875 
Q 20.796875 -1.421875 13.15625 6.1875 
Q 5.515625 13.8125 5.515625 26.8125 
Q 5.515625 40.234375 12.765625 48.109375 
Q 20.015625 56 32.328125 56 
Q 43.359375 56 49.78125 48.890625 
Q 56.203125 41.796875 56.203125 29.59375 
z
M 47.21875 32.234375 
Q 47.125 39.59375 43.09375 43.984375 
Q 39.0625 48.390625 32.421875 48.390625 
Q 24.90625 48.390625 20.390625 44.140625 
Q 15.875 39.890625 15.1875 32.171875 
z
" id="DejaVuSans-101"/>
      <path d="M 18.3125 70.21875 
L 18.3125 54.6875 
L 36.8125 54.6875 
L 36.8125 47.703125 
L 18.3125 47.703125 
L 18.3125 18.015625 
Q 18.3125 11.328125 20.140625 9.421875 
Q 21.96875 7.515625 27.59375 7.515625 
L 36.8125 7.515625 
L 36.8125 0 
L 27.59375 0 
Q 17.1875 0 13.234375 3.875 
Q 9.28125 7.765625 9.28125 18.015625 
L 9.28125 47.703125 
L 2.6875 47.703125 
L 2.6875 54.6875 
L 9.28125 54.6875 
L 9.28125 70.21875 
z
" id="DejaVuSans-116"/>
      <path d="M 9.421875 54.6875 
L 18.40625 54.6875 
L 18.40625 0 
L 9.421875 0 
z
M 9.421875 75.984375 
L 18.40625 75.984375 
L 18.40625 64.59375 
L 9.421875 64.59375 
z
" id="DejaVuSans-105"/>
      <path d="M 48.78125 52.59375 
L 48.78125 44.1875 
Q 44.96875 46.296875 41.140625 47.34375 
Q 37.3125 48.390625 33.40625 48.390625 
Q 24.65625 48.390625 19.8125 42.84375 
Q 14.984375 37.3125 14.984375 27.296875 
Q 14.984375 17.28125 19.8125 11.734375 
Q 24.65625 6.203125 33.40625 6.203125 
Q 37.3125 6.203125 41.140625 7.25 
Q 44.96875 8.296875 48.78125 10.40625 
L 48.78125 2.09375 
Q 45.015625 0.34375 40.984375 -0.53125 
Q 36.96875 -1.421875 32.421875 -1.421875 
Q 20.0625 -1.421875 12.78125 6.34375 
Q 5.515625 14.109375 5.515625 27.296875 
Q 5.515625 40.671875 12.859375 48.328125 
Q 20.21875 56 33.015625 56 
Q 37.15625 56 41.109375 55.140625 
Q 45.0625 54.296875 48.78125 52.59375 
z
" id="DejaVuSans-99"/>
      <path id="DejaVuSans-32"/>
      <path d="M 9.8125 72.90625 
L 51.703125 72.90625 
L 51.703125 64.59375 
L 19.671875 64.59375 
L 19.671875 43.109375 
L 48.578125 43.109375 
L 48.578125 34.8125 
L 19.671875 34.8125 
L 19.671875 0 
L 9.8125 0 
z
" id="DejaVuSans-70"/>
      <path d="M 9.421875 75.984375 
L 18.40625 75.984375 
L 18.40625 0 
L 9.421875 0 
z
" id="DejaVuSans-108"/>
      <path d="M 8.5 21.578125 
L 8.5 54.6875 
L 17.484375 54.6875 
L 17.484375 21.921875 
Q 17.484375 14.15625 20.5 10.265625 
Q 23.53125 6.390625 29.59375 6.390625 
Q 36.859375 6.390625 41.078125 11.03125 
Q 45.3125 15.671875 45.3125 23.6875 
L 45.3125 54.6875 
L 54.296875 54.6875 
L 54.296875 0 
L 45.3125 0 
L 45.3125 8.40625 
Q 42.046875 3.421875 37.71875 1 
Q 33.40625 -1.421875 27.6875 -1.421875 
Q 18.265625 -1.421875 13.375 4.4375 
Q 8.5 10.296875 8.5 21.578125 
z
M 31.109375 56 
z
" id="DejaVuSans-117"/>
      <path d="M 54.890625 54.6875 
L 35.109375 28.078125 
L 55.90625 0 
L 45.3125 0 
L 29.390625 21.484375 
L 13.484375 0 
L 2.875 0 
L 24.125 28.609375 
L 4.6875 54.6875 
L 15.28125 54.6875 
L 29.78125 35.203125 
L 44.28125 54.6875 
z
" id="DejaVuSans-120"/>
      <path d="M 31 75.875 
Q 24.46875 64.65625 21.28125 53.65625 
Q 18.109375 42.671875 18.109375 31.390625 
Q 18.109375 20.125 21.3125 9.0625 
Q 24.515625 -2 31 -13.1875 
L 23.1875 -13.1875 
Q 15.875 -1.703125 12.234375 9.375 
Q 8.59375 20.453125 8.59375 31.390625 
Q 8.59375 42.28125 12.203125 53.3125 
Q 15.828125 64.359375 23.1875 75.875 
z
" id="DejaVuSans-40"/>
      <path d="M 18.609375 0 
L 18.609375 3.515625 
Q 31.390625 3.515625 31.390625 6.6875 
L 31.390625 13.921875 
Q 21.78125 14.84375 14.5 19.671875 
Q 10.6875 22.265625 8.140625 26.078125 
Q 5.609375 29.890625 5.609375 34.1875 
Q 5.609375 38.421875 8.140625 42.25 
Q 10.6875 46.09375 14.5 48.578125 
Q 18.265625 51.125 22.4375 52.515625 
Q 26.609375 53.90625 31.390625 54.390625 
L 31.390625 61.625 
Q 31.390625 64.796875 18.609375 64.796875 
L 18.609375 68.3125 
L 52.875 68.3125 
L 52.875 64.796875 
Q 40.09375 64.796875 40.09375 61.625 
L 40.09375 54.390625 
Q 44.234375 54.390625 48.875 52.84375 
Q 53.515625 51.3125 57.46875 48.671875 
Q 61.421875 46.046875 63.953125 42.265625 
Q 66.5 38.484375 66.5 34.1875 
Q 66.5 29.890625 63.953125 26.125 
Q 61.421875 22.359375 57.34375 19.625 
Q 53.265625 16.890625 48.625 15.40625 
Q 44 13.921875 40.09375 13.921875 
L 40.09375 6.6875 
Q 40.09375 3.515625 52.875 3.515625 
L 52.875 0 
z
M 40.09375 16.5 
Q 48.140625 17.53125 52.125 21.890625 
Q 56.109375 26.265625 56.109375 34.1875 
Q 56.109375 42.140625 52.078125 46.484375 
Q 48.046875 50.828125 40.09375 51.8125 
z
M 31.390625 16.609375 
L 31.390625 51.703125 
Q 16.015625 49.5625 16.015625 34.1875 
Q 16.015625 18.75 31.390625 16.609375 
z
" id="Cmr10-169"/>
      <path d="M 8.015625 75.875 
L 15.828125 75.875 
Q 23.140625 64.359375 26.78125 53.3125 
Q 30.421875 42.28125 30.421875 31.390625 
Q 30.421875 20.453125 26.78125 9.375 
Q 23.140625 -1.703125 15.828125 -13.1875 
L 8.015625 -13.1875 
Q 14.5 -2 17.703125 9.0625 
Q 20.90625 20.125 20.90625 31.390625 
Q 20.90625 42.671875 17.703125 53.65625 
Q 14.5 64.65625 8.015625 75.875 
z
" id="DejaVuSans-41"/>
     </defs>
     <g transform="translate(308 376.349375)scale(0.2 -0.2)">
      <use transform="translate(0 0.015625)" xlink:href="#DejaVuSans-77"/>
      <use transform="translate(86.279297 0.015625)" xlink:href="#DejaVuSans-97"/>
      <use transform="translate(147.558594 0.015625)" xlink:href="#DejaVuSans-103"/>
      <use transform="translate(211.035156 0.015625)" xlink:href="#DejaVuSans-110"/>
      <use transform="translate(274.414062 0.015625)" xlink:href="#DejaVuSans-101"/>
      <use transform="translate(335.9375 0.015625)" xlink:href="#DejaVuSans-116"/>
      <use transform="translate(375.146484 0.015625)" xlink:href="#DejaVuSans-105"/>
      <use transform="translate(402.929688 0.015625)" xlink:href="#DejaVuSans-99"/>
      <use transform="translate(457.910156 0.015625)" xlink:href="#DejaVuSans-32"/>
      <use transform="translate(489.697266 0.015625)" xlink:href="#DejaVuSans-70"/>
      <use transform="translate(547.216797 0.015625)" xlink:href="#DejaVuSans-108"/>
      <use transform="translate(575 0.015625)" xlink:href="#DejaVuSans-117"/>
      <use transform="translate(638.378906 0.015625)" xlink:href="#DejaVuSans-120"/>
      <use transform="translate(697.558594 0.015625)" xlink:href="#DejaVuSans-32"/>
      <use transform="translate(729.345703 0.015625)" xlink:href="#DejaVuSans-40"/>
      <use transform="translate(768.359375 0.015625)" xlink:href="#Cmr10-169"/>
      <use transform="translate(840.576172 0.015625)" xlink:href="#DejaVuSans-41"/>
     </g>
    </g>
   </g>
   <g id="matplotlib.axis_2">
    <g id="ytick_1">
     <g id="line2d_15">
      <path clip-path="url(#p0a03b5fe23)" d="M 144 336.6 
L 648 336.6 
" style="fill:none;stroke:#b2b2b2;stroke-dasharray:2.96,1.28;stroke-dashoffset:0;stroke-opacity:0.3;stroke-width:0.8;"/>
     </g>
     <g id="line2d_16">
      <defs>
       <path d="M 0 0 
L -3.5 0 
" id="m0728348750" style="stroke:#009e73;stroke-width:0.8;"/>
      </defs>
      <g>
       <use style="fill:#009e73;stroke:#009e73;stroke-width:0.8;" x="144" xlink:href="#m0728348750" y="336.6"/>
      </g>
     </g>
     <g id="text_9">
      <!-- 0.0 -->
      <defs>
       <path d="M 10.6875 12.40625 
L 21 12.40625 
L 21 0 
L 10.6875 0 
z
" id="DejaVuSans-46"/>
      </defs>
      <g style="fill:#009e73;" transform="translate(114.735625 341.918906)scale(0.14 -0.14)">
       <use xlink:href="#DejaVuSans-48"/>
       <use x="63.623047" xlink:href="#DejaVuSans-46"/>
       <use x="95.410156" xlink:href="#DejaVuSans-48"/>
      </g>
     </g>
    </g>
    <g id="ytick_2">
     <g id="line2d_17">
      <path clip-path="url(#p0a03b5fe23)" d="M 144 277.2 
L 648 277.2 
" style="fill:none;stroke:#b2b2b2;stroke-dasharray:2.96,1.28;stroke-dashoffset:0;stroke-opacity:0.3;stroke-width:0.8;"/>
     </g>
     <g id="line2d_18">
      <g>
       <use style="fill:#009e73;stroke:#009e73;stroke-width:0.8;" x="144" xlink:href="#m0728348750" y="277.2"/>
      </g>
     </g>
     <g id="text_10">
      <!-- 0.2 -->
      <g style="fill:#009e73;" transform="translate(114.735625 282.518906)scale(0.14 -0.14)">
       <use xlink:href="#DejaVuSans-48"/>
       <use x="63.623047" xlink:href="#DejaVuSans-46"/>
       <use x="95.410156" xlink:href="#DejaVuSans-50"/>
      </g>
     </g>
    </g>
    <g id="ytick_3">
     <g id="line2d_19">
      <path clip-path="url(#p0a03b5fe23)" d="M 144 217.8 
L 648 217.8 
" style="fill:none;stroke:#b2b2b2;stroke-dasharray:2.96,1.28;stroke-dashoffset:0;stroke-opacity:0.3;stroke-width:0.8;"/>
     </g>
     <g id="line2d_20">
      <g>
       <use style="fill:#009e73;stroke:#009e73;stroke-width:0.8;" x="144" xlink:href="#m0728348750" y="217.8"/>
      </g>
     </g>
     <g id="text_11">
      <!-- 0.4 -->
      <defs>
       <path d="M 37.796875 64.3125 
L 12.890625 25.390625 
L 37.796875 25.390625 
z
M 35.203125 72.90625 
L 47.609375 72.90625 
L 47.609375 25.390625 
L 58.015625 25.390625 
L 58.015625 17.1875 
L 47.609375 17.1875 
L 47.609375 0 
L 37.796875 0 
L 37.796875 17.1875 
L 4.890625 17.1875 
L 4.890625 26.703125 
z
" id="DejaVuSans-52"/>
      </defs>
      <g style="fill:#009e73;" transform="translate(114.735625 223.118906)scale(0.14 -0.14)">
       <use xlink:href="#DejaVuSans-48"/>
       <use x="63.623047" xlink:href="#DejaVuSans-46"/>
       <use x="95.410156" xlink:href="#DejaVuSans-52"/>
      </g>
     </g>
    </g>
    <g id="ytick_4">
     <g id="line2d_21">
      <path clip-path="url(#p0a03b5fe23)" d="M 144 158.4 
L 648 158.4 
" style="fill:none;stroke:#b2b2b2;stroke-dasharray:2.96,1.28;stroke-dashoffset:0;stroke-opacity:0.3;stroke-width:0.8;"/>
     </g>
     <g id="line2d_22">
      <g>
       <use style="fill:#009e73;stroke:#009e73;stroke-width:0.8;" x="144" xlink:href="#m0728348750" y="158.4"/>
      </g>
     </g>
     <g id="text_12">
      <!-- 0.6 -->
      <defs>
       <path d="M 33.015625 40.375 
Q 26.375 40.375 22.484375 35.828125 
Q 18.609375 31.296875 18.609375 23.390625 
Q 18.609375 15.53125 22.484375 10.953125 
Q 26.375 6.390625 33.015625 6.390625 
Q 39.65625 6.390625 43.53125 10.953125 
Q 47.40625 15.53125 47.40625 23.390625 
Q 47.40625 31.296875 43.53125 35.828125 
Q 39.65625 40.375 33.015625 40.375 
z
M 52.59375 71.296875 
L 52.59375 62.3125 
Q 48.875 64.0625 45.09375 64.984375 
Q 41.3125 65.921875 37.59375 65.921875 
Q 27.828125 65.921875 22.671875 59.328125 
Q 17.53125 52.734375 16.796875 39.40625 
Q 19.671875 43.65625 24.015625 45.921875 
Q 28.375 48.1875 33.59375 48.1875 
Q 44.578125 48.1875 50.953125 41.515625 
Q 57.328125 34.859375 57.328125 23.390625 
Q 57.328125 12.15625 50.6875 5.359375 
Q 44.046875 -1.421875 33.015625 -1.421875 
Q 20.359375 -1.421875 13.671875 8.265625 
Q 6.984375 17.96875 6.984375 36.375 
Q 6.984375 53.65625 15.1875 63.9375 
Q 23.390625 74.21875 37.203125 74.21875 
Q 40.921875 74.21875 44.703125 73.484375 
Q 48.484375 72.75 52.59375 71.296875 
z
" id="DejaVuSans-54"/>
      </defs>
      <g style="fill:#009e73;" transform="translate(114.735625 163.718906)scale(0.14 -0.14)">
       <use xlink:href="#DejaVuSans-48"/>
       <use x="63.623047" xlink:href="#DejaVuSans-46"/>
       <use x="95.410156" xlink:href="#DejaVuSans-54"/>
      </g>
     </g>
    </g>
    <g id="ytick_5">
     <g id="line2d_23">
      <path clip-path="url(#p0a03b5fe23)" d="M 144 99 
L 648 99 
" style="fill:none;stroke:#b2b2b2;stroke-dasharray:2.96,1.28;stroke-dashoffset:0;stroke-opacity:0.3;stroke-width:0.8;"/>
     </g>
     <g id="line2d_24">
      <g>
       <use style="fill:#009e73;stroke:#009e73;stroke-width:0.8;" x="144" xlink:href="#m0728348750" y="99"/>
      </g>
     </g>
     <g id="text_13">
      <!-- 0.8 -->
      <defs>
       <path d="M 31.78125 34.625 
Q 24.75 34.625 20.71875 30.859375 
Q 16.703125 27.09375 16.703125 20.515625 
Q 16.703125 13.921875 20.71875 10.15625 
Q 24.75 6.390625 31.78125 6.390625 
Q 38.8125 6.390625 42.859375 10.171875 
Q 46.921875 13.96875 46.921875 20.515625 
Q 46.921875 27.09375 42.890625 30.859375 
Q 38.875 34.625 31.78125 34.625 
z
M 21.921875 38.8125 
Q 15.578125 40.375 12.03125 44.71875 
Q 8.5 49.078125 8.5 55.328125 
Q 8.5 64.0625 14.71875 69.140625 
Q 20.953125 74.21875 31.78125 74.21875 
Q 42.671875 74.21875 48.875 69.140625 
Q 55.078125 64.0625 55.078125 55.328125 
Q 55.078125 49.078125 51.53125 44.71875 
Q 48 40.375 41.703125 38.8125 
Q 48.828125 37.15625 52.796875 32.3125 
Q 56.78125 27.484375 56.78125 20.515625 
Q 56.78125 9.90625 50.3125 4.234375 
Q 43.84375 -1.421875 31.78125 -1.421875 
Q 19.734375 -1.421875 13.25 4.234375 
Q 6.78125 9.90625 6.78125 20.515625 
Q 6.78125 27.484375 10.78125 32.3125 
Q 14.796875 37.15625 21.921875 38.8125 
z
M 18.3125 54.390625 
Q 18.3125 48.734375 21.84375 45.5625 
Q 25.390625 42.390625 31.78125 42.390625 
Q 38.140625 42.390625 41.71875 45.5625 
Q 45.3125 48.734375 45.3125 54.390625 
Q 45.3125 60.0625 41.71875 63.234375 
Q 38.140625 66.40625 31.78125 66.40625 
Q 25.390625 66.40625 21.84375 63.234375 
Q 18.3125 60.0625 18.3125 54.390625 
z
" id="DejaVuSans-56"/>
      </defs>
      <g style="fill:#009e73;" transform="translate(114.735625 104.318906)scale(0.14 -0.14)">
       <use xlink:href="#DejaVuSans-48"/>
       <use x="63.623047" xlink:href="#DejaVuSans-46"/>
       <use x="95.410156" xlink:href="#DejaVuSans-56"/>
      </g>
     </g>
    </g>
    <g id="ytick_6">
     <g id="line2d_25">
      <path clip-path="url(#p0a03b5fe23)" d="M 144 39.6 
L 648 39.6 
" style="fill:none;stroke:#b2b2b2;stroke-dasharray:2.96,1.28;stroke-dashoffset:0;stroke-opacity:0.3;stroke-width:0.8;"/>
     </g>
     <g id="line2d_26">
      <g>
       <use style="fill:#009e73;stroke:#009e73;stroke-width:0.8;" x="144" xlink:href="#m0728348750" y="39.6"/>
      </g>
     </g>
     <g id="text_14">
      <!-- 1.0 -->
      <g style="fill:#009e73;" transform="translate(114.735625 44.918906)scale(0.14 -0.14)">
       <use xlink:href="#DejaVuSans-49"/>
       <use x="63.623047" xlink:href="#DejaVuSans-46"/>
       <use x="95.410156" xlink:href="#DejaVuSans-48"/>
      </g>
     </g>
    </g>
    <g id="text_15">
     <!-- $\left|\left|\beta_{twin}\right|\right|$ -->
     <defs>
      <path d="M 11.921875 -23.1875 
L 11.921875 73.1875 
Q 11.921875 73.96875 12.5 74.484375 
Q 13.09375 75 13.921875 75 
Q 14.65625 75 15.28125 74.484375 
Q 15.921875 73.96875 15.921875 73.1875 
L 15.921875 -23.1875 
Q 15.921875 -23.96875 15.28125 -24.484375 
Q 14.65625 -25 13.921875 -25 
Q 13.09375 -25 12.5 -24.484375 
Q 11.921875 -23.96875 11.921875 -23.1875 
z
" id="Cmsy10-106"/>
      <path d="M 2.6875 -19.390625 
Q 2.390625 -19.390625 2.140625 -19.046875 
Q 1.90625 -18.703125 1.90625 -18.40625 
L 17.28125 43.40625 
Q 18.609375 48.390625 21.140625 53.078125 
Q 23.6875 57.765625 27.515625 61.796875 
Q 31.34375 65.828125 35.9375 68.171875 
Q 40.53125 70.515625 45.703125 70.515625 
Q 49.421875 70.515625 52.421875 68.875 
Q 55.421875 67.234375 57.15625 64.28125 
Q 58.890625 61.328125 58.890625 57.625 
Q 58.890625 54.046875 57.515625 50.796875 
Q 56.15625 47.5625 53.703125 44.75 
Q 51.265625 41.9375 48.484375 40.1875 
Q 50.09375 39.15625 51.359375 37.5625 
Q 52.640625 35.984375 53.421875 34.25 
Q 54.203125 32.515625 54.640625 30.390625 
Q 55.078125 28.265625 55.078125 26.421875 
Q 55.078125 21.296875 52.875 16.3125 
Q 50.6875 11.328125 46.890625 7.265625 
Q 43.109375 3.21875 38.21875 0.84375 
Q 33.34375 -1.515625 28.21875 -1.515625 
Q 22.609375 -1.515625 18.109375 1.5625 
Q 13.625 4.640625 11.921875 9.90625 
L 4.6875 -18.796875 
Q 4.6875 -19.390625 3.90625 -19.390625 
z
M 28.421875 1.21875 
Q 32.90625 1.21875 36.546875 4.171875 
Q 40.1875 7.125 42.546875 11.59375 
Q 44.921875 16.0625 46.15625 21.0625 
Q 47.40625 26.078125 47.40625 30.171875 
Q 47.40625 35.25 44.484375 38.1875 
Q 41.0625 36.921875 37.796875 36.921875 
Q 29.890625 36.921875 29.890625 39.59375 
Q 29.890625 43.109375 38.921875 43.109375 
Q 42.140625 43.109375 44.828125 42.09375 
Q 46.96875 43.75 48.71875 46.96875 
Q 50.484375 50.203125 51.390625 53.71875 
Q 52.296875 57.234375 52.296875 60.296875 
Q 52.296875 63.578125 50.5625 65.75 
Q 48.828125 67.921875 45.515625 67.921875 
Q 39.40625 67.921875 34.15625 64.15625 
Q 28.90625 60.40625 25.296875 54.65625 
Q 21.6875 48.921875 20.125 42.828125 
L 14.59375 20.703125 
Q 14.0625 18.40625 13.921875 15.578125 
Q 13.921875 9.328125 18.015625 5.265625 
Q 22.125 1.21875 28.421875 1.21875 
z
M 32.90625 39.890625 
Q 34.421875 39.5 37.890625 39.5 
Q 39.59375 39.5 41.3125 40.09375 
Q 41.21875 40.1875 40.921875 40.1875 
Q 39.84375 40.484375 38.625 40.484375 
Q 34.078125 40.484375 32.90625 39.890625 
z
" id="Cmmi10-175"/>
      <path d="M 6.203125 8.109375 
Q 6.203125 9.578125 6.5 10.890625 
L 13.71875 39.59375 
L 3.21875 39.59375 
Q 2.203125 39.59375 2.203125 40.921875 
Q 2.59375 43.109375 3.515625 43.109375 
L 14.59375 43.109375 
L 18.609375 59.421875 
Q 19 60.75 20.171875 61.671875 
Q 21.34375 62.59375 22.796875 62.59375 
Q 24.078125 62.59375 24.921875 61.828125 
Q 25.78125 61.078125 25.78125 59.8125 
Q 25.78125 59.515625 25.75 59.34375 
Q 25.734375 59.1875 25.6875 58.984375 
L 21.6875 43.109375 
L 31.984375 43.109375 
Q 33.015625 43.109375 33.015625 41.796875 
Q 32.953125 41.546875 32.8125 40.953125 
Q 32.671875 40.375 32.421875 39.984375 
Q 32.171875 39.59375 31.6875 39.59375 
L 20.796875 39.59375 
L 13.625 10.6875 
Q 12.890625 7.859375 12.890625 5.8125 
Q 12.890625 1.515625 15.828125 1.515625 
Q 20.21875 1.515625 23.609375 5.640625 
Q 27 9.765625 28.8125 14.703125 
Q 29.203125 15.28125 29.59375 15.28125 
L 30.8125 15.28125 
Q 31.203125 15.28125 31.4375 15.015625 
Q 31.6875 14.75 31.6875 14.40625 
Q 31.6875 14.203125 31.59375 14.109375 
Q 29.390625 8.0625 25.1875 3.46875 
Q 21 -1.125 15.578125 -1.125 
Q 11.625 -1.125 8.90625 1.453125 
Q 6.203125 4.046875 6.203125 8.109375 
z
" id="Cmmi10-116"/>
      <path d="M 10.796875 11.625 
Q 10.796875 13.71875 11.359375 16.453125 
Q 11.921875 19.1875 12.59375 21.3125 
Q 13.28125 23.4375 14.90625 27.828125 
Q 16.546875 32.234375 16.703125 32.625 
Q 18.015625 36.28125 18.015625 38.625 
Q 18.015625 41.609375 15.828125 41.609375 
Q 11.859375 41.609375 9.296875 37.53125 
Q 6.734375 33.453125 5.515625 28.421875 
Q 5.328125 27.78125 4.6875 27.78125 
L 3.515625 27.78125 
Q 2.6875 27.78125 2.6875 28.71875 
L 2.6875 29 
Q 4.296875 34.96875 7.609375 39.578125 
Q 10.9375 44.1875 16.015625 44.1875 
Q 19.578125 44.1875 22.046875 41.84375 
Q 24.515625 39.5 24.515625 35.890625 
Q 24.515625 34.03125 23.6875 31.984375 
Q 22.515625 28.953125 20.921875 24.703125 
Q 19.34375 20.453125 18.453125 16.984375 
Q 17.578125 13.53125 17.578125 10.296875 
Q 17.578125 6.390625 19.625 3.953125 
Q 21.6875 1.515625 25.59375 1.515625 
Q 30.90625 1.515625 34.421875 9.625 
Q 34.28125 10.203125 34.28125 11.28125 
Q 34.28125 13.96875 35.109375 17.390625 
L 40.71875 39.890625 
Q 41.0625 41.21875 42.28125 42.15625 
Q 43.5 43.109375 44.921875 43.109375 
Q 46.09375 43.109375 47 42.328125 
Q 47.90625 41.546875 47.90625 40.28125 
Q 47.90625 39.703125 47.796875 39.5 
L 42.1875 17.1875 
Q 41.21875 13.1875 41.21875 10.015625 
Q 41.21875 6.25 42.9375 3.875 
Q 44.671875 1.515625 48.390625 1.515625 
Q 54.828125 1.515625 58.984375 10.015625 
Q 60.546875 13.03125 62.46875 18.9375 
Q 64.40625 24.859375 64.40625 27.984375 
Q 64.40625 30.859375 63.46875 32.546875 
Q 62.546875 34.234375 60.90625 36.1875 
Q 59.28125 38.140625 59.28125 39.109375 
Q 59.28125 41.015625 60.90625 42.640625 
Q 62.546875 44.28125 64.5 44.28125 
Q 66.890625 44.28125 67.9375 42.078125 
Q 69 39.890625 69 37.109375 
Q 69 33.734375 67.875 28.53125 
Q 66.75 23.34375 65.03125 18.09375 
Q 63.328125 12.84375 61.8125 9.71875 
Q 56.34375 -1.125 48.1875 -1.125 
Q 44 -1.125 40.53125 0.484375 
Q 37.0625 2.09375 35.40625 5.609375 
Q 33.796875 2.734375 31.171875 0.796875 
Q 28.5625 -1.125 25.390625 -1.125 
Q 18.796875 -1.125 14.796875 2.015625 
Q 10.796875 5.171875 10.796875 11.625 
z
" id="Cmmi10-119"/>
      <path d="M 7.8125 7.171875 
Q 7.8125 9.03125 8.59375 11.078125 
L 16.703125 32.625 
Q 18.015625 36.28125 18.015625 38.625 
Q 18.015625 41.609375 15.828125 41.609375 
Q 11.859375 41.609375 9.296875 37.53125 
Q 6.734375 33.453125 5.515625 28.421875 
Q 5.328125 27.78125 4.6875 27.78125 
L 3.515625 27.78125 
Q 2.6875 27.78125 2.6875 28.71875 
L 2.6875 29 
Q 4.296875 34.96875 7.609375 39.578125 
Q 10.9375 44.1875 16.015625 44.1875 
Q 19.578125 44.1875 22.046875 41.84375 
Q 24.515625 39.5 24.515625 35.890625 
Q 24.515625 34.03125 23.6875 31.984375 
L 15.578125 10.5 
Q 14.203125 7.171875 14.203125 4.5 
Q 14.203125 1.515625 16.5 1.515625 
Q 20.40625 1.515625 23.015625 5.6875 
Q 25.640625 9.859375 26.703125 14.703125 
Q 26.90625 15.28125 27.484375 15.28125 
L 28.71875 15.28125 
Q 29.109375 15.28125 29.34375 15.015625 
Q 29.59375 14.75 29.59375 14.40625 
Q 29.59375 14.3125 29.5 14.109375 
Q 28.125 8.453125 24.734375 3.65625 
Q 21.34375 -1.125 16.3125 -1.125 
Q 12.796875 -1.125 10.296875 1.296875 
Q 7.8125 3.71875 7.8125 7.171875 
z
M 19.09375 60.59375 
Q 19.09375 62.703125 20.84375 64.40625 
Q 22.609375 66.109375 24.703125 66.109375 
Q 26.421875 66.109375 27.515625 65.0625 
Q 28.609375 64.015625 28.609375 62.40625 
Q 28.609375 60.15625 26.828125 58.46875 
Q 25.046875 56.78125 22.90625 56.78125 
Q 21.296875 56.78125 20.1875 57.875 
Q 19.09375 58.984375 19.09375 60.59375 
z
" id="Cmmi10-105"/>
      <path d="M 7.71875 1.703125 
Q 7.71875 2.296875 7.8125 2.59375 
L 15.28125 32.421875 
Q 16.015625 35.203125 16.015625 37.3125 
Q 16.015625 41.609375 13.09375 41.609375 
Q 9.96875 41.609375 8.453125 37.859375 
Q 6.9375 34.125 5.515625 28.421875 
Q 5.515625 28.125 5.21875 27.953125 
Q 4.9375 27.78125 4.6875 27.78125 
L 3.515625 27.78125 
Q 3.171875 27.78125 2.921875 28.140625 
Q 2.6875 28.515625 2.6875 28.8125 
Q 3.765625 33.15625 4.765625 36.171875 
Q 5.765625 39.203125 7.890625 41.6875 
Q 10.015625 44.1875 13.1875 44.1875 
Q 16.9375 44.1875 19.8125 41.8125 
Q 22.703125 39.453125 22.703125 35.796875 
Q 25.6875 39.703125 29.6875 41.9375 
Q 33.6875 44.1875 38.1875 44.1875 
Q 41.75 44.1875 44.328125 42.96875 
Q 46.921875 41.75 48.359375 39.28125 
Q 49.8125 36.8125 49.8125 33.40625 
Q 49.8125 29.296875 47.96875 23.484375 
Q 46.140625 17.671875 43.40625 10.5 
Q 42 7.234375 42 4.5 
Q 42 1.515625 44.28125 1.515625 
Q 48.1875 1.515625 50.796875 5.703125 
Q 53.421875 9.90625 54.5 14.703125 
Q 54.6875 15.28125 55.328125 15.28125 
L 56.5 15.28125 
Q 56.890625 15.28125 57.15625 15.03125 
Q 57.421875 14.796875 57.421875 14.40625 
Q 57.421875 14.3125 57.328125 14.109375 
Q 55.953125 8.453125 52.5625 3.65625 
Q 49.171875 -1.125 44.09375 -1.125 
Q 40.578125 -1.125 38.078125 1.296875 
Q 35.59375 3.71875 35.59375 7.171875 
Q 35.59375 9.03125 36.375 11.078125 
Q 37.640625 14.359375 39.28125 18.890625 
Q 40.921875 23.4375 41.96875 27.578125 
Q 43.015625 31.734375 43.015625 34.90625 
Q 43.015625 37.703125 41.859375 39.65625 
Q 40.71875 41.609375 37.984375 41.609375 
Q 34.328125 41.609375 31.25 39.984375 
Q 28.171875 38.375 25.875 35.71875 
Q 23.578125 33.0625 21.6875 29.390625 
L 14.890625 2.203125 
Q 14.546875 0.828125 13.34375 -0.140625 
Q 12.15625 -1.125 10.6875 -1.125 
Q 9.46875 -1.125 8.59375 -0.34375 
Q 7.71875 0.4375 7.71875 1.703125 
z
" id="Cmmi10-110"/>
     </defs>
     <g style="fill:#009e73;" transform="translate(106.57625 218.5)rotate(-90)scale(0.2 -0.2)">
      <use transform="translate(0 3.5625)scale(0.899219)" xlink:href="#Cmsy10-106"/>
      <use transform="translate(24.895355 3.5625)scale(0.899062)" xlink:href="#Cmsy10-106"/>
      <use transform="translate(49.786392 0.46875)" xlink:href="#Cmmi10-175"/>
      <use transform="translate(106.280533 -16.5375)scale(0.7)" xlink:href="#Cmmi10-116"/>
      <use transform="translate(131.539322 -16.5375)scale(0.7)" xlink:href="#Cmmi10-119"/>
      <use transform="translate(181.578384 -16.5375)scale(0.7)" xlink:href="#Cmmi10-105"/>
      <use transform="translate(205.675064 -16.5375)scale(0.7)" xlink:href="#Cmmi10-110"/>
      <use transform="translate(254.059244 3.5625)scale(0.899062)" xlink:href="#Cmsy10-106"/>
      <use transform="translate(278.950281 3.5625)scale(0.899219)" xlink:href="#Cmsy10-106"/>
     </g>
    </g>
    <g id="text_16">
     <!-- 1e9 -->
     <defs>
      <path d="M 10.984375 1.515625 
L 10.984375 10.5 
Q 14.703125 8.734375 18.5 7.8125 
Q 22.3125 6.890625 25.984375 6.890625 
Q 35.75 6.890625 40.890625 13.453125 
Q 46.046875 20.015625 46.78125 33.40625 
Q 43.953125 29.203125 39.59375 26.953125 
Q 35.25 24.703125 29.984375 24.703125 
Q 19.046875 24.703125 12.671875 31.3125 
Q 6.296875 37.9375 6.296875 49.421875 
Q 6.296875 60.640625 12.9375 67.421875 
Q 19.578125 74.21875 30.609375 74.21875 
Q 43.265625 74.21875 49.921875 64.515625 
Q 56.59375 54.828125 56.59375 36.375 
Q 56.59375 19.140625 48.40625 8.859375 
Q 40.234375 -1.421875 26.421875 -1.421875 
Q 22.703125 -1.421875 18.890625 -0.6875 
Q 15.09375 0.046875 10.984375 1.515625 
z
M 30.609375 32.421875 
Q 37.25 32.421875 41.125 36.953125 
Q 45.015625 41.5 45.015625 49.421875 
Q 45.015625 57.28125 41.125 61.84375 
Q 37.25 66.40625 30.609375 66.40625 
Q 23.96875 66.40625 20.09375 61.84375 
Q 16.21875 57.28125 16.21875 49.421875 
Q 16.21875 41.5 20.09375 36.953125 
Q 23.96875 32.421875 30.609375 32.421875 
z
" id="DejaVuSans-57"/>
     </defs>
     <g style="fill:#009e73;" transform="translate(144 36.6)scale(0.14 -0.14)">
      <use xlink:href="#DejaVuSans-49"/>
      <use x="63.623047" xlink:href="#DejaVuSans-101"/>
      <use x="125.146484" xlink:href="#DejaVuSans-57"/>
     </g>
    </g>
   </g>
   <g id="line2d_27">
    <path clip-path="url(#p0a03b5fe23)" d="M 166.909091 246.763074 
L 167.367731 245.904707 
L 167.826372 245.425689 
L 168.285012 245.33208 
L 168.743653 245.62513 
L 169.202293 246.301254 
L 169.660934 247.352105 
L 170.578215 250.521888 
L 171.495495 254.981154 
L 172.412776 260.520221 
L 173.788698 270.300915 
L 178.833743 308.151792 
L 180.209664 316.239508 
L 181.585586 322.82872 
L 182.502867 326.357907 
L 183.420147 329.197659 
L 184.337428 331.390046 
L 185.254709 333.02251 
L 186.17199 334.207711 
L 187.089271 335.056245 
L 188.006552 335.661044 
L 189.382473 336.26403 
L 190.299754 336.537546 
L 190.758395 336.549534 
L 193.510238 335.864776 
L 193.968878 332.484431 
L 194.427518 331.377681 
L 194.886159 328.765702 
L 195.344799 319.161778 
L 195.80344 290.716546 
L 196.26208 324.779373 
L 196.720721 326.43748 
L 197.638002 331.805617 
L 198.096642 334.995361 
L 198.555283 334.696086 
L 199.931204 322.69894 
L 203.141687 293.516414 
L 204.058968 287.078404 
L 204.976249 282.269165 
L 205.434889 280.569421 
L 205.89353 279.375036 
L 206.35217 278.702488 
L 206.810811 278.559823 
L 207.269451 278.946543 
L 207.728092 279.85368 
L 208.186732 281.264024 
L 209.104013 285.486775 
L 210.021294 291.330707 
L 211.397215 302.293089 
L 215.066339 333.515582 
L 215.52498 336.506338 
L 215.98362 325.408669 
L 216.44226 288.449827 
L 216.900901 321.175379 
L 217.359541 329.491982 
L 217.818182 331.836301 
L 218.276822 332.835376 
L 218.735463 335.928806 
L 220.111384 336.287036 
L 221.945946 336.536117 
L 223.321867 336.129128 
L 224.697789 335.472548 
L 225.61507 334.79872 
L 226.532351 333.833597 
L 227.449631 332.458752 
L 228.366912 330.544502 
L 229.284193 327.992033 
L 230.201474 324.768721 
L 231.118755 320.885522 
L 232.494676 313.836814 
L 233.870598 305.333827 
L 235.70516 292.03842 
L 239.832924 260.416671 
L 240.750205 254.77503 
L 241.667486 250.21429 
L 242.584767 246.951298 
L 243.043407 245.859065 
L 243.502048 245.14606 
L 243.960688 244.821296 
L 244.419328 244.888923 
L 244.877969 245.348141 
L 245.336609 246.193215 
L 245.79525 247.413593 
L 246.712531 250.915348 
L 247.629812 255.68305 
L 249.005733 264.705664 
L 250.840295 278.810342 
L 253.592138 300.113209 
L 254.968059 309.351671 
L 256.34398 317.174485 
L 257.719902 323.534014 
L 258.637183 326.993061 
L 259.554464 329.825097 
L 260.471744 332.008615 
L 261.389025 333.581385 
L 262.306306 334.661968 
L 263.223587 335.391201 
L 264.140868 335.884874 
L 265.51679 336.355243 
L 266.43407 336.563074 
L 267.351351 336.473108 
L 269.644554 335.999569 
L 270.103194 333.478799 
L 270.561835 332.607769 
L 271.020475 330.48932 
L 271.479115 322.636945 
L 272.855037 289.157854 
L 274.689599 254.788375 
L 277.441441 201.741259 
L 278.817363 179.383111 
L 279.734644 167.485837 
L 280.651925 158.602137 
L 281.110565 155.414514 
L 281.569206 153.110638 
L 282.027846 151.713441 
L 282.486486 151.235158 
L 282.945127 151.677156 
L 283.403767 153.02996 
L 283.862408 155.273496 
L 284.321048 158.37752 
L 285.238329 166.999121 
L 286.15561 178.477191 
L 287.531532 199.882309 
L 289.366093 233.050568 
L 291.659296 275.304066 
L 292.117936 320.325923 
L 292.576577 323.323905 
L 293.035217 330.740289 
L 293.493857 332.937777 
L 293.952498 333.802903 
L 294.411138 336.014316 
L 295.328419 336.279463 
L 297.621622 336.577373 
L 299.456183 336.173493 
L 300.832105 335.607722 
L 301.749386 334.967685 
L 302.666667 333.95065 
L 303.583948 332.355229 
L 304.501229 330.064052 
L 305.418509 327.172864 
L 306.794431 321.874441 
L 308.170352 315.241031 
L 309.546274 307.107186 
L 310.922195 297.561241 
L 313.215397 279.623473 
L 315.5086 262.077577 
L 316.884521 253.502402 
L 317.801802 249.156089 
L 318.719083 246.157081 
L 319.177723 245.211942 
L 319.636364 244.653815 
L 320.095004 244.489789 
L 320.553645 244.721974 
L 321.012285 245.347452 
L 321.470925 246.358335 
L 321.929566 247.741932 
L 322.846847 251.554112 
L 323.764128 256.598336 
L 325.140049 265.945403 
L 327.433251 283.958399 
L 329.726454 301.463622 
L 331.102375 310.470053 
L 332.478296 317.967711 
L 333.854218 323.951633 
L 335.230139 328.71806 
L 336.606061 332.646128 
L 337.523342 334.387476 
L 338.440622 335.361808 
L 339.357903 335.897284 
L 340.733825 336.317898 
L 342.568387 336.586688 
L 344.861589 336.395366 
L 345.77887 336.210474 
L 346.23751 334.983099 
L 346.696151 334.530198 
L 347.154791 333.34177 
L 348.072072 328.878064 
L 348.530713 205.364481 
L 353.575758 86.408792 
L 354.951679 61.473909 
L 355.86896 48.869523 
L 356.786241 40.090259 
L 357.244881 37.252441 
L 357.703522 35.489913 
L 358.162162 34.818445 
L 358.620803 35.241553 
L 359.079443 36.750409 
L 359.538084 39.323992 
L 359.996724 42.929456 
L 360.914005 53.049239 
L 361.831286 66.637646 
L 363.207207 92.174325 
L 365.041769 132.069867 
L 367.793612 192.84731 
L 368.252252 277.322054 
L 368.710893 334.129727 
L 369.169533 335.244955 
L 369.628174 335.624574 
L 370.086814 335.778525 
L 370.545455 336.43358 
L 373.297297 336.598763 
L 376.04914 336.407378 
L 377.425061 336.143228 
L 377.883702 335.965362 
L 378.342342 335.668185 
L 378.800983 335.090886 
L 379.259623 333.770063 
L 379.718264 331.558218 
L 380.635545 328.70309 
L 381.552826 325.993128 
L 382.470106 322.724792 
L 383.387387 318.793165 
L 384.763309 311.566697 
L 386.13923 302.77846 
L 387.973792 289.103767 
L 391.642916 260.718815 
L 392.560197 254.93044 
L 393.477477 250.212306 
L 394.394758 246.789625 
L 394.853399 245.619324 
L 395.312039 244.830796 
L 395.77068 244.434013 
L 396.22932 244.434013 
L 396.687961 244.830796 
L 397.146601 245.619324 
L 397.605242 246.789625 
L 398.522523 250.212306 
L 399.439803 254.93044 
L 400.815725 263.932661 
L 402.650287 278.091843 
L 405.402129 299.538193 
L 406.778051 308.803514 
L 408.153972 316.563438 
L 409.529894 322.724792 
L 410.447174 325.993128 
L 412.281736 331.558218 
L 412.740377 333.770063 
L 413.199017 335.090886 
L 413.657658 335.668185 
L 414.574939 336.143228 
L 415.95086 336.407378 
L 418.702703 336.598763 
L 421.454545 336.43358 
L 421.913186 335.778525 
L 422.371826 335.624574 
L 422.830467 335.244955 
L 423.289107 334.129727 
L 423.747748 277.322054 
L 424.206388 192.84731 
L 426.49959 142.466644 
L 428.792793 92.174325 
L 430.168714 66.637646 
L 431.085995 53.049239 
L 432.003276 42.929456 
L 432.461916 39.323992 
L 432.920557 36.750409 
L 433.379197 35.241553 
L 433.837838 34.818445 
L 434.296478 35.489913 
L 434.755119 37.252441 
L 435.213759 40.090259 
L 435.6724 43.975656 
L 436.589681 54.722098 
L 437.506962 69.05689 
L 438.882883 96.010491 
L 440.717445 138.51363 
L 443.469287 205.364481 
L 443.927928 328.878064 
L 444.845209 333.34177 
L 445.303849 334.530198 
L 445.76249 334.983099 
L 446.22113 336.210474 
L 447.138411 336.395366 
L 449.431613 336.586688 
L 451.266175 336.317898 
L 452.642097 335.897284 
L 453.559378 335.361808 
L 454.476658 334.387476 
L 454.935299 333.629695 
L 455.85258 331.457384 
L 457.228501 327.231273 
L 458.604423 322.114113 
L 459.521704 317.967711 
L 460.897625 310.470053 
L 462.273546 301.463622 
L 464.108108 287.616115 
L 467.318591 262.637073 
L 468.694513 253.936048 
L 469.611794 249.481004 
L 470.529075 246.358335 
L 470.987715 245.347452 
L 471.446355 244.721974 
L 471.904996 244.489789 
L 472.363636 244.653815 
L 472.822277 245.211942 
L 473.280917 246.157081 
L 473.739558 247.477304 
L 474.656839 251.17266 
L 475.57412 256.117348 
L 476.950041 265.355317 
L 479.243243 283.305286 
L 481.536446 300.883293 
L 482.912367 309.985391 
L 484.288288 317.615382 
L 485.66421 323.775329 
L 487.040131 328.683865 
L 487.957412 331.294717 
L 488.874693 333.237237 
L 489.791974 334.51841 
L 490.709255 335.323782 
L 491.626536 335.836025 
L 493.002457 336.299848 
L 494.378378 336.577373 
L 495.7543 336.418997 
L 497.130221 336.19087 
L 497.588862 336.014316 
L 498.047502 333.802903 
L 498.506143 332.937777 
L 498.964783 330.740289 
L 499.423423 323.323905 
L 499.882064 320.325923 
L 500.340704 275.304066 
L 505.84439 178.477191 
L 506.761671 166.999121 
L 507.678952 158.37752 
L 508.137592 155.273496 
L 508.596233 153.02996 
L 509.054873 151.677156 
L 509.513514 151.235158 
L 509.972154 151.713441 
L 510.430794 153.110638 
L 510.889435 155.414514 
L 511.348075 158.602137 
L 512.265356 167.485837 
L 513.182637 179.383111 
L 514.558559 201.741259 
L 516.39312 236.66025 
L 519.144963 289.157854 
L 519.603604 297.123614 
L 520.520885 322.636945 
L 520.979525 330.48932 
L 521.438165 332.607769 
L 521.896806 333.478799 
L 522.355446 335.999569 
L 523.272727 336.245603 
L 525.56593 336.563074 
L 527.400491 336.070093 
L 528.317772 335.661634 
L 529.235053 335.062436 
L 530.152334 334.174142 
L 531.069615 332.865298 
L 531.986896 330.997774 
L 532.904177 328.489208 
L 533.821458 325.340604 
L 534.738739 321.572717 
L 536.11466 314.731272 
L 537.490581 306.42071 
L 538.866503 296.761329 
L 541.618346 275.166869 
L 543.452907 261.491827 
L 544.828829 253.153921 
L 545.74611 248.994121 
L 546.663391 246.193215 
L 547.122031 245.348141 
L 547.580672 244.888923 
L 548.039312 244.821296 
L 548.497952 245.14606 
L 548.956593 245.859065 
L 549.415233 246.951298 
L 550.332514 250.21429 
L 551.249795 254.77503 
L 552.167076 260.416671 
L 553.542998 270.337949 
L 558.129402 305.333827 
L 559.505324 313.836814 
L 560.881245 320.885522 
L 562.257166 326.463911 
L 563.174447 329.3517 
L 564.091728 331.57656 
L 565.009009 333.205613 
L 565.92629 334.359392 
L 566.843571 335.165686 
L 567.760852 335.729756 
L 569.136773 336.285004 
L 570.054054 336.536117 
L 570.512695 336.559876 
L 573.264537 335.928806 
L 573.723178 332.835376 
L 574.181818 331.836301 
L 574.640459 329.491982 
L 575.099099 321.175379 
L 575.55774 288.449827 
L 576.01638 325.408669 
L 576.47502 336.506338 
L 577.392301 330.101914 
L 578.768223 318.615449 
L 581.520066 294.745654 
L 582.437346 288.227797 
L 583.354627 283.152513 
L 583.813268 281.264024 
L 584.271908 279.85368 
L 584.730549 278.946543 
L 585.189189 278.559823 
L 585.64783 278.702488 
L 586.10647 279.375036 
L 586.565111 280.569421 
L 587.023751 282.269165 
L 587.941032 287.078404 
L 588.858313 293.516414 
L 590.234234 305.357154 
L 593.444717 334.696086 
L 593.903358 334.995361 
L 594.820639 328.962412 
L 595.279279 326.43748 
L 595.73792 324.779373 
L 596.19656 290.716546 
L 596.655201 319.161778 
L 597.113841 328.765702 
L 597.572482 331.377681 
L 598.031122 332.484431 
L 598.489762 335.864776 
L 599.407043 336.156515 
L 601.241605 336.549534 
L 601.700246 336.537546 
L 603.076167 336.094234 
L 604.452088 335.384136 
L 605.369369 334.667757 
L 606.28665 333.663801 
L 607.203931 332.269466 
L 608.121212 330.37024 
L 609.038493 327.86246 
L 609.955774 324.680361 
L 610.873055 320.803576 
L 612.248976 313.705388 
L 613.624898 305.144591 
L 615.459459 291.83831 
L 619.587224 260.520221 
L 620.504505 254.981154 
L 621.421785 250.521888 
L 622.339066 247.352105 
L 622.797707 246.301254 
L 623.256347 245.62513 
L 623.714988 245.33208 
L 624.173628 245.425689 
L 624.632269 245.904707 
L 625.090909 246.763074 
L 625.090909 246.763074 
" style="fill:none;stroke:#009e73;stroke-linecap:square;stroke-width:1.8;"/>
   </g>
   <g id="patch_3">
    <path d="M 144 336.6 
L 144 39.6 
" style="fill:none;stroke:#8787ff;stroke-linecap:square;stroke-linejoin:miter;stroke-width:0.8;"/>
   </g>
   <g id="patch_4">
    <path d="M 648 336.6 
L 648 39.6 
" style="fill:none;stroke:#009e73;stroke-linecap:square;stroke-linejoin:miter;stroke-width:0.8;"/>
   </g>
   <g id="patch_5">
    <path d="M 144 336.6 
L 648 336.6 
" style="fill:none;stroke:#8787ff;stroke-linecap:square;stroke-linejoin:miter;stroke-width:0.8;"/>
   </g>
   <g id="patch_6">
    <path d="M 144 39.6 
L 648 39.6 
" style="fill:none;stroke:#8787ff;stroke-linecap:square;stroke-linejoin:miter;stroke-width:0.8;"/>
   </g>
  </g>
  <g id="axes_2">
   <g id="matplotlib.axis_3">
    <g id="xtick_8">
     <g id="line2d_28">
      <path clip-path="url(#p0a03b5fe23)" d="M 166.909091 336.6 
L 166.909091 39.6 
" style="fill:none;stroke:#b2b2b2;stroke-dasharray:2.96,1.28;stroke-dashoffset:0;stroke-opacity:0.3;stroke-width:0.8;"/>
     </g>
     <g id="line2d_29">
      <g>
       <use style="stroke:#000000;stroke-width:0.8;" x="166.909091" xlink:href="#md57df7cf8f" y="336.6"/>
      </g>
     </g>
     <g id="text_17">
      <!-- −3 -->
      <g transform="translate(156.58956 354.237813)scale(0.14 -0.14)">
       <use xlink:href="#DejaVuSans-8722"/>
       <use x="83.789062" xlink:href="#DejaVuSans-51"/>
      </g>
     </g>
    </g>
    <g id="xtick_9">
     <g id="line2d_30">
      <path clip-path="url(#p0a03b5fe23)" d="M 243.272727 336.6 
L 243.272727 39.6 
" style="fill:none;stroke:#b2b2b2;stroke-dasharray:2.96,1.28;stroke-dashoffset:0;stroke-opacity:0.3;stroke-width:0.8;"/>
     </g>
     <g id="line2d_31">
      <g>
       <use style="stroke:#000000;stroke-width:0.8;" x="243.272727" xlink:href="#md57df7cf8f" y="336.6"/>
      </g>
     </g>
     <g id="text_18">
      <!-- −2 -->
      <g transform="translate(232.953196 354.237813)scale(0.14 -0.14)">
       <use xlink:href="#DejaVuSans-8722"/>
       <use x="83.789062" xlink:href="#DejaVuSans-50"/>
      </g>
     </g>
    </g>
    <g id="xtick_10">
     <g id="line2d_32">
      <path clip-path="url(#p0a03b5fe23)" d="M 319.636364 336.6 
L 319.636364 39.6 
" style="fill:none;stroke:#b2b2b2;stroke-dasharray:2.96,1.28;stroke-dashoffset:0;stroke-opacity:0.3;stroke-width:0.8;"/>
     </g>
     <g id="line2d_33">
      <g>
       <use style="stroke:#000000;stroke-width:0.8;" x="319.636364" xlink:href="#md57df7cf8f" y="336.6"/>
      </g>
     </g>
     <g id="text_19">
      <!-- −1 -->
      <g transform="translate(309.316832 354.237813)scale(0.14 -0.14)">
       <use xlink:href="#DejaVuSans-8722"/>
       <use x="83.789062" xlink:href="#DejaVuSans-49"/>
      </g>
     </g>
    </g>
    <g id="xtick_11">
     <g id="line2d_34">
      <path clip-path="url(#p0a03b5fe23)" d="M 396 336.6 
L 396 39.6 
" style="fill:none;stroke:#b2b2b2;stroke-dasharray:2.96,1.28;stroke-dashoffset:0;stroke-opacity:0.3;stroke-width:0.8;"/>
     </g>
     <g id="line2d_35">
      <g>
       <use style="stroke:#000000;stroke-width:0.8;" x="396" xlink:href="#md57df7cf8f" y="336.6"/>
      </g>
     </g>
     <g id="text_20">
      <!-- 0 -->
      <g transform="translate(391.54625 354.237813)scale(0.14 -0.14)">
       <use xlink:href="#DejaVuSans-48"/>
      </g>
     </g>
    </g>
    <g id="xtick_12">
     <g id="line2d_36">
      <path clip-path="url(#p0a03b5fe23)" d="M 472.363636 336.6 
L 472.363636 39.6 
" style="fill:none;stroke:#b2b2b2;stroke-dasharray:2.96,1.28;stroke-dashoffset:0;stroke-opacity:0.3;stroke-width:0.8;"/>
     </g>
     <g id="line2d_37">
      <g>
       <use style="stroke:#000000;stroke-width:0.8;" x="472.363636" xlink:href="#md57df7cf8f" y="336.6"/>
      </g>
     </g>
     <g id="text_21">
      <!-- 1 -->
      <g transform="translate(467.909886 354.237813)scale(0.14 -0.14)">
       <use xlink:href="#DejaVuSans-49"/>
      </g>
     </g>
    </g>
    <g id="xtick_13">
     <g id="line2d_38">
      <path clip-path="url(#p0a03b5fe23)" d="M 548.727273 336.6 
L 548.727273 39.6 
" style="fill:none;stroke:#b2b2b2;stroke-dasharray:2.96,1.28;stroke-dashoffset:0;stroke-opacity:0.3;stroke-width:0.8;"/>
     </g>
     <g id="line2d_39">
      <g>
       <use style="stroke:#000000;stroke-width:0.8;" x="548.727273" xlink:href="#md57df7cf8f" y="336.6"/>
      </g>
     </g>
     <g id="text_22">
      <!-- 2 -->
      <g transform="translate(544.273523 354.237813)scale(0.14 -0.14)">
       <use xlink:href="#DejaVuSans-50"/>
      </g>
     </g>
    </g>
    <g id="xtick_14">
     <g id="line2d_40">
      <path clip-path="url(#p0a03b5fe23)" d="M 625.090909 336.6 
L 625.090909 39.6 
" style="fill:none;stroke:#b2b2b2;stroke-dasharray:2.96,1.28;stroke-dashoffset:0;stroke-opacity:0.3;stroke-width:0.8;"/>
     </g>
     <g id="line2d_41">
      <g>
       <use style="stroke:#000000;stroke-width:0.8;" x="625.090909" xlink:href="#md57df7cf8f" y="336.6"/>
      </g>
     </g>
     <g id="text_23">
      <!-- 3 -->
      <g transform="translate(620.637159 354.237813)scale(0.14 -0.14)">
       <use xlink:href="#DejaVuSans-51"/>
      </g>
     </g>
    </g>
    <g id="text_24">
     <!-- Magnetic Flux ($\Phi$) -->
     <g transform="translate(308 376.349375)scale(0.2 -0.2)">
      <use transform="translate(0 0.015625)" xlink:href="#DejaVuSans-77"/>
      <use transform="translate(86.279297 0.015625)" xlink:href="#DejaVuSans-97"/>
      <use transform="translate(147.558594 0.015625)" xlink:href="#DejaVuSans-103"/>
      <use transform="translate(211.035156 0.015625)" xlink:href="#DejaVuSans-110"/>
      <use transform="translate(274.414062 0.015625)" xlink:href="#DejaVuSans-101"/>
      <use transform="translate(335.9375 0.015625)" xlink:href="#DejaVuSans-116"/>
      <use transform="translate(375.146484 0.015625)" xlink:href="#DejaVuSans-105"/>
      <use transform="translate(402.929688 0.015625)" xlink:href="#DejaVuSans-99"/>
      <use transform="translate(457.910156 0.015625)" xlink:href="#DejaVuSans-32"/>
      <use transform="translate(489.697266 0.015625)" xlink:href="#DejaVuSans-70"/>
      <use transform="translate(547.216797 0.015625)" xlink:href="#DejaVuSans-108"/>
      <use transform="translate(575 0.015625)" xlink:href="#DejaVuSans-117"/>
      <use transform="translate(638.378906 0.015625)" xlink:href="#DejaVuSans-120"/>
      <use transform="translate(697.558594 0.015625)" xlink:href="#DejaVuSans-32"/>
      <use transform="translate(729.345703 0.015625)" xlink:href="#DejaVuSans-40"/>
      <use transform="translate(768.359375 0.015625)" xlink:href="#Cmr10-169"/>
      <use transform="translate(840.576172 0.015625)" xlink:href="#DejaVuSans-41"/>
     </g>
    </g>
   </g>
   <g id="matplotlib.axis_4">
    <g id="ytick_7">
     <g id="line2d_42">
      <path clip-path="url(#p0a03b5fe23)" d="M 144 336.6 
L 648 336.6 
" style="fill:none;stroke:#b2b2b2;stroke-dasharray:2.96,1.28;stroke-dashoffset:0;stroke-opacity:0.3;stroke-width:0.8;"/>
     </g>
     <g id="line2d_43">
      <defs>
       <path d="M 0 0 
L 3.5 0 
" id="m15ff236db5" style="stroke:#5ee5a2;stroke-width:0.8;"/>
      </defs>
      <g>
       <use style="fill:#5ee5a2;stroke:#5ee5a2;stroke-width:0.8;" x="648" xlink:href="#m15ff236db5" y="336.6"/>
      </g>
     </g>
     <g id="text_25">
      <!-- 0.0 -->
      <g style="fill:#5ee5a2;" transform="translate(655 341.918906)scale(0.14 -0.14)">
       <use xlink:href="#DejaVuSans-48"/>
       <use x="63.623047" xlink:href="#DejaVuSans-46"/>
       <use x="95.410156" xlink:href="#DejaVuSans-48"/>
      </g>
     </g>
    </g>
    <g id="ytick_8">
     <g id="line2d_44">
      <path clip-path="url(#p0a03b5fe23)" d="M 144 277.2 
L 648 277.2 
" style="fill:none;stroke:#b2b2b2;stroke-dasharray:2.96,1.28;stroke-dashoffset:0;stroke-opacity:0.3;stroke-width:0.8;"/>
     </g>
     <g id="line2d_45">
      <g>
       <use style="fill:#5ee5a2;stroke:#5ee5a2;stroke-width:0.8;" x="648" xlink:href="#m15ff236db5" y="277.2"/>
      </g>
     </g>
     <g id="text_26">
      <!-- 0.2 -->
      <g style="fill:#5ee5a2;" transform="translate(655 282.518906)scale(0.14 -0.14)">
       <use xlink:href="#DejaVuSans-48"/>
       <use x="63.623047" xlink:href="#DejaVuSans-46"/>
       <use x="95.410156" xlink:href="#DejaVuSans-50"/>
      </g>
     </g>
    </g>
    <g id="ytick_9">
     <g id="line2d_46">
      <path clip-path="url(#p0a03b5fe23)" d="M 144 217.8 
L 648 217.8 
" style="fill:none;stroke:#b2b2b2;stroke-dasharray:2.96,1.28;stroke-dashoffset:0;stroke-opacity:0.3;stroke-width:0.8;"/>
     </g>
     <g id="line2d_47">
      <g>
       <use style="fill:#5ee5a2;stroke:#5ee5a2;stroke-width:0.8;" x="648" xlink:href="#m15ff236db5" y="217.8"/>
      </g>
     </g>
     <g id="text_27">
      <!-- 0.4 -->
      <g style="fill:#5ee5a2;" transform="translate(655 223.118906)scale(0.14 -0.14)">
       <use xlink:href="#DejaVuSans-48"/>
       <use x="63.623047" xlink:href="#DejaVuSans-46"/>
       <use x="95.410156" xlink:href="#DejaVuSans-52"/>
      </g>
     </g>
    </g>
    <g id="ytick_10">
     <g id="line2d_48">
      <path clip-path="url(#p0a03b5fe23)" d="M 144 158.4 
L 648 158.4 
" style="fill:none;stroke:#b2b2b2;stroke-dasharray:2.96,1.28;stroke-dashoffset:0;stroke-opacity:0.3;stroke-width:0.8;"/>
     </g>
     <g id="line2d_49">
      <g>
       <use style="fill:#5ee5a2;stroke:#5ee5a2;stroke-width:0.8;" x="648" xlink:href="#m15ff236db5" y="158.4"/>
      </g>
     </g>
     <g id="text_28">
      <!-- 0.6 -->
      <g style="fill:#5ee5a2;" transform="translate(655 163.718906)scale(0.14 -0.14)">
       <use xlink:href="#DejaVuSans-48"/>
       <use x="63.623047" xlink:href="#DejaVuSans-46"/>
       <use x="95.410156" xlink:href="#DejaVuSans-54"/>
      </g>
     </g>
    </g>
    <g id="ytick_11">
     <g id="line2d_50">
      <path clip-path="url(#p0a03b5fe23)" d="M 144 99 
L 648 99 
" style="fill:none;stroke:#b2b2b2;stroke-dasharray:2.96,1.28;stroke-dashoffset:0;stroke-opacity:0.3;stroke-width:0.8;"/>
     </g>
     <g id="line2d_51">
      <g>
       <use style="fill:#5ee5a2;stroke:#5ee5a2;stroke-width:0.8;" x="648" xlink:href="#m15ff236db5" y="99"/>
      </g>
     </g>
     <g id="text_29">
      <!-- 0.8 -->
      <g style="fill:#5ee5a2;" transform="translate(655 104.318906)scale(0.14 -0.14)">
       <use xlink:href="#DejaVuSans-48"/>
       <use x="63.623047" xlink:href="#DejaVuSans-46"/>
       <use x="95.410156" xlink:href="#DejaVuSans-56"/>
      </g>
     </g>
    </g>
    <g id="ytick_12">
     <g id="line2d_52">
      <path clip-path="url(#p0a03b5fe23)" d="M 144 39.6 
L 648 39.6 
" style="fill:none;stroke:#b2b2b2;stroke-dasharray:2.96,1.28;stroke-dashoffset:0;stroke-opacity:0.3;stroke-width:0.8;"/>
     </g>
     <g id="line2d_53">
      <g>
       <use style="fill:#5ee5a2;stroke:#5ee5a2;stroke-width:0.8;" x="648" xlink:href="#m15ff236db5" y="39.6"/>
      </g>
     </g>
     <g id="text_30">
      <!-- 1.0 -->
      <g style="fill:#5ee5a2;" transform="translate(655 44.918906)scale(0.14 -0.14)">
       <use xlink:href="#DejaVuSans-49"/>
       <use x="63.623047" xlink:href="#DejaVuSans-46"/>
       <use x="95.410156" xlink:href="#DejaVuSans-48"/>
      </g>
     </g>
    </g>
    <g id="text_31">
     <!-- $\left|\left|\beta_{4jj}\right|\right|$ -->
     <defs>
      <path d="M 2.78125 16.5 
L 2.78125 20.015625 
L 33.6875 66.109375 
Q 34.03125 66.609375 34.71875 66.609375 
L 36.1875 66.609375 
Q 37.3125 66.609375 37.3125 65.484375 
L 37.3125 20.015625 
L 47.125 20.015625 
L 47.125 16.5 
L 37.3125 16.5 
L 37.3125 6.6875 
Q 37.3125 4.640625 40.234375 4.078125 
Q 43.171875 3.515625 47.015625 3.515625 
L 47.015625 0 
L 19.484375 0 
L 19.484375 3.515625 
Q 23.34375 3.515625 26.265625 4.078125 
Q 29.203125 4.640625 29.203125 6.6875 
L 29.203125 16.5 
z
M 6.109375 20.015625 
L 29.78125 20.015625 
L 29.78125 55.421875 
z
" id="Cmr10-52"/>
      <path d="M -1.3125 -14.203125 
Q -1.3125 -11.765625 0.359375 -9.984375 
Q 2.046875 -8.203125 4.5 -8.203125 
Q 6.109375 -8.203125 7.203125 -9.203125 
Q 8.296875 -10.203125 8.296875 -11.8125 
Q 8.296875 -13.71875 7.09375 -15.25 
Q 5.90625 -16.796875 4.109375 -17.28125 
Q 5.859375 -17.921875 7.625 -17.921875 
Q 11.859375 -17.921875 14.984375 -13.984375 
Q 18.109375 -10.0625 19.390625 -5.171875 
L 28.8125 32.421875 
Q 29.5 35.296875 29.5 37.3125 
Q 29.5 41.609375 26.515625 41.609375 
Q 22.125 41.609375 18.828125 37.625 
Q 15.53125 33.640625 13.484375 28.421875 
Q 13.28125 27.78125 12.703125 27.78125 
L 11.53125 27.78125 
Q 10.6875 27.78125 10.6875 28.71875 
L 10.6875 29 
Q 12.9375 35.015625 17.078125 39.59375 
Q 21.234375 44.1875 26.703125 44.1875 
Q 30.859375 44.1875 33.515625 41.59375 
Q 36.1875 39.015625 36.1875 35.015625 
Q 36.1875 33.59375 35.890625 32.171875 
L 26.421875 -5.8125 
Q 25.390625 -9.859375 22.5 -13.234375 
Q 19.625 -16.609375 15.625 -18.5625 
Q 11.625 -20.515625 7.421875 -20.515625 
Q 4.046875 -20.515625 1.359375 -18.890625 
Q -1.3125 -17.28125 -1.3125 -14.203125 
z
M 30.328125 60.59375 
Q 30.328125 62.796875 32.03125 64.453125 
Q 33.734375 66.109375 35.890625 66.109375 
Q 37.59375 66.109375 38.6875 65.0625 
Q 39.796875 64.015625 39.796875 62.40625 
Q 39.796875 60.15625 38.015625 58.46875 
Q 36.234375 56.78125 34.078125 56.78125 
Q 32.46875 56.78125 31.390625 57.90625 
Q 30.328125 59.03125 30.328125 60.59375 
z
" id="Cmmi10-106"/>
     </defs>
     <g style="fill:#5ee5a2;" transform="translate(695.464375 215)rotate(-90)scale(0.2 -0.2)">
      <use transform="translate(0 -5.414062)scale(1.018828)" xlink:href="#Cmsy10-106"/>
      <use transform="translate(28.204651 -5.414062)scale(1.018828)" xlink:href="#Cmsy10-106"/>
      <use transform="translate(56.409302 0.484375)" xlink:href="#Cmmi10-175"/>
      <use transform="translate(112.903442 -16.521875)scale(0.7)" xlink:href="#Cmr10-52"/>
      <use transform="translate(147.903442 -16.521875)scale(0.7)" xlink:href="#Cmmi10-106"/>
      <use transform="translate(176.682739 -16.521875)scale(0.7)" xlink:href="#Cmmi10-106"/>
      <use transform="translate(211.83938 -5.414062)scale(1.018828)" xlink:href="#Cmsy10-106"/>
      <use transform="translate(240.044031 -5.414062)scale(1.018828)" xlink:href="#Cmsy10-106"/>
     </g>
    </g>
    <g id="text_32">
     <!-- 1e9 -->
     <g style="fill:#5ee5a2;" transform="translate(621.570625 36.6)scale(0.14 -0.14)">
      <use xlink:href="#DejaVuSans-49"/>
      <use x="63.623047" xlink:href="#DejaVuSans-101"/>
      <use x="125.146484" xlink:href="#DejaVuSans-57"/>
     </g>
    </g>
   </g>
   <g id="line2d_54">
    <path clip-path="url(#p0a03b5fe23)" d="M 166.909091 336.6 
L 167.459019 268.147418 
L 167.825638 244.484459 
L 168.283911 229.026942 
L 168.742185 220.965869 
L 169.200458 216.486775 
L 169.658732 213.972095 
L 170.117005 212.653988 
L 170.483624 212.183102 
L 170.850243 212.094056 
L 171.216862 212.304932 
L 171.675135 212.905425 
L 172.225063 214.022704 
L 172.958301 216.047875 
L 173.874848 219.264974 
L 175.066359 224.362753 
L 176.441179 231.309407 
L 177.999309 240.364844 
L 179.740748 251.803046 
L 181.757151 266.611794 
L 183.956864 284.48379 
L 186.523196 307.273472 
L 189.639455 336.210046 
L 195.505356 279.946981 
L 197.430104 263.742723 
L 198.988234 252.368145 
L 200.2714 244.506262 
L 201.371256 239.033808 
L 202.287803 235.460711 
L 203.112695 233.064031 
L 203.845933 231.612549 
L 204.395861 230.953502 
L 204.854134 230.689041 
L 205.312408 230.684702 
L 205.770681 230.940505 
L 206.228955 231.455356 
L 206.778883 232.411956 
L 207.420466 233.987498 
L 208.153703 236.377914 
L 209.07025 240.212999 
L 210.078452 245.449241 
L 211.269963 252.881869 
L 212.644784 262.906108 
L 214.386223 277.380624 
L 216.67759 298.49082 
L 220.618742 336.244445 
L 224.28493 301.542587 
L 226.942916 278.467036 
L 229.234283 260.474639 
L 231.250687 246.321341 
L 233.08378 234.982779 
L 234.64191 226.635955 
L 236.016731 220.41874 
L 237.116587 216.386934 
L 237.941479 214.059077 
L 238.583062 212.782504 
L 239.041336 212.239349 
L 239.407954 212.085603 
L 239.682918 212.172446 
L 239.957882 212.470988 
L 240.324501 213.283145 
L 240.69112 214.725446 
L 241.057739 217.067722 
L 241.424358 220.771549 
L 241.790976 226.681649 
L 242.157595 236.462575 
L 242.524214 253.581109 
L 242.890833 284.65973 
L 243.257451 334.296911 
L 244.265653 241.100238 
L 244.723927 227.316786 
L 245.1822 220.030712 
L 245.640474 215.958697 
L 246.098747 213.683278 
L 246.55702 212.519148 
L 246.923639 212.136258 
L 247.198603 212.091311 
L 247.565222 212.290962 
L 248.023496 212.88016 
L 248.573424 213.986601 
L 249.306661 216.000283 
L 250.223208 219.205935 
L 251.323065 223.867885 
L 252.697885 230.732212 
L 254.256015 239.706354 
L 255.997454 251.063219 
L 257.922203 265.083469 
L 260.121915 282.80259 
L 262.596592 304.60534 
L 265.712852 334.160017 
L 265.987816 336.35919 
L 271.853716 280.083087 
L 273.870119 263.144366 
L 275.428249 251.859304 
L 276.711415 244.086697 
L 277.811271 238.700717 
L 278.727818 235.205571 
L 279.552711 232.882658 
L 280.194293 231.636145 
L 280.744222 230.966788 
L 281.202495 230.693669 
L 281.660769 230.680653 
L 282.119042 230.927796 
L 282.577315 231.434041 
L 283.127244 232.380437 
L 283.768826 233.94432 
L 284.502064 236.321847 
L 285.418611 240.141655 
L 286.426813 245.362392 
L 287.618324 252.778736 
L 288.993144 262.787213 
L 290.734583 277.246616 
L 293.025951 298.344873 
L 296.967103 336.393504 
L 300.63329 301.681165 
L 303.291276 278.593262 
L 305.582644 260.588111 
L 307.599047 246.422181 
L 309.432141 235.070764 
L 310.990271 226.711447 
L 312.365091 220.481116 
L 313.464948 216.436206 
L 314.381494 213.879921 
L 315.023077 212.668276 
L 315.481351 212.184704 
L 315.84797 212.090709 
L 316.122934 212.232369 
L 316.397898 212.597527 
L 316.764517 213.524625 
L 317.131135 215.127549 
L 317.497754 217.706536 
L 317.864373 221.78202 
L 318.230992 228.321015 
L 318.59761 239.25737 
L 318.964229 258.626184 
L 319.330848 293.596457 
L 319.605812 331.996405 
L 319.697467 327.413371 
L 320.15574 270.838838 
L 320.522359 245.958448 
L 320.980632 229.763819 
L 321.438906 221.366001 
L 321.897179 216.712543 
L 322.355453 214.096584 
L 322.813726 212.713914 
L 323.180345 212.206392 
L 323.546964 212.089089 
L 323.913583 212.277415 
L 324.371856 212.855233 
L 324.921784 213.950768 
L 325.655022 215.952906 
L 326.571569 219.147067 
L 327.671425 223.797759 
L 329.046246 230.650243 
L 330.604375 239.612715 
L 332.345815 250.957918 
L 334.270563 264.966518 
L 336.470276 282.673798 
L 338.944953 304.465494 
L 342.061212 334.011309 
L 342.336176 336.508313 
L 348.293731 279.403571 
L 350.21848 263.263728 
L 351.77661 251.960679 
L 353.059776 244.170153 
L 354.159632 238.766832 
L 355.076179 235.256064 
L 355.901071 232.918376 
L 356.542654 231.660026 
L 357.092582 230.980361 
L 357.550856 230.698586 
L 358.009129 230.676893 
L 358.467403 230.915374 
L 358.925676 231.413011 
L 359.475604 232.349199 
L 360.117187 233.901416 
L 360.850425 236.266043 
L 361.766972 240.070557 
L 362.775173 245.275766 
L 363.966684 252.675796 
L 365.341505 262.668475 
L 367.082944 277.112717 
L 369.374311 298.198978 
L 373.315463 336.542585 
L 376.981651 301.819804 
L 379.639637 278.719566 
L 381.931004 260.701673 
L 383.947408 246.523122 
L 385.780502 235.158862 
L 387.338631 226.787071 
L 388.713452 220.543653 
L 389.813308 216.485684 
L 390.729855 213.915208 
L 391.371438 212.690411 
L 391.829711 212.194736 
L 392.19633 212.088571 
L 392.471294 212.219041 
L 392.746258 212.570569 
L 393.112877 213.474078 
L 393.479496 215.043904 
L 393.846115 217.573883 
L 394.212733 221.571981 
L 394.579352 227.979168 
L 394.945971 238.671785 
L 395.31259 257.565395 
L 395.679209 291.737293 
L 396.045827 329.701047 
L 396.595756 264.351496 
L 396.962374 242.404771 
L 397.420648 227.979168 
L 397.878921 220.393995 
L 398.337195 216.16388 
L 398.795468 213.795057 
L 399.253742 212.570569 
L 399.62036 212.153079 
L 399.895325 212.087393 
L 400.261943 212.264295 
L 400.720217 212.830646 
L 401.270145 213.915208 
L 402.003382 215.905743 
L 402.919929 219.088372 
L 404.019786 223.727776 
L 405.394606 230.568395 
L 406.952736 239.519183 
L 408.694175 250.852714 
L 410.618924 264.849655 
L 412.818636 282.545083 
L 415.293313 304.325707 
L 418.409573 333.862626 
L 418.684537 336.542585 
L 419.509429 328.581129 
L 424.275473 282.825816 
L 426.291877 265.560575 
L 427.850006 253.92377 
L 429.224827 245.275766 
L 430.324683 239.64915 
L 431.332885 235.616999 
L 432.157777 233.176192 
L 432.891015 231.684191 
L 433.440943 230.994221 
L 433.899216 230.703792 
L 434.35749 230.673421 
L 434.815763 230.903241 
L 435.274037 231.392268 
L 435.823965 232.318242 
L 436.465548 233.858786 
L 437.198785 236.210502 
L 438.115332 239.999705 
L 439.123534 245.189365 
L 440.315045 252.573051 
L 441.689865 262.549893 
L 443.431304 276.978927 
L 445.722672 298.053135 
L 449.663824 336.508313 
L 449.755478 335.797401 
L 453.421666 301.127226 
L 456.079652 278.088834 
L 458.37102 260.134767 
L 460.387423 246.019429 
L 462.220517 234.719513 
L 463.778647 226.410278 
L 465.153467 220.232589 
L 466.253323 216.240364 
L 467.078216 213.950768 
L 467.719799 212.712904 
L 468.178072 212.20522 
L 468.544691 212.086997 
L 468.819655 212.206392 
L 469.094619 212.544446 
L 469.461238 213.424672 
L 469.827856 214.961898 
L 470.194475 217.44372 
L 470.561094 221.366001 
L 470.927713 227.644485 
L 471.294332 238.099887 
L 471.66095 256.53115 
L 472.027569 289.913748 
L 472.394188 331.996405 
L 472.944116 265.585454 
L 473.310735 243.081148 
L 473.769008 228.321015 
L 474.227282 220.58095 
L 474.685555 216.26946 
L 475.143829 213.852802 
L 475.602102 212.597527 
L 475.968721 212.162441 
L 476.243685 212.086229 
L 476.610304 212.251605 
L 477.068577 212.806402 
L 477.618506 213.879921 
L 478.351743 215.858796 
L 479.26829 219.029851 
L 480.368146 223.657937 
L 481.742967 230.486669 
L 483.301097 239.425759 
L 485.042536 250.747608 
L 486.967284 264.732879 
L 489.166997 282.416444 
L 491.641674 304.18598 
L 494.757933 333.713968 
L 495.032897 336.393504 
L 495.216207 335.016161 
L 500.898798 280.492008 
L 502.915201 263.502917 
L 504.473331 252.164019 
L 505.756497 244.337752 
L 506.856353 238.899817 
L 507.7729 235.357852 
L 508.597792 232.990647 
L 509.239375 231.708641 
L 509.789303 231.00837 
L 510.247577 230.709287 
L 510.70585 230.670239 
L 511.164124 230.891396 
L 511.622397 231.37181 
L 512.172325 232.287567 
L 512.813908 233.81643 
L 513.547146 236.155225 
L 514.463693 239.929099 
L 515.471894 245.103188 
L 516.663405 252.4705 
L 518.038226 262.43147 
L 519.779665 276.845248 
L 522.071032 297.907344 
L 526.012184 336.35919 
L 526.103839 335.946393 
L 529.770027 301.265618 
L 532.428013 278.214822 
L 534.71938 260.247967 
L 536.735784 246.119965 
L 538.568877 234.807154 
L 540.127007 226.485371 
L 541.501828 220.294477 
L 542.601684 216.289012 
L 543.426576 213.986601 
L 544.068159 212.735752 
L 544.526433 212.216153 
L 544.893051 212.085981 
L 545.168015 212.194415 
L 545.44298 212.519148 
L 545.809598 213.376392 
L 546.176217 214.881503 
L 546.542836 217.316002 
L 546.909455 221.163992 
L 547.276073 227.316786 
L 547.642692 237.541297 
L 548.009311 255.522788 
L 548.37593 288.126167 
L 548.742549 334.296911 
L 549.292477 266.850553 
L 549.659095 243.774217 
L 550.117369 228.670209 
L 550.575642 220.771549 
L 551.033916 216.37708 
L 551.492189 213.911809 
L 551.950463 212.62533 
L 552.317082 212.172446 
L 552.592046 212.085603 
L 552.958664 212.239349 
L 553.416938 212.782504 
L 553.966866 213.844909 
L 554.700104 215.812066 
L 555.616651 218.971503 
L 556.716507 223.588241 
L 558.091327 230.405066 
L 559.649457 239.332444 
L 561.390896 250.642599 
L 563.315645 264.616191 
L 565.515358 282.287882 
L 567.990034 304.046312 
L 571.106294 333.565336 
L 571.381258 336.244445 
L 571.472913 336.06088 
L 577.338813 279.810976 
L 579.263562 263.622743 
L 580.821692 252.265984 
L 582.104857 244.421893 
L 583.204714 238.966687 
L 584.121261 235.409148 
L 584.946153 233.0272 
L 585.67939 231.589238 
L 586.229319 230.940505 
L 586.687592 230.684702 
L 587.145866 230.689041 
L 587.604139 230.953502 
L 588.062412 231.476956 
L 588.612341 232.443756 
L 589.253924 234.03095 
L 589.987161 236.434244 
L 590.903708 240.284589 
L 591.91191 245.536313 
L 593.103421 252.985196 
L 594.478241 263.025159 
L 596.21968 277.514741 
L 598.511048 298.636819 
L 602.360545 336.210046 
L 602.4522 336.095408 
L 606.118387 301.404072 
L 608.776373 278.340889 
L 611.067741 260.361257 
L 613.084144 246.220603 
L 614.917238 234.894909 
L 616.475368 226.560597 
L 617.850188 220.356527 
L 618.950045 216.337869 
L 619.774937 214.022704 
L 620.41652 212.758953 
L 620.874793 212.22753 
L 621.241412 212.085518 
L 621.516376 212.183102 
L 621.79134 212.494666 
L 622.157959 213.329221 
L 622.524578 214.802694 
L 622.891196 217.190684 
L 623.257815 220.965869 
L 623.624434 226.995897 
L 623.991053 236.995646 
L 624.357672 254.539657 
L 624.72429 286.374784 
L 625.090909 336.6 
L 625.090909 336.6 
" style="fill:none;stroke:#5ee5a2;stroke-linecap:square;stroke-width:1.8;"/>
   </g>
  </g>
 </g>
 <defs>
  <clipPath id="p0a03b5fe23">
   <rect height="297" width="504" x="144" y="39.6"/>
  </clipPath>
 </defs>
</svg>
